{
.appVersion = "3343";
.formatVersion = 3;
DisplayStrings = (
"AaB­"
);
axes = (
{
name = Weight;
tag = wght;
}
);
classes = (
{
automatic = 1;
code = "A Aacute Abreve Abreveacute Abrevedotbelow Abrevegrave Abrevehookabove Abrevetilde Acaron Acircumflex Acircumflexacute Acircumflexdotbelow Acircumflexgrave Acircumflexhookabove Acircumflextilde Adieresis Adotbelow Agrave Ahookabove Amacron Aogonek Aring Atilde AE B C Cacute Ccaron Ccedilla Cdotaccent D Dcaron Dcroat Eth E Eacute Ecaron Ecircumflex Ecircumflexacute Ecircumflexdotbelow Ecircumflexgrave Ecircumflexhookabove Ecircumflextilde Edieresis Edotaccent Edotbelow Egrave Ehookabove Emacron Eogonek Etilde F G Gbreve Gcommaaccent Gdotaccent H Hbar I Iacute Icircumflex Idieresis Idotaccent Idotbelow Igrave Ihookabove Imacron Iogonek Itilde J K Kcommaaccent L Lacute Lcaron Lcommaaccent Lslash M N Nacute Ncaron Ncommaaccent Ntilde Eng O Oacute Ocircumflex Ocircumflexacute Ocircumflexdotbelow Ocircumflexgrave Ocircumflexhookabove Ocircumflextilde Odieresis Odotbelow Ograve Ohookabove Ohorn Ohornacute Ohorndotbelow Ohorngrave Ohornhookabove Ohorntilde Ohungarumlaut Omacron Oslash Otilde OE P Thorn Q R Racute Rcaron Rcommaaccent S Sacute Scaron Scedilla Scommaaccent Germandbls T Tbar Tcaron Tcedilla Tcommaaccent U Uacute Ubreve Ucircumflex Udieresis Udotbelow Ugrave Uhookabove Uhorn Uhornacute Uhorndotbelow Uhorngrave Uhornhookabove Uhorntilde Uhungarumlaut Umacron Uogonek Uring Utilde V W Wacute Wcircumflex Wdieresis Wgrave X Y Yacute Ycircumflex Ydieresis Ydotbelow Ygrave Yhookabove Ytilde Z Zacute Zcaron Zdotaccent";
name = Uppercase;
}
);
customParameters = (
{
name = "Instance Preview";
value = (
A,
a,
B,
b,
C,
c,
"0",
"1",
"2",
"3"
);
},
{
name = fsType;
value = (
);
},
{
name = "Family Alignment Zones";
value = (
{
pos = 700;
size = 20;
},
{
pos = 470;
size = 10;
},
{
pos = 0;
size = -10;
},
{
pos = -200;
size = -10;
}
);
},
{
name = "Use Typo Metrics";
value = 1;
},
{
name = "EditView Line Height";

glyphs = (
{
glyphname = A;
kernLeft = A;
kernRight = A;
lastChange = "2025-08-06 13:45:35 +0000";
layers = (
{
anchors = (
{
name = bottom;
pos = (247,0);
},
{
name = ogonek;
pos = (527,0);
},
{
name = top;
pos = (419,700);
}
);
layerId = "590A0C71-EA88-4A1F-B6FA-52B0DDF92252";
shapes = (
{
closed = 1;
nodes = (
(-7,0,l),
(421,675,l),
(410,675,l),
(504,0,l),
(534,0,l),
(434,700,l),
(403,700,l),
(-40,0,l)
);
},
{
closed = 1;
nodes = (
(486,219,l),
(481,247,l),
(129,247,l),
(110,219,l)
);
}
);
width = 608;
},
{
anchors = (
{
name = bottom;
pos = (288,0);
},
{
name = ogonek;
pos = (512,0);
},
{
name = top;
pos = (462,700);
}
);
hints = (
{
horizontal = 1;
origin = (0,7);
target = up;
type = BottomGhost;
},
{
horizontal = 1;
origin = (1,3);
target = (1,2);
type = Stem;
},
{
horizontal = 1;
origin = (0,6);
target = (0,2);
type = Stem;
}
);
layerId = "E84899BD-5F2A-4806-8411-3A23E0ED2668";
shapes = (
{
closed = 1;
nodes = (
(173,0,l),
(444,538,l),
(420,538,l),
(431,0,l),
(644,0,l),
(599,700,l),
(325,700,l),
(-67,0,l)
);
},
{
closed = 1;
nodes = (
(566,125,l),
(541,304,l),
(191,304,l),
(80,125,l)
);
}
);
width = 700;
},
{
anchors = (
{
name = bottom;
pos = (277,0);
},
{
name = ogonek;
pos = (517,0);
},
{
name = top;
pos = (449,700);
}
);
hints = (
{
horizontal = 1;
origin = (0,7);
target = up;
type = BottomGhost;
},
{
horizontal = 1;
origin = (1,3);
target = (1,2);
type = Stem;
},
{
horizontal = 1;
origin = (0,6);
target = (0,1,0,3);
type = Stem;
}
);
layerId = "138021A6-51CA-4FC2-BD69-BE801B30E3F7";
shapes = (
{
closed = 1;
nodes = (
(122,0,l),
(439,579,l),
(411,579,l),
(452,0,l),
(612,0,l),
(550,700,l),
(348,700,l),
(-58,0,l)
);
},
{
closed = 1;
nodes = (
(542,153,l),
(522,287,l),
(175,287,l),
(90,153,l)
);
}
);
width = 673;
}
);
unicode = 65;
},
{
glyphname = AE;
kernRight = E;
lastChange = "2025-08-06 13:45:48 +0000";
layers = (
{
layerId = "590A0C71-EA88-4A1F-B6FA-52B0DDF92252";
shapes = (
{
closed = 1;
nodes = (
(-27,0,l),
(575,675,l),
(569,678,l),
(430,112,ls),
(414,48,o),
(451,0,o),
(515,0,cs),
(779,0,l),
(786,28,l),
(516,28,ls),
(471,28,o),
(446,62,o),
(457,106,cs),
(599,685,l),
(583,672,l),
(944,672,l),
(951,700,l),
(560,700,l),
(-65,0,l)
);
},
{
closed = 1;
nodes = (
(474,228,l),
(481,256,l),
(188,256,l),
(163,228,l)
);
},
{
closed = 1;
nodes = (
(841,336,l),
(847,364,l),
(511,364,l),
(505,336,l)
);
}
);
width = 890;
},
{
hints = (
{
horizontal = 1;
origin = (0,18);
target = (0,9);
type = Stem;
},
{
horizontal = 1;
origin = (2,3);
target = (2,2);
type = Stem;
},
{
horizontal = 1;
origin = (0,17);
target = (0,15);
type = Stem;
},
{
horizontal = 1;
origin = (1,3);
target = (1,2);
type = Stem;
}
);
layerId = "E84899BD-5F2A-4806-8411-3A23E0ED2668";
shapes = (
{
closed = 1;
nodes = (
(175,0,l),
(549,578,l),
(526,591,l),
(417,148,ls),
(396,63,o),
(447,0,o),
(531,0,cs),
(852,0,l),
(899,192,l),
(657,192,ls),
(649,192,o),
(646,198,o),
(648,206,cs),
(743,595,l),
(632,508,l),
(977,508,l),
(1024,700,l),
(396,700,l),
(-84,0,l)
);
},
{
closed = 1;
nodes = (
(520,107,l),
(564,286,l),
(196,286,l),
(46,107,l)
);
},
{
closed = 1;
nodes = (
(896,265,l),
(940,440,l),
(629,440,l),
(586,265,l)
);
}
);
width = 952;
},
{
hints = (
{
horizontal = 1;
origin = (0,18);
target = (0,9);
type = Stem;
},
{
horizontal = 1;
origin = (2,3);
target = (2,2);
type = Stem;
},
{
horizontal = 1;
origin = (0,17);
target = (0,15);
type = Stem;
},
{
horizontal = 1;
origin = (1,3);
target = (1,2);
type = Stem;
}
);
layerId = "138021A6-51CA-4FC2-BD69-BE801B30E3F7";
shapes = (
{
closed = 1;
nodes = (
(117,0,l),
(564,607,l),
(527,617,l),
(407,130,ls),
(389,57,o),
(430,0,o),
(504,0,cs),
(819,0,l),
(855,145,l),
(590,145,ls),
(580,145,o),
(574,154,o),
(577,165,cs),
(689,622,l),
(604,555,l),
(955,555,l),
(991,700,l),
(448,700,l),
(-79,0,l)
);
},
{
closed = 1;
nodes = (
(494,143,l),
(527,277,l),
(184,277,l),
(69,143,l)
);
},
{
closed = 1;
nodes = (
(869,283,l),
(902,421,l),
(583,421,l),
(550,283,l)
);
}
);
width = 929;
}
);
unicode = 198;
},
{
glyphname = B;
kernLeft = H;
lastChange = "2025-08-06 15:38:05 +0000";
layers = (
{
background = {
shapes = (
{
closed = 1;
nodes = (
(264,0,ls),
(409,0,o),
(505,85,o),
(505,213,cs),
(505,301,o),
(433,365,o),
(337,365,c),
(329,352,l),
(454,352,o),
(564,413,o),
(564,536,cs),
(564,634,o),
(489,700,o),
(374,700,cs),
(216,700,l),
(44,0,l)
);
},
{
closed = 1;
nodes = (
(241,685,l),
(225,673,l),
(374,673,ls),
(472,673,o),
(535,619,o),
(535,533,cs),
(535,436,o),
(444,374,o),
(332,374,cs),
(152,374,l),
(145,347,l),
(329,347,ls),
(412,347,o),
(475,289,o),
(475,213,cs),
(478,103,o),
(396,27,o),
(269,27,cs),
(67,27,l),
(77,15,l)
);
}
);
};
layerId = "590A0C71-EA88-4A1F-B6FA-52B0DDF92252";
shapes = (
{
closed = 1;
nodes = (
(262,0,ls),
(407,0,o),
(503,85,o),
(503,213,cs),
(503,301,o),
(431,365,o),
(335,365,c),
(327,352,l),
(468,352,o),
(562,426,o),
(562,536,cs),
(562,634,o),
(487,700,o),
(372,700,cs),
(214,700,l),
(42,0,l)
);
},
{
closed = 1;
nodes = (
(239,685,l),
(223,673,l),
(372,673,ls),
(470,673,o),
(533,619,o),
(533,533,cs),
(533,438,o),
(452,374,o),
(330,374,cs),
(150,374,l),
(143,347,l),
(327,347,ls),
(410,347,o),
(473,289,o),
(473,213,cs),
(473,103,o),
(394,27,o),
(267,27,cs),
(65,27,l),
(75,15,l)
);
}
);
width = 575;
},
{
hints = (
{
horizontal = 1;
origin = (0,15);
target = (1,18);
type = Stem;
},
{
horizontal = 1;
origin = (1,11);
target = (1,9);
type = Stem;
},
{
horizontal = 1;
origin = (0,14);
target = (1,2);
type = Stem;
}
);
layerId = "E84899BD-5F2A-4806-8411-3A23E0ED2668";
shapes = (
{
closed = 1;
nodes = (
(303,0,ls),
(470,0,o),
(593,70,o),
(593,231,cs),
(593,308,o),
(534,366,o),
(458,366,c),
(458,344,l),
(556,344,o),
(639,430,o),
(639,531,cs),
(639,629,o),
(568,700,o),
(441,700,cs),
(164,700,l),
(-8,0,l)
);
},
{
closed = 1;
nodes = (
(357,598,l),
(250,530,l),
(365,530,ls),
(395,530,o),
(415,514,o),
(415,490,cs),
(415,458,o),
(384,434,o),
(348,434,cs),
(242,434,l),
(203,276,l),
(330,276,ls),
(359,276,o),
(379,260,o),
(379,235,cs),
(379,193,o),
(346,173,o),
(300,173,cs),
(163,173,l),
(235,102,l)
);
}
);
width = 626;
},
{
hints = (
{
horizontal = 1;
origin = (0,15);
target = (1,18);
type = Stem;
},
{
horizontal = 1;
origin = (1,11);
target = (1,9);
type = Stem;
},
{
horizontal = 1;
origin = (0,14);
target = (1,2);
type = Stem;
}
);
layerId = "138021A6-51CA-4FC2-BD69-BE801B30E3F7";
shapes = (
{
closed = 1;
nodes = (
(301,0,ls),
(458,0,o),
(573,72,o),
(573,225,cs),
(573,303,o),
(509,369,o),
(413,369,c),
(414,347,l),
(545,347,o),
(620,419,o),
(620,532,cs),
(620,628,o),
(545,700,o),
(404,700,cs),
(183,700,l),
(11,0,l)
);
},
{
closed = 1;
nodes = (
(321,624,l),
(245,569,l),
(372,569,ls),
(430,569,o),
(456,540,o),
(456,505,cs),
(456,454,o),
(414,420,o),
(351,420,cs),
(219,420,l),
(188,295,l),
(329,295,ls),
(388,295,o),
(411,261,o),
(411,225,cs),
(411,163,o),
(370,131,o),
(290,131,cs),
(137,131,l),
(187,76,l)
);
}
);
width = 619;
}
);
unicode = 66;
},
{
glyphname = C;
kernLeft = O;
kernRight = C;
lastChange = "2025-08-06 15:38:16 +0000";
layers = (
{
anchors = (
{
name = bottom;
pos = (305,0);
},
{
name = top;
pos = (507,700);
}
);
layerId = "590A0C71-EA88-4A1F-B6FA-52B0DDF92252";
shapes = (
{
closed = 1;
nodes = (
(417,-15,o),
(480,6,o),
(538,47,c),
(523,73,l),
(474,36,o),
(417,14,o),
(346,14,cs),
(225,14,o),
(112,77,o),
(112,271,cs),
(112,516,o),
(274,686,o),
(488,686,cs),
(561,686,o),
(621,666,o),
(660,630,c),
(680,652,l),
(638,692,o),
(570,715,o),
(489,715,cs),
(258,715,o),
(83,534,o),
(83,271,cs),
(83,62,o),
(204,-15,o),
(345,-15,cs)
);
}
);
width = 612;
},
{
anchors = (
{
name = bottom;
pos = (289,0);
},
{
name = top;
pos = (501,700);
}
);
hints = (
{
horizontal = 1;
origin = (0,25);
target = (0,6);
type = Stem;
},
{
horizontal = 1;
origin = (0,19);
target = (0,12);
type = Stem;
}
);
layerId = "E84899BD-5F2A-4806-8411-3A23E0ED2668";
shapes = (
{
closed = 1;
nodes = (
(457,-15,o),
(527,16,o),
(611,78,c),
(506,250,l),
(460,213,o),
(431,195,o),
(386,195,cs),
(322,195,o),
(272,223,o),
(272,318,cs),
(272,425,o),
(341,505,o),
(435,505,cs),
(478,505,o),
(509,488,o),
(541,450,c),
(707,600,l),
(660,671,o),
(573,715,o),
(457,715,cs),
(223,715,o),
(50,530,o),
(50,289,cs),
(50,59,o),
(206,-15,o),
(356,-15,cs)
);
}
);
width = 642;
},
{
anchors = (
{
name = bottom;
pos = (284,0);
},
{
name = top;
pos = (499,700);
}
);
hints = (
{
horizontal = 1;
origin = (0,25);
target = (0,6);
type = Stem;
},
{
horizontal = 1;
origin = (0,19);
target = (0,12);
type = Stem;
}
);
layerId = "138021A6-51CA-4FC2-BD69-BE801B30E3F7";
shapes = (
{
closed = 1;
nodes = (
(447,-15,o),
(539,12,o),
(600,67,c),
(519,199,l),
(466,159,o),
(420,144,o),
(378,144,cs),
(286,144,o),
(225,215,o),
(225,322,cs),
(225,452,o),
(320,556,o),
(434,556,cs),
(483,556,o),
(527,538,o),
(565,490,c),
(693,604,l),
(639,670,o),
(563,715,o),
(453,715,cs),
(205,715,o),
(61,507,o),
(61,297,cs),
(61,110,o),
(181,-15,o),
(360,-15,cs)
);
}
);
width = 643;
}
);
unicode = 67;
},
{
glyphname = D;
kernLeft = H;
kernRight = D;
lastChange = "2025-08-06 15:38:24 +0000";
layers = (
{
anchors = (
{
name = center;
pos = (185,360);
},
{
name = top;
pos = (431,700);
}
);
layerId = "590A0C71-EA88-4A1F-B6FA-52B0DDF92252";
shapes = (
{
closed = 1;
nodes = (
(243,0,ls),
(434,0,o),
(657,137,o),
(657,432,cs),
(657,593,o),
(540,700,o),
(365,700,cs),
(214,700,l),
(42,0,l)
);
},
{
closed = 1;
nodes = (
(239,684,l),
(223,671,l),
(364,671,ls),
(523,671,o),
(627,574,o),
(627,429,cs),
(627,159,o),
(425,29,o),
(249,29,cs),
(65,29,l),
(75,16,l)
);
}
);
width = 681;
},
{
anchors = (
{
name = center;
pos = (206,346);
},
{
name = top;
pos = (451,700);
}
);
hints = (
{
horizontal = 1;
origin = (0,8);
target = (1,9);
type = Stem;
},
{
horizontal = 1;
origin = (0,7);
target = (1,2);
type = Stem;
}
);
layerId = "E84899BD-5F2A-4806-8411-3A23E0ED2668";
shapes = (
{
closed = 1;
nodes = (
(287,0,ls),
(465,0,o),
(704,104,o),
(704,393,cs),
(704,565,o),
(576,700,o),
(379,700,cs),
(164,700,l),
(-8,0,l)
);
},
{
closed = 1;
nodes = (
(355,590,l),
(244,505,l),
(358,505,ls),
(434,505,o),
(484,457,o),
(484,385,cs),
(484,252,o),
(382,195,o),
(294,195,cs),
(168,195,l),
(237,110,l)
);
}
);
width = 706;
},
{
anchors = (
{
name = center;
pos = (213,357);
},
{
name = top;
pos = (449,700);
}
);
hints = (
{
horizontal = 1;
origin = (0,8);
target = (1,9);
type = Stem;
},
{
horizontal = 1;
origin = (0,7);
target = (1,2);
type = Stem;
}
);
layerId = "138021A6-51CA-4FC2-BD69-BE801B30E3F7";
shapes = (
{
closed = 1;
nodes = (
(265,0,ls),
(462,0,o),
(695,107,o),
(695,413,cs),
(695,575,o),
(572,700,o),
(368,700,cs),
(183,700,l),
(11,0,l)
);
},
{
closed = 1;
nodes = (
(323,618,l),
(240,551,l),
(367,551,ls),
(470,551,o),
(532,491,o),
(532,403,cs),
(532,219,o),
(410,149,o),
(279,149,cs),
(142,149,l),
(191,82,l)
);
}
);
width = 705;
}
);
unicode = 68;
},
{
glyphname = E;
kernLeft = E;
kernRight = E;
lastChange = "2025-08-06 15:38:36 +0000";
layers = (
{
anchors = (
{
name = bottom;
pos = (243,0);
},
{
name = ogonek;
pos = (410,0);
},
{
name = top;
pos = (408,700);
}
);
layerId = "590A0C71-EA88-4A1F-B6FA-52B0DDF92252";
shapes = (
{
closed = 1;
nodes = (
(410,0,l),
(417,28,l),
(148,28,ls),
(103,28,o),
(78,62,o),
(89,106,cs),
(208,590,ls),
(220,638,o),
(261,672,o),
(310,672,cs),
(575,672,l),
(582,700,l),
(309,700,ls),
(249,700,o),
(195,656,o),
(181,597,cs),
(62,112,ls),
(45,44,o),
(79,0,o),
(147,0,cs)
);
},
{
closed = 1;
nodes = (
(472,336,l),
(478,364,l),
(141,364,l),
(135,336,l)
);
}
);
width = 521;
},
{
anchors = (
{
name = bottom;
pos = (270,0);
},
{
name = ogonek;
pos = (481,0);
},
{
name = top;
pos = (433,700);
}
);
hints = (
{
horizontal = 1;
origin = (0,19);
target = (0,2);
type = Stem;
},
{
horizontal = 1;
origin = (1,3);
target = (1,2);
type = Stem;
},
{
horizontal = 1;
origin = (0,12);
target = (0,10);
type = Stem;
}
);
layerId = "E84899BD-5F2A-4806-8411-3A23E0ED2668";
shapes = (
{
closed = 1;
nodes = (
(481,0,l),
(528,192,l),
(266,192,ls),
(258,192,o),
(254,198,o),
(256,206,cs),
(326,494,ls),
(328,502,o),
(336,508,o),
(344,508,cs),
(606,508,l),
(653,700,l),
(289,700,ls),
(211,700,o),
(147,648,o),
(127,570,cs),
(21,140,ls),
(2,64,o),
(51,0,o),
(127,0,cs)
);
},
{
closed = 1;
nodes = (
(525,265,l),
(568,440,l),
(196,440,l),
(153,265,l)
);
}
);
width = 581;
},
{
anchors = (
{
name = bottom;
pos = (265,0);
},
{
name = ogonek;
pos = (465,0);
},
{
name = top;
pos = (429,700);
}
);
hints = (
{
horizontal = 1;
origin = (0,19);
target = (0,2);
type = Stem;
},
{
horizontal = 1;
origin = (1,3);
target = (1,2);
type = Stem;
},
{
horizontal = 1;
origin = (0,12);
target = (0,10);
type = Stem;
}
);
layerId = "138021A6-51CA-4FC2-BD69-BE801B30E3F7";
shapes = (
{
closed = 1;
nodes = (
(465,0,l),
(501,145,l),
(218,145,ls),
(207,145,o),
(200,154,o),
(203,165,cs),
(293,535,ls),
(296,546,o),
(307,555,o),
(318,555,cs),
(601,555,l),
(637,700,l),
(298,700,ls),
(221,700,o),
(165,655,o),
(146,578,cs),
(39,140,ls),
(18,56,o),
(61,0,o),
(146,0,cs)
);
},
{
closed = 1;
nodes = (
(514,283,l),
(547,421,l),
(183,421,l),
(150,283,l)
);
}
);
width = 575;
}
);
unicode = 69;
},
{
glyphname = F;
lastChange = "2025-08-06 15:49:04 +0000";
layers = (
{
layerId = "590A0C71-EA88-4A1F-B6FA-52B0DDF92252";
shapes = (
{
closed = 1;
nodes = (
(67,0,l),
(212,589,ls),
(224,638,o),
(266,672,o),
(315,672,cs),
(580,672,l),
(587,700,l),
(313,700,ls),
(253,700,o),
(199,656,o),
(185,597,cs),
(38,0,l)
);
},
{
closed = 1;
nodes = (
(474,320,l),
(481,348,l),
(140,348,l),
(133,320,l)
);
}
);
width = 510;
},
{
hints = (
{
horizontal = 1;
origin = (0,11);
target = up;
type = BottomGhost;
},
{
horizontal = 1;
origin = (1,3);
target = (1,2);
type = Stem;
},
{
horizontal = 1;
origin = (0,7);
target = (0,5);
type = Stem;
}
);
layerId = "E84899BD-5F2A-4806-8411-3A23E0ED2668";
shapes = (
{
closed = 1;
nodes = (
(206,0,l),
(327,491,ls),
(329,499,o),
(336,505,o),
(344,505,cs),
(598,505,l),
(646,700,l),
(292,700,ls),
(211,700,o),
(151,652,o),
(130,570,cs),
(-10,0,l)
);
},
{
closed = 1;
nodes = (
(499,212,l),
(547,407,l),
(200,407,l),
(152,212,l)
);
}
);
width = 559;
},
{
hints = (
{
horizontal = 1;
origin = (0,11);
target = up;
type = BottomGhost;
},
{
horizontal = 1;
origin = (1,3);
target = (1,2);
type = Stem;
},
{
horizontal = 1;
origin = (0,7);
target = (0,5);
type = Stem;
}
);
layerId = "138021A6-51CA-4FC2-BD69-BE801B30E3F7";
shapes = (
{
closed = 1;
nodes = (
(168,0,l),
(299,535,ls),
(302,546,o),
(313,555,o),
(324,555,cs),
(596,555,l),
(632,700,l),
(302,700,ls),
(228,700,o),
(168,651,o),
(150,578,cs),
(8,0,l)
);
},
{
closed = 1;
nodes = (
(497,251,l),
(532,394,l),
(187,394,l),
(152,251,l)
);
}
);
width = 552;
}
);
unicode = 70;
},
{
glyphname = G;
kernLeft = O;
kernRight = G;
lastChange = "2025-08-06 15:49:26 +0000";
layers = (
{
anchors = (
{
name = bottom;
pos = (327,0);
},
{
name = top;
pos = (479,700);
}
);
background = {
anchors = (
{
name = bottom;
pos = (330,0);
},
{
name = top;
pos = (502,700);
}
);
shapes = (
{
closed = 1;
nodes = (
(534,-15,o),
(663,108,o),
(702,348,c),
(466,348,l),
(459,321,l),
(679,321,l),
(669,335,l),
(631,123,o),
(513,14,o),
(344,14,cs),
(230,14,o),
(115,80,o),
(115,290,cs),
(115,512,o),
(270,686,o),
(485,686,cs),
(545,686,o),
(624,667,o),
(664,630,c),
(684,652,l),
(640,693,o),
(558,715,o),
(489,715,cs),
(255,715,o),
(86,527,o),
(86,287,cs),
(86,59,o),
(211,-15,o),
(343,-15,cs)
);
}
);
};
layerId = "590A0C71-EA88-4A1F-B6FA-52B0DDF92252";
shapes = (
{
closed = 1;
nodes = (
(531,-15,o),
(660,108,o),
(699,348,c),
(463,348,l),
(456,321,l),
(676,321,l),
(666,335,l),
(628,123,o),
(510,14,o),
(341,14,cs),
(227,14,o),
(112,80,o),
(112,290,cs),
(112,512,o),
(267,686,o),
(482,686,cs),
(542,686,o),
(621,667,o),
(661,630,c),
(681,652,l),
(637,693,o),
(555,715,o),
(486,715,cs),
(252,715,o),
(83,527,o),
(83,287,cs),
(83,59,o),
(208,-15,o),
(340,-15,cs)
);
}
);
width = 715;
},
{
anchors = (
{
name = bottom;
pos = (289,0);
},
{
name = top;
pos = (477,700);
}
);
hints = (
{
horizontal = 1;
origin = (0,28);
target = (0,9);
type = Stem;
},
{
horizontal = 1;
origin = (0,5);
target = (0,3);
type = Stem;
},
{
horizontal = 1;
origin = (0,22);
target = (0,15);
type = Stem;
}
);
layerId = "E84899BD-5F2A-4806-8411-3A23E0ED2668";
shapes = (
{
closed = 1;
nodes = (
(580,-15,o),
(717,141,o),
(749,407,c),
(413,407,l),
(372,242,l),
(585,242,l),
(506,296,l),
(511,220,o),
(458,181,o),
(383,181,cs),
(325,181,o),
(270,223,o),
(270,314,cs),
(270,400,o),
(323,510,o),
(442,510,cs),
(481,510,o),
(539,493,o),
(569,450,c),
(740,574,l),
(696,661,o),
(580,715,o),
(455,715,cs),
(184,715,o),
(49,491,o),
(49,297,cs),
(49,70,o),
(211,-15,o),
(360,-15,cs)
);
}
);
width = 738;
},
{
anchors = (
{
name = bottom;
pos = (299,0);
},
{
name = top;
pos = (469,700);
}
);
hints = (
{
horizontal = 1;
origin = (0,28);
target = (0,9);
type = Stem;
},
{
horizontal = 1;
origin = (0,5);
target = (0,3);
type = Stem;
},
{
horizontal = 1;
origin = (0,22);
target = (0,15);
type = Stem;
}
);
layerId = "138021A6-51CA-4FC2-BD69-BE801B30E3F7";
shapes = (
{
closed = 1;
nodes = (
(542,-15,o),
(719,115,o),
(729,396,c),
(431,396,l),
(399,266,l),
(607,266,l),
(549,308,l),
(549,195,o),
(463,135,o),
(376,135,cs),
(303,135,o),
(228,169,o),
(228,311,cs),
(228,450,o),
(325,559,o),
(443,559,cs),
(498,559,o),
(557,538,o),
(589,484,c),
(720,589,l),
(672,665,o),
(566,715,o),
(449,715,cs),
(223,715,o),
(63,531,o),
(63,294,cs),
(63,67,o),
(213,-15,o),
(362,-15,cs)
);
}
);
width = 731;
}
);
unicode = 71;
},
{
glyphname = H;
kernLeft = H;
kernRight = H;
lastChange = "2025-08-06 15:49:35 +0000";
layers = (
{
layerId = "590A0C71-EA88-4A1F-B6FA-52B0DDF92252";
shapes = (
{
closed = 1;
nodes = (
(535,0,l),
(709,700,l),
(680,700,l),
(506,0,l)
);
},
{
closed = 1;
nodes = (
(70,0,l),
(244,700,l),
(215,700,l),
(41,0,l)
);
},
{
closed = 1;
nodes = (
(602,346,l),
(609,374,l),
(153,374,l),
(146,346,l)
);
}
);
width = 693;
},
{
hints = (
{
horizontal = 1;
origin = (1,3);
target = up;
type = BottomGhost;
},
{
horizontal = 1;
origin = (2,3);
target = (2,2);
type = Stem;
},
{
horizontal = 1;
origin = (1,2);
target = down;
type = TopGhost;
}
);
layerId = "E84899BD-5F2A-4806-8411-3A23E0ED2668";
shapes = (
{
closed = 1;
nodes = (
(611,0,l),
(783,700,l),
(565,700,l),
(393,0,l)
);
},
{
closed = 1;
nodes = (
(210,0,l),
(382,700,l),
(164,700,l),
(-8,0,l)
);
},
{
closed = 1;
nodes = (
(542,259,l),
(590,454,l),
(213,454,l),
(165,259,l)
);
}
);
width = 724;
},
{
hints = (
{
horizontal = 1;
origin = (1,3);
target = up;
type = BottomGhost;
},
{
horizontal = 1;
origin = (2,3);
target = (2,2);
type = Stem;
},
{
horizontal = 1;
origin = (1,2);
target = down;
type = TopGhost;
}
);
layerId = "138021A6-51CA-4FC2-BD69-BE801B30E3F7";
shapes = (
{
closed = 1;
nodes = (
(593,0,l),
(765,700,l),
(604,700,l),
(432,0,l)
);
},
{
closed = 1;
nodes = (
(172,0,l),
(344,700,l),
(183,700,l),
(11,0,l)
);
},
{
closed = 1;
nodes = (
(565,289,l),
(601,434,l),
(200,434,l),
(164,289,l)
);
}
);
width = 723;
}
);
unicode = 72;
},
{
glyphname = Hbar;
kernLeft = H;
kernRight = H;
lastChange = "2025-08-06 15:50:01 +0000";
layers = (
{
layerId = "590A0C71-EA88-4A1F-B6FA-52B0DDF92252";
shapes = (
{
closed = 1;
nodes = (
(753,512,l),
(759,536,l),
(107,536,l),
(101,512,l)
);
},
{
closed = 1;
nodes = (
(548,0,l),
(720,700,l),
(691,700,l),
(519,0,l)
);
},
{
closed = 1;
nodes = (
(82,0,l),
(254,700,l),
(225,700,l),
(53,0,l)
);
},
{
closed = 1;
nodes = (
(606,314,l),
(613,342,l),
(156,342,l),
(149,314,l)
);
}
);
width = 717;
},
{
hints = (
{
horizontal = 1;
origin = (3,3);
target = (3,2);
type = Stem;
},
{
horizontal = 1;
origin = (0,3);
target = (0,2);
type = Stem;
},
{
horizontal = 1;
origin = (2,3);
target = up;
type = BottomGhost;
},
{
horizontal = 1;
origin = (2,2);
target = down;
type = TopGhost;
}
);
layerId = "E84899BD-5F2A-4806-8411-3A23E0ED2668";
shapes = (
{
closed = 1;
nodes = (
(829,458,l),
(866,612,l),
(114,612,l),
(77,458,l)
);
},
{
closed = 1;
nodes = (
(650,0,l),
(822,700,l),
(604,700,l),
(432,0,l)
);
},
{
closed = 1;
nodes = (
(249,0,l),
(421,700,l),
(203,700,l),
(31,0,l)
);
},
{
closed = 1;
nodes = (
(564,193,l),
(612,388,l),
(235,388,l),
(187,193,l)
);
}
);
width = 800;
},
{
hints = (
{
horizontal = 1;
origin = (3,3);
target = (3,2);
type = Stem;
},
{
horizontal = 1;
origin = (0,3);
target = (0,2);
type = Stem;
},
{
horizontal = 1;
origin = (2,3);
target = up;
type = BottomGhost;
},
{
horizontal = 1;
origin = (2,2);
target = down;
type = TopGhost;
}
);
layerId = "138021A6-51CA-4FC2-BD69-BE801B30E3F7";
shapes = (
{
closed = 1;
nodes = (
(807,470,l),
(836,589,l),
(114,589,l),
(85,470,l)
);
},
{
closed = 1;
nodes = (
(622,0,l),
(793,700,l),
(632,700,l),
(461,0,l)
);
},
{
closed = 1;
nodes = (
(201,0,l),
(372,700,l),
(211,700,l),
(40,0,l)
);
},
{
closed = 1;
nodes = (
(579,229,l),
(614,374,l),
(213,374,l),
(178,229,l)
);
}
);
width = 779;
}
);
unicode = 294;
},
{
glyphname = I;
kernLeft = I;
kernRight = I;
lastChange = "2025-08-06 15:55:25 +0000";
layers = (
{
anchors = (
{
name = bottom;
pos = (119,0);
},
{
name = ogonek;
pos = (136,0);
},
{
name = top;
pos = (293,700);
}
);
layerId = "590A0C71-EA88-4A1F-B6FA-52B0DDF92252";
shapes = (
{
closed = 1;
nodes = (
(138,10,l),
(305,690,l),
(275,690,l),
(108,10,l)
);
},
{
closed = 1;
nodes = (
(433,672,l),
(439,700,l),
(147,700,l),
(141,672,l)
);
},
{
closed = 1;
nodes = (
(268,0,l),
(274,28,l),
(-18,28,l),
(-24,0,l)
);
}
);
width = 358;
},
{
anchors = (
{
name = bottom;
pos = (187,0);
},
{
name = ogonek;
pos = (297,0);
},
{
name = top;
pos = (360,700);
}
);
hints = (
{
horizontal = 1;
origin = (2,3);
target = (2,2);
type = Stem;
},
{
horizontal = 1;
origin = (1,2);
target = (1,3);
type = Stem;
}
);
layerId = "E84899BD-5F2A-4806-8411-3A23E0ED2668";
shapes = (
{
closed = 1;
nodes = (
(314,67,l),
(453,633,l),
(235,633,l),
(96,67,l)
);
},
{
closed = 1;
nodes = (
(523,505,l),
(570,700,l),
(149,700,l),
(102,505,l)
);
},
{
closed = 1;
nodes = (
(399,0,l),
(446,195,l),
(25,195,l),
(-22,0,l)
);
}
);
width = 498;
},
{
anchors = (
{
name = bottom;
pos = (176,0);
},
{
name = ogonek;
pos = (258,0);
},
{
name = top;
pos = (350,700);
}
);
hints = (
{
horizontal = 1;
origin = (2,3);
target = (2,2);
type = Stem;
},
{
horizontal = 1;
origin = (1,2);
target = (1,3);
type = Stem;
}
);
layerId = "138021A6-51CA-4FC2-BD69-BE801B30E3F7";
shapes = (
{
closed = 1;
nodes = (
(270,50,l),
(418,650,l),
(257,650,l),
(109,50,l)
);
},
{
closed = 1;
nodes = (
(505,555,l),
(541,700,l),
(158,700,l),
(122,555,l)
);
},
{
closed = 1;
nodes = (
(369,0,l),
(405,145,l),
(22,145,l),
(-14,0,l)
);
}
);
width = 474;
}
);
unicode = 73;
},
{
glyphname = J;
lastChange = "2025-08-06 15:56:30 +0000";
layers = (
{
anchors = (
{
name = top;
pos = (295,700);
}
);
layerId = "590A0C71-EA88-4A1F-B6FA-52B0DDF92252";
shapes = (
{
closed = 1;
nodes = (
(109,0,ls),
(174,0,o),
(230,45,o),
(246,109,cs),
(391,700,l),
(167,700,l),
(160,672,l),
(367,672,l),
(358,685,l),
(217,113,ls),
(205,62,o),
(162,28,o),
(112,28,cs),
(-35,28,l),
(-42,0,l)
);
}
);
width = 373;
},
{
anchors = (
{
name = top;
pos = (376,700);
}
);
hints = (
{
horizontal = 1;
origin = (0,14);
target = (0,13);
type = Stem;
},
{
horizontal = 1;
origin = (0,5);
target = (0,7);
type = Stem;
}
);
layerId = "E84899BD-5F2A-4806-8411-3A23E0ED2668";
shapes = (
{
closed = 1;
nodes = (
(69,0,ls),
(246,0,o),
(332,67,o),
(375,238,cs),
(488,700,l),
(167,700,l),
(119,505,l),
(313,505,l),
(244,595,l),
(156,234,ls),
(150,212,o),
(130,195,o),
(108,195,cs),
(16,195,l),
(-32,0,l)
);
}
);
width = 425;
},
{
anchors = (
{
name = top;
pos = (317,700);
}
);
hints = (
{
horizontal = 1;
origin = (0,14);
target = (0,13);
type = Stem;
},
{
horizontal = 1;
origin = (0,5);
target = (0,7);
type = Stem;
}
);
layerId = "138021A6-51CA-4FC2-BD69-BE801B30E3F7";
shapes = (
{
closed = 1;
nodes = (
(64,0,ls),
(227,0,o),
(305,59,o),
(343,212,cs),
(463,700,l),
(171,700,l),
(135,555,l),
(333,555,l),
(283,622,l),
(178,196,ls),
(171,167,o),
(144,145,o),
(115,145,cs),
(5,145,l),
(-31,0,l)
);
}
);
width = 417;
}
);
unicode = 74;
},
{
glyphname = K;
kernLeft = H;
kernRight = K;
lastChange = "2025-08-06 15:56:36 +0000";
layers = (
{
anchors = (
{
name = bottom;
pos = (242,0);
},
{
name = top;
pos = (404,700);
}
);
layerId = "590A0C71-EA88-4A1F-B6FA-52B0DDF92252";
shapes = (
{
closed = 1;
nodes = (
(644,700,l),
(604,700,l),
(124,256,l),
(114,211,l)
);
},
{
closed = 1;
nodes = (
(71,0,l),
(243,700,l),
(214,700,l),
(42,0,l)
);
},
{
closed = 1;
nodes = (
(495,0,l),
(300,402,l),
(278,381,l),
(462,0,l)
);
}
);
width = 560;
},
{
anchors = (
{
name = bottom;
pos = (291,0);
},
{
name = top;
pos = (460,700);
}
);
hints = (
{
horizontal = 1;
origin = (2,3);
target = up;
type = BottomGhost;
},
{
horizontal = 1;
origin = (1,2);
target = down;
type = TopGhost;
}
);
layerId = "E84899BD-5F2A-4806-8411-3A23E0ED2668";
shapes = (
{
closed = 1;
nodes = (
(784,700,l),
(528,700,l),
(209,337,l),
(177,45,l)
);
},
{
closed = 1;
nodes = (
(210,0,l),
(382,700,l),
(164,700,l),
(-8,0,l)
);
},
{
closed = 1;
nodes = (
(605,0,l),
(472,512,l),
(298,352,l),
(368,0,l)
);
}
);
width = 666;
},
{
anchors = (
{
name = bottom;
pos = (277,0);
},
{
name = top;
pos = (447,700);
}
);
hints = (
{
horizontal = 1;
origin = (2,3);
target = up;
type = BottomGhost;
},
{
horizontal = 1;
origin = (1,2);
target = down;
type = TopGhost;
}
);
layerId = "138021A6-51CA-4FC2-BD69-BE801B30E3F7";
shapes = (
{
closed = 1;
nodes = (
(734,700,l),
(536,700,l),
(177,350,l),
(163,143,l)
);
},
{
closed = 1;
nodes = (
(171,0,l),
(343,700,l),
(183,700,l),
(11,0,l)
);
},
{
closed = 1;
nodes = (
(572,0,l),
(430,479,l),
(302,361,l),
(396,0,l)
);
}
);
width = 629;
}
);
unicode = 75;
},
{
glyphname = L;
kernLeft = L;
kernRight = L;
lastChange = "2025-08-06 15:56:51 +0000";
layers = (
{
anchors = (
{
name = bottom;
pos = (235,0);
},
{
name = center;
pos = (167,351);
},
{
name = top;
pos = (225,700);
},
{
name = topright;
pos = (415,700);
}
);
layerId = "590A0C71-EA88-4A1F-B6FA-52B0DDF92252";
shapes = (
{
closed = 1;
nodes = (
(398,0,l),
(405,29,l),
(152,29,ls),
(110,29,o),
(82,65,o),
(93,107,cs),
(239,700,l),
(210,700,l),
(66,112,ls),
(50,47,o),
(86,0,o),
(151,0,cs)
);
}
);
width = 461;
},
{
anchors = (
{
name = bottom;
pos = (235,0);
},
{
name = center;
pos = (213,364);
},
{
name = top;
pos = (272,700);
},
{
name = topright;
pos = (428,700);
}
);
hints = (
{
horizontal = 1;
origin = (0,11);
target = (0,2);
type = Stem;
},
{
horizontal = 1;
origin = (0,7);
target = down;
type = TopGhost;
}
);
layerId = "E84899BD-5F2A-4806-8411-3A23E0ED2668";
shapes = (
{
closed = 1;
nodes = (
(465,0,l),
(513,195,l),
(270,195,ls),
(262,195,o),
(257,201,o),
(259,209,cs),
(380,700,l),
(162,700,l),
(26,149,ls),
(4,60,o),
(50,0,o),
(140,0,cs)
);
}
);
width = 536;
},
{
anchors = (
{
name = bottom;
pos = (242,0);
},
{
name = center;
pos = (203,360);
},
{
name = top;
pos = (262,700);
},
{
name = topright;
pos = (431,700);
}
);
hints = (
{
horizontal = 1;
origin = (0,11);
target = (0,2);
type = Stem;
},
{
horizontal = 1;
origin = (0,7);
target = down;
type = TopGhost;
}
);
layerId = "138021A6-51CA-4FC2-BD69-BE801B30E3F7";
shapes = (
{
closed = 1;
nodes = (
(450,0,l),
(487,150,l),
(225,150,ls),
(210,150,o),
(206,155,o),
(210,170,cs),
(340,700,l),
(180,700,l),
(43,140,ls),
(24,64,o),
(73,0,o),
(150,0,cs)
);
}
);
width = 521;
}
);
unicode = 76;
},
{
glyphname = M;
kernLeft = H;
kernRight = H;
lastChange = "2025-08-06 16:04:54 +0000";
layers = (
{
layerId = "590A0C71-EA88-4A1F-B6FA-52B0DDF92252";
shapes = (
{
closed = 1;
nodes = (
(71,0,l),
(235,668,l),
(229,667,l),
(349,195,l),
(379,195,l),
(730,667,l),
(724,668,l),
(560,0,l),
(589,0,l),
(761,700,l),
(719,700,l),
(361,219,l),
(373,219,l),
(249,700,l),
(214,700,l),
(42,0,l)
);
}
);
width = 746;
},
{
hints = (
{
horizontal = 1;
origin = (0,15);
target = up;
type = BottomGhost;
},
{
horizontal = 1;
origin = (0,14);
target = down;
type = TopGhost;
}
);
layerId = "E84899BD-5F2A-4806-8411-3A23E0ED2668";
shapes = (
{
closed = 1;
nodes = (
(203,0,l),
(353,610,l),
(272,610,l),
(317,102,l),
(471,102,l),
(766,610,l),
(686,610,l),
(536,0,l),
(746,0,l),
(918,700,l),
(612,700,l),
(373,290,l),
(475,290,l),
(439,700,l),
(164,700,l),
(-8,0,l)
);
}
);
width = 859;
},
{
hints = (
{
horizontal = 1;
origin = (0,15);
target = up;
type = BottomGhost;
},
{
horizontal = 1;
origin = (0,14);
target = down;
type = TopGhost;
}
);
layerId = "138021A6-51CA-4FC2-BD69-BE801B30E3F7";
shapes = (
{
closed = 1;
nodes = (
(167,0,l),
(321,627,l),
(263,627,l),
(331,130,l),
(448,130,l),
(760,627,l),
(702,627,l),
(548,0,l),
(704,0,l),
(876,700,l),
(650,700,l),
(375,269,l),
(450,269,l),
(387,700,l),
(183,700,l),
(11,0,l)
);
}
);
width = 834;
}
);
unicode = 77;
},
{
glyphname = N;
kernLeft = H;
kernRight = H;
lastChange = "2025-08-06 16:05:00 +0000";
layers = (
{
anchors = (
{
name = bottom;
pos = (270,0);
},
{
name = top;
pos = (442,700);
}
);
layerId = "590A0C71-EA88-4A1F-B6FA-52B0DDF92252";
shapes = (
{
closed = 1;
nodes = (
(71,0,l),
(235,669,l),
(228,667,l),
(462,0,l),
(495,0,l),
(667,700,l),
(638,700,l),
(473,30,l),
(480,33,l),
(245,700,l),
(214,700,l),
(42,0,l)
);
}
);
width = 652;
},
{
anchors = (
{
name = bottom;
pos = (302,0);
},
{
name = top;
pos = (473,700);
}
);
hints = (
{
horizontal = 1;
origin = (0,11);
target = up;
type = BottomGhost;
},
{
horizontal = 1;
origin = (0,10);
target = down;
type = TopGhost;
}
);
layerId = "E84899BD-5F2A-4806-8411-3A23E0ED2668";
shapes = (
{
closed = 1;
nodes = (
(209,0,l),
(321,458,l),
(242,443,l),
(448,0,l),
(612,0,l),
(783,700,l),
(567,700,l),
(453,233,l),
(542,247,l),
(336,700,l),
(164,700,l),
(-7,0,l)
);
}
);
width = 724;
},
{
anchors = (
{
name = bottom;
pos = (296,0);
},
{
name = top;
pos = (468,700);
}
);
hints = (
{
horizontal = 1;
origin = (0,11);
target = up;
type = BottomGhost;
},
{
horizontal = 1;
origin = (0,10);
target = down;
type = TopGhost;
}
);
layerId = "138021A6-51CA-4FC2-BD69-BE801B30E3F7";
shapes = (
{
closed = 1;
nodes = (
(171,0,l),
(299,521,l),
(248,510,l),
(442,0,l),
(581,0,l),
(753,700,l),
(593,700,l),
(463,172,l),
(520,183,l),
(326,700,l),
(183,700,l),
(11,0,l)
);
}
);
width = 711;
}
);
unicode = 78;
},
{
glyphname = Eng;
kernLeft = H;
kernRight = H;
lastChange = "2025-08-06 16:05:14 +0000";
layers = (
{
layerId = "590A0C71-EA88-4A1F-B6FA-52B0DDF92252";
shapes = (
{
closed = 1;
nodes = (
(483,25,l),
(244,700,l),
(214,700,l),
(42,0,l),
(71,0,l),
(235,669,l),
(227,666,l),
(472,-26,l)
);
},
{
closed = 1;
nodes = (
(340,-200,ls),
(404,-200,o),
(456,-159,o),
(471,-97,cs),
(667,700,l),
(638,700,l),
(443,-92,ls),
(432,-138,o),
(389,-172,o),
(343,-172,cs),
(266,-172,l),
(259,-200,l)
);
}
);
width = 652;
},
{
hints = (
{
horizontal = 1;
origin = (1,11);
target = (1,9);
type = Stem;
},
{
horizontal = 1;
origin = (0,4);
target = up;
type = BottomGhost;
},
{
horizontal = 1;
origin = (1,5);
target = down;
type = TopGhost;
}
);
layerId = "E84899BD-5F2A-4806-8411-3A23E0ED2668";
shapes = (
{
closed = 1;
nodes = (
(537,277,l),
(335,700,l),
(164,700,l),
(-8,0,l),
(208,0,l),
(315,439,l),
(250,425,l),
(476,-37,l)
);
},
{
closed = 1;
nodes = (
(334,-200,ls),
(505,-200,o),
(576,-141,o),
(618,28,cs),
(783,700,l),
(567,700,l),
(403,34,ls),
(396,5,o),
(384,-5,o),
(353,-5,cs),
(273,-5,l),
(225,-200,l)
);
}
);
width = 724;
},
{
hints = (
{
horizontal = 1;
origin = (1,11);
target = (1,10);
type = Stem;
},
{
horizontal = 1;
origin = (0,4);
target = up;
type = BottomGhost;
},
{
horizontal = 1;
origin = (1,5);
target = down;
type = TopGhost;
}
);
layerId = "138021A6-51CA-4FC2-BD69-BE801B30E3F7";
shapes = (
{
closed = 1;
nodes = (
(509,208,l),
(326,700,l),
(183,700,l),
(11,0,l),
(171,0,l),
(295,508,l),
(254,497,l),
(456,-34,l)
);
},
{
closed = 1;
nodes = (
(334,-200,ls),
(484,-200,o),
(545,-147,o),
(584,12,cs),
(753,700,l),
(593,700,l),
(420,-4,ls),
(411,-42,o),
(395,-55,o),
(355,-55,cs),
(255,-55,l),
(219,-200,l)
);
}
);
width = 711;
}
);
unicode = 330;
},
{
glyphname = O;
kernLeft = O;
kernRight = O;
lastChange = "2025-08-06 16:56:58 +0000";
layers = (
{
anchors = (
{
name = bottom;
pos = (314,-1);
},
{
name = center;
pos = (400,350);
},
{
name = tail.Q;
pos = (315,0);
},
{
name = top;
pos = (486,700);
},
{
name = topright;
pos = (546,700);
}
);
layerId = "590A0C71-EA88-4A1F-B6FA-52B0DDF92252";
shapes = (
{
closed = 1;
nodes = (
(524,-10,o),
(724,133,o),
(724,429,cs),
(724,606,o),
(624,710,o),
(464,710,cs),
(242,710,o),
(81,520,o),
(81,268,cs),
(81,65,o),
(221,-10,o),
(350,-10,cs)
);
},
{
closed = 1;
nodes = (
(235,19,o),
(110,87,o),
(110,268,cs),
(110,503,o),
(259,681,o),
(464,681,cs),
(605,681,o),
(694,588,o),
(694,429,cs),
(694,167,o),
(524,19,o),
(350,19,cs)
);
}
);
width = 751;
},
{
anchors = (
{
name = bottom;
pos = (312,-1);
},
{
name = center;
pos = (404,350);
},
{
name = tail.Q;
pos = (312,0);
},
{
name = top;
pos = (497,700);
},
{
name = topright;
pos = (555,700);
}
);
hints = (
{
horizontal = 1;
place = (-15,208);
target = (1,11);
type = Stem;
},
{
horizontal = 1;
origin = (1,5);
target = (0,5);
type = Stem;
}
);
layerId = "E84899BD-5F2A-4806-8411-3A23E0ED2668";
shapes = (
{
closed = 1;
nodes = (
(544,-15,o),
(759,124,o),
(759,413,cs),
(759,594,o),
(637,715,o),
(449,715,cs),
(227,715,o),
(49,533,o),
(49,291,cs),
(49,60,o),
(212,-15,o),
(358,-15,cs)
);
},
{
closed = 1;
nodes = (
(323,193,o),
(270,228,o),
(270,317,cs),
(270,425,o),
(339,507,o),
(431,507,cs),
(494,507,o),
(538,458,o),
(538,387,cs),
(538,252,o),
(454,193,o),
(379,193,cs)
);
}
);
width = 758;
},
{
anchors = (
{
name = bottom;
pos = (318,-1);
},
{
name = center;
pos = (405,350);
},
{
name = tail.Q;
pos = (319,0);
},
{
name = top;
pos = (491,700);
},
{
name = topright;
pos = (553,700);
}
);
hints = (
{
horizontal = 1;
origin = (0,11);
target = (1,11);
type = Stem;
},
{
horizontal = 1;
origin = (1,5);
target = (0,5);
type = Stem;
}
);
layerId = "138021A6-51CA-4FC2-BD69-BE801B30E3F7";
shapes = (
{
closed = 1;
nodes = (
(554,-15,o),
(747,130,o),
(747,414,cs),
(747,595,o),
(625,715,o),
(447,715,cs),
(229,715,o),
(62,532,o),
(62,290,cs),
(62,67,o),
(221,-15,o),
(364,-15,cs)
);
},
{
closed = 1;
nodes = (
(300,140,o),
(227,185,o),
(227,307,cs),
(227,451,o),
(319,559,o),
(437,559,cs),
(522,559,o),
(582,498,o),
(582,406,cs),
(582,228,o),
(474,140,o),
(371,140,cs)
);
}
);
width = 757;
}
);
unicode = 79;
},
{
color = 8;
glyphname = Ohorn;
kernLeft = O;
kernRight = Ohorn;
lastChange = "2025-08-06 16:57:18 +0000";
layers = (
{
anchors = (
{
name = bottom;
pos = (315,0);
},
{
name = top;
pos = (460,700);
}
);
background = {
anchors = (
{
name = bottom;
pos = (316,0);
},
{
name = top;
pos = (461,700);
}
);
};
layerId = "590A0C71-EA88-4A1F-B6FA-52B0DDF92252";
shapes = (
{
closed = 1;
nodes = (
(533,-10,o),
(724,151,o),
(724,419,cs),
(724,525,o),
(684,609,o),
(619,659,c),
(608,655,l),
(620,654,o),
(640,653,o),
(649,653,cs),
(728,653,o),
(777,706,o),
(786,788,c),
(758,788,l),
(750,719,o),
(714,680,o),
(651,680,cs),
(598,680,o),
(529,710,o),
(463,710,cs),
(203,710,o),
(81,473,o),
(81,268,cs),
(81,61,o),
(218,-10,o),
(351,-10,cs)
);
},
{
closed = 1;
nodes = (
(232,19,o),
(110,83,o),
(110,268,cs),
(110,515,o),
(269,681,o),
(455,681,cs),
(599,681,o),
(694,579,o),
(694,419,cs),
(694,172,o),
(519,19,o),
(351,19,cs)
);
}
);
width = 751;
},
{
anchors = (
{
name = bottom;
pos = (317,0);
},
{
name = top;
pos = (484,700);
}
);
hints = (
{
horizontal = 1;
place = (-15,208);
target = (1,11);
type = Stem;
},
{
horizontal = 1;
origin = (1,5);
target = (0,19);
type = Stem;
}
);
layerId = "E84899BD-5F2A-4806-8411-3A23E0ED2668";
shapes = (
{
closed = 1;
nodes = (
(546,-15,o),
(758,125,o),
(758,413,cs),
(758,492,o),
(735,557,o),
(695,610,c),
(556,583,l),
(572,565,o),
(612,551,o),
(652,551,cs),
(802,551,o),
(866,654,o),
(869,788,c),
(675,788,l),
(677,707,o),
(649,680,o),
(620,680,cs),
(586,680,o),
(561,715,o),
(448,715,cs),
(226,715,o),
(49,533,o),
(49,291,cs),
(49,57,o),
(210,-15,o),
(359,-15,cs)
);
},
{
closed = 1;
nodes = (
(324,193,o),
(271,228,o),
(271,317,cs),
(271,425,o),
(340,507,o),
(432,507,cs),
(495,507,o),
(539,458,o),
(539,387,cs),
(539,252,o),
(455,193,o),
(380,193,cs)
);
}
);
width = 763;
},
{
anchors = (
{
name = bottom;
pos = (317,0);
},
{
name = top;
pos = (491,700);
}
);
hints = (
{
horizontal = 1;
origin = (0,25);
target = (1,11);
type = Stem;
},
{
horizontal = 1;
origin = (1,5);
target = (0,19);
type = Stem;
}
);
layerId = "138021A6-51CA-4FC2-BD69-BE801B30E3F7";
shapes = (
{
closed = 1;
nodes = (
(548,-15,o),
(747,135,o),
(747,414,cs),
(747,494,o),
(725,560,o),
(686,609,c),
(611,587,l),
(623,578,o),
(647,573,o),
(668,573,cs),
(786,573,o),
(848,660,o),
(850,788,c),
(711,788,l),
(711,731,o),
(701,680,o),
(645,680,cs),
(604,680,o),
(566,715,o),
(450,715,cs),
(235,715,o),
(62,534,o),
(62,290,cs),
(62,67,o),
(216,-15,o),
(361,-15,cs)
);
},
{
closed = 1;
nodes = (
(300,140,o),
(227,185,o),
(227,307,cs),
(227,451,o),
(319,559,o),
(437,559,cs),
(522,559,o),
(582,498,o),
(582,406,cs),
(582,228,o),
(474,140,o),
(371,140,cs)
);
}
);
width = 762;
}
);
unicode = 416;
},
{
glyphname = OE;
kernRight = E;
lastChange = "2025-08-06 16:57:27 +0000";
layers = (
{
background = {
shapes = (
{
closed = 1;
nodes = (
(835,0,l),
(842,28,l),
(389,28,ls),
(196,28,o),
(112,127,o),
(112,270,cs),
(112,522,o),
(290,672,o),
(552,672,cs),
(1000,672,l),
(1007,700,l),
(559,700,ls),
(281,700,o),
(81,540,o),
(81,270,cs),
(81,113,o),
(178,0,o),
(387,0,cs)
);
},
{
closed = 1;
nodes = (
(499,13,l),
(665,686,l),
(636,686,l),
(470,13,l)
);
},
{
closed = 1;
nodes = (
(897,336,l),
(903,364,l),
(571,364,l),
(565,336,l)
);
}
);
};
layerId = "590A0C71-EA88-4A1F-B6FA-52B0DDF92252";
shapes = (
{
closed = 1;
nodes = (
(834,0,l),
(841,28,l),
(388,28,ls),
(195,28,o),
(111,127,o),
(111,270,cs),
(111,522,o),
(289,672,o),
(551,672,cs),
(999,672,l),
(1006,700,l),
(558,700,ls),
(280,700,o),
(80,540,o),
(80,270,cs),
(80,113,o),
(177,0,o),
(386,0,cs)
);
},
{
closed = 1;
nodes = (
(498,13,l),
(664,686,l),
(635,686,l),
(469,13,l)
);
},
{
closed = 1;
nodes = (
(896,336,l),
(902,364,l),
(570,364,l),
(564,336,l)
);
}
);
width = 945;
},
{
hints = (
{
horizontal = 1;
origin = (0,17);
target = (0,2);
type = Stem;
},
{
horizontal = 1;
origin = (2,3);
target = (2,2);
type = Stem;
},
{
horizontal = 1;
origin = (0,11);
target = (0,9);
type = Stem;
}
);
layerId = "E84899BD-5F2A-4806-8411-3A23E0ED2668";
shapes = (
{
closed = 1;
nodes = (
(874,0,l),
(921,192,l),
(380,192,ls),
(299,192,o),
(268,257,o),
(268,316,cs),
(268,385,o),
(308,508,o),
(458,508,cs),
(999,508,l),
(1046,700,l),
(488,700,ls),
(228,700,o),
(49,537,o),
(49,292,cs),
(49,121,o),
(166,0,o),
(386,0,cs)
);
},
{
closed = 1;
nodes = (
(623,76,l),
(754,612,l),
(537,612,l),
(406,76,l)
);
},
{
closed = 1;
nodes = (
(918,265,l),
(961,440,l),
(600,440,l),
(557,265,l)
);
}
);
width = 974;
},
{
hints = (
{
horizontal = 1;
origin = (0,17);
target = (0,2);
type = Stem;
},
{
horizontal = 1;
origin = (2,3);
target = (2,2);
type = Stem;
},
{
horizontal = 1;
origin = (0,11);
target = (0,9);
type = Stem;
}
);
layerId = "138021A6-51CA-4FC2-BD69-BE801B30E3F7";
shapes = (
{
closed = 1;
nodes = (
(862,0,l),
(898,145,l),
(385,145,ls),
(275,145,o),
(224,211,o),
(224,302,cs),
(224,454,o),
(338,555,o),
(495,555,cs),
(998,555,l),
(1034,700,l),
(519,700,ls),
(243,700,o),
(59,533,o),
(59,281,cs),
(59,121,o),
(164,0,o),
(357,0,cs)
);
},
{
closed = 1;
nodes = (
(585,57,l),
(727,634,l),
(567,634,l),
(425,57,l)
);
},
{
closed = 1;
nodes = (
(911,283,l),
(944,421,l),
(592,421,l),
(559,283,l)
);
}
);
width = 972;
}
);
unicode = 338;
},
{
glyphname = P;
kernLeft = H;
lastChange = "2025-08-06 16:57:36 +0000";
layers = (
{
background = {
shapes = (
{
closed = 1;
nodes = (
(73,0,l),
(241,685,l),
(225,672,l),
(352,672,ls),
(461,672,o),
(523,610,o),
(523,527,cs),
(523,409,o),
(447,333,o),
(295,333,cs),
(140,333,l),
(133,306,l),
(292,306,ls),
(459,306,o),
(551,391,o),
(551,528,cs),
(551,626,o),
(476,700,o),
(357,700,cs),
(216,700,l),
(44,0,l)
);
}
);
};
layerId = "590A0C71-EA88-4A1F-B6FA-52B0DDF92252";
shapes = (
{
closed = 1;
nodes = (
(71,0,l),
(239,685,l),
(223,672,l),
(350,672,ls),
(459,672,o),
(521,610,o),
(521,527,cs),
(521,409,o),
(445,333,o),
(293,333,cs),
(138,333,l),
(131,306,l),
(290,306,ls),
(457,306,o),
(549,391,o),
(549,528,cs),
(549,626,o),
(474,700,o),
(355,700,cs),
(214,700,l),
(42,0,l)
);
}
);
width = 521;
},
{
hints = (
{
horizontal = 1;
origin = (0,20);
target = up;
type = BottomGhost;
},
{
horizontal = 1;
origin = (0,12);
target = (0,10);
type = Stem;
},
{
horizontal = 1;
origin = (0,19);
target = (0,3);
type = Stem;
}
);
layerId = "E84899BD-5F2A-4806-8411-3A23E0ED2668";
shapes = (
{
closed = 1;
nodes = (
(210,0,l),
(355,591,l),
(244,505,l),
(363,505,ls),
(406,505,o),
(423,476,o),
(423,450,cs),
(423,413,o),
(395,380,o),
(340,380,cs),
(185,380,l),
(138,189,l),
(328,189,ls),
(556,189,o),
(636,337,o),
(636,478,cs),
(636,602,o),
(559,700,o),
(394,700,cs),
(164,700,l),
(-8,0,l)
);
}
);
width = 607;
},
{
hints = (
{
horizontal = 1;
origin = (0,20);
target = up;
type = BottomGhost;
},
{
horizontal = 1;
origin = (0,12);
target = (0,10);
type = Stem;
},
{
horizontal = 1;
origin = (0,19);
target = (0,3);
type = Stem;
}
);
layerId = "138021A6-51CA-4FC2-BD69-BE801B30E3F7";
shapes = (
{
closed = 1;
nodes = (
(171,0,l),
(325,626,l),
(244,565,l),
(369,565,ls),
(422,565,o),
(455,528,o),
(455,478,cs),
(455,420,o),
(406,376,o),
(341,376,cs),
(177,376,l),
(145,244,l),
(332,244,ls),
(536,244,o),
(613,371,o),
(613,490,cs),
(613,629,o),
(530,700,o),
(370,700,cs),
(183,700,l),
(11,0,l)
);
}
);
width = 581;
}
);
unicode = 80;
},
{
glyphname = Thorn;
kernLeft = H;
lastChange = "2025-08-06 16:57:47 +0000";
layers = (
{
layerId = "590A0C71-EA88-4A1F-B6FA-52B0DDF92252";
shapes = (
{
closed = 1;
nodes = (
(256,153,ls),
(408,153,o),
(510,240,o),
(510,371,cs),
(510,476,o),
(438,547,o),
(324,547,cs),
(190,547,l),
(184,520,l),
(319,520,ls),
(418,520,o),
(481,463,o),
(481,371,cs),
(481,256,o),
(394,180,o),
(263,180,cs),
(100,180,l),
(94,153,l)
);
},
{
closed = 1;
nodes = (
(71,0,l),
(243,700,l),
(214,700,l),
(42,0,l)
);
}
);
width = 532;
},
{
hints = (
{
horizontal = 1;
origin = (1,3);
target = up;
type = BottomGhost;
},
{
horizontal = 1;
origin = (0,17);
target = (0,16);
type = Stem;
},
{
horizontal = 1;
origin = (0,9);
target = (0,7);
type = Stem;
},
{
horizontal = 1;
origin = (1,2);
target = down;
type = TopGhost;
}
);
layerId = "E84899BD-5F2A-4806-8411-3A23E0ED2668";
shapes = (
{
closed = 1;
nodes = (
(315,95,ls),
(494,95,o),
(613,210,o),
(613,383,cs),
(613,520,o),
(519,601,o),
(360,601,cs),
(220,601,l),
(173,410,l),
(339,410,ls),
(375,410,o),
(399,388,o),
(399,354,cs),
(399,313,o),
(366,286,o),
(317,286,cs),
(142,286,l),
(95,95,l)
);
},
{
closed = 1;
nodes = (
(208,0,l),
(380,700,l),
(164,700,l),
(-8,0,l)
);
}
);
width = 611;
},
{
hints = (
{
horizontal = 1;
origin = (1,3);
target = up;
type = BottomGhost;
},
{
horizontal = 1;
origin = (0,17);
target = (0,16);
type = Stem;
},
{
horizontal = 1;
origin = (0,9);
target = (0,7);
type = Stem;
},
{
horizontal = 1;
origin = (1,2);
target = down;
type = TopGhost;
}
);
layerId = "138021A6-51CA-4FC2-BD69-BE801B30E3F7";
shapes = (
{
closed = 1;
nodes = (
(290,122,ls),
(470,122,o),
(583,221,o),
(583,370,cs),
(583,501,o),
(497,578,o),
(350,578,cs),
(201,578,l),
(168,443,l),
(334,443,ls),
(393,443,o),
(425,413,o),
(425,359,cs),
(425,294,o),
(380,254,o),
(308,254,cs),
(121,254,l),
(89,122,l)
);
},
{
closed = 1;
nodes = (
(171,0,l),
(343,700,l),
(183,700,l),
(11,0,l)
);
}
);
width = 589;
}
);
unicode = 222;
},
{
glyphname = R;
kernLeft = H;
kernRight = R;
lastChange = "2025-08-06 16:57:56 +0000";
layers = (
{
anchors = (
{
name = bottom;
pos = (208,0);
},
{
name = top;
pos = (357,700);
}
);
background = {
anchors = (
{
name = bottom;
pos = (210,0);
},
{
name = top;
pos = (359,700);
}
);
shapes = (
{
closed = 1;
nodes = (
(73,0,l),
(241,685,l),
(225,672,l),
(353,672,ls),
(455,672,o),
(521,610,o),
(521,520,cs),
(521,396,o),
(419,342,o),
(292,342,cs),
(142,342,l),
(135,314,l),
(285,314,ls),
(439,314,o),
(551,382,o),
(551,524,cs),
(551,627,o),
(472,700,o),
(350,700,cs),
(216,700,l),
(44,0,l)
);
},
{
closed = 1;
nodes = (
(450,0,l),
(298,327,l),
(264,327,l),
(416,0,l)
);
}
);
};
layerId = "590A0C71-EA88-4A1F-B6FA-52B0DDF92252";
shapes = (
{
closed = 1;
nodes = (
(71,0,l),
(239,685,l),
(223,672,l),
(351,672,ls),
(453,672,o),
(519,610,o),
(519,520,cs),
(519,396,o),
(417,342,o),
(290,342,cs),
(140,342,l),
(133,314,l),
(283,314,ls),
(437,314,o),
(549,382,o),
(549,524,cs),
(549,627,o),
(470,700,o),
(348,700,cs),
(214,700,l),
(42,0,l)
);
},
{
closed = 1;
nodes = (
(448,0,l),
(296,327,l),
(262,327,l),
(414,0,l)
);
}
);
width = 544;
},
{
anchors = (
{
name = bottom;
pos = (258,0);
},
{
name = top;
pos = (422,700);
}
);
hints = (
{
horizontal = 1;
origin = (1,3);
target = up;
type = BottomGhost;
},
{
horizontal = 1;
origin = (0,12);
target = (0,10);
type = Stem;
},
{
horizontal = 1;
origin = (0,19);
target = (0,3);
type = Stem;
}
);
layerId = "E84899BD-5F2A-4806-8411-3A23E0ED2668";
shapes = (
{
closed = 1;
nodes = (
(210,0,l),
(358,601,l),
(227,515,l),
(378,515,ls),
(424,515,o),
(444,494,o),
(444,461,cs),
(444,419,o),
(412,389,o),
(356,389,cs),
(166,389,l),
(120,204,l),
(362,204,ls),
(547,204,o),
(664,311,o),
(664,475,cs),
(664,609,o),
(582,700,o),
(420,700,cs),
(164,700,l),
(-8,0,l)
);
},
{
closed = 1;
nodes = (
(575,0,l),
(499,277,l),
(294,277,l),
(345,0,l)
);
}
);
width = 647;
},
{
anchors = (
{
name = bottom;
pos = (248,0);
},
{
name = top;
pos = (407,700);
}
);
hints = (
{
horizontal = 1;
origin = (1,3);
target = up;
type = BottomGhost;
},
{
horizontal = 1;
origin = (0,12);
target = (0,10);
type = Stem;
},
{
horizontal = 1;
origin = (0,19);
target = (0,3);
type = Stem;
}
);
layerId = "138021A6-51CA-4FC2-BD69-BE801B30E3F7";
shapes = (
{
closed = 1;
nodes = (
(171,0,l),
(325,626,l),
(244,566,l),
(376,566,ls),
(440,566,o),
(469,525,o),
(469,479,cs),
(469,408,o),
(421,370,o),
(348,370,cs),
(175,370,l),
(142,237,l),
(353,237,ls),
(524,237,o),
(634,331,o),
(634,499,cs),
(634,614,o),
(551,700,o),
(380,700,cs),
(183,700,l),
(11,0,l)
);
},
{
closed = 1;
nodes = (
(540,0,l),
(452,306,l),
(296,306,l),
(366,0,l)
);
}
);
width = 626;
}
);
unicode = 82;
},
{
glyphname = S;
kernLeft = S;
kernRight = S;
lastChange = "2025-08-06 16:58:06 +0000";
layers = (
{
anchors = (
{
name = bottom;
pos = (179,0);
},
{
name = top;
pos = (364,700);
}
);
background = {
anchors = (
{
name = bottom;
pos = (175,0);
},
{
name = top;
pos = (380,700);
}
);
shapes = (
{
closed = 1;
nodes = (
(339,-10,o),
(428,70,o),
(428,191,cs),
(428,392,o),
(154,345,o),
(154,520,cs),
(154,618,o),
(229,683,o),
(341,683,cs),
(402,683,o),
(455,661,o),
(486,625,c),
(508,644,l),
(474,686,o),
(413,710,o),
(344,710,cs),
(213,710,o),
(125,632,o),
(125,516,cs),
(125,325,o),
(399,367,o),
(399,187,cs),
(399,85,o),
(323,17,o),
(209,17,cs),
(139,17,o),
(68,47,o),
(36,100,c),
(13,81,l),
(51,23,o),
(123,-10,o),
(205,-10,cs)
);
}
);
};
layerId = "590A0C71-EA88-4A1F-B6FA-52B0DDF92252";
shapes = (
{
closed = 1;
nodes = (
(343,-10,o),
(432,70,o),
(432,191,cs),
(432,392,o),
(158,345,o),
(158,520,cs),
(158,618,o),
(233,683,o),
(345,683,cs),
(406,683,o),
(459,661,o),
(490,625,c),
(512,644,l),
(478,686,o),
(417,710,o),
(348,710,cs),
(217,710,o),
(129,632,o),
(129,516,cs),
(129,325,o),
(403,367,o),
(403,187,cs),
(403,85,o),
(327,17,o),
(213,17,cs),
(143,17,o),
(72,47,o),
(40,100,c),
(17,81,l),
(55,23,o),
(127,-10,o),
(209,-10,cs)
);
}
);
width = 492;
},
{
anchors = (
{
name = bottom;
pos = (218,0);
},
{
name = top;
pos = (390,700);
}
);
hints = (
{
horizontal = 1;
origin = (0,31);
target = (0,24);
type = Stem;
},
{
horizontal = 1;
origin = (0,15);
target = (0,8);
type = Stem;
}
);
layerId = "E84899BD-5F2A-4806-8411-3A23E0ED2668";
shapes = (
{
closed = 1;
nodes = (
(414,-15,o),
(529,85,o),
(529,245,cs),
(529,440,o),
(305,427,o),
(305,493,cs),
(305,519,o),
(327,537,o),
(360,537,cs),
(396,537,o),
(439,520,o),
(487,470,c),
(630,602,l),
(583,672,o),
(490,715,o),
(383,715,cs),
(205,715,o),
(84,617,o),
(84,460,cs),
(84,263,o),
(307,274,o),
(307,208,cs),
(307,181,o),
(285,163,o),
(252,163,cs),
(217,163,o),
(190,178,o),
(135,239,c),
(-19,109,l),
(26,33,o),
(136,-15,o),
(244,-15,cs)
);
}
);
width = 561;
},
{
anchors = (
{
name = bottom;
pos = (211,0);
},
{
name = top;
pos = (397,700);
}
);
hints = (
{
horizontal = 1;
origin = (0,31);
target = (0,24);
type = Stem;
},
{
horizontal = 1;
origin = (0,15);
target = (0,8);
type = Stem;
}
);
layerId = "138021A6-51CA-4FC2-BD69-BE801B30E3F7";
shapes = (
{
closed = 1;
nodes = (
(399,-15,o),
(506,84,o),
(506,222,cs),
(506,435,o),
(262,395,o),
(262,507,cs),
(262,549,o),
(296,579,o),
(346,579,cs),
(387,579,o),
(424,558,o),
(460,511,c),
(578,605,l),
(535,667,o),
(453,715,o),
(352,715,cs),
(207,715,o),
(103,621,o),
(103,484,cs),
(103,274,o),
(342,308,o),
(342,195,cs),
(342,151,o),
(306,121,o),
(256,121,cs),
(214,121,o),
(162,145,o),
(117,202,c),
(-1,108,l),
(52,33,o),
(143,-15,o),
(246,-15,cs)
);
}
);
width = 544;
}
);
unicode = 83;
},
{
glyphname = Germandbls;
lastChange = "2025-08-06 16:58:26 +0000";
layers = (
{
background = {
shapes = (
{
closed = 1;
nodes = (
(466,-10,o),
(566,77,o),
(566,204,cs),
(566,278,o),
(529,337,o),
(476,366,c),
(482,354,l),
(634,559,l),
(610,648,o),
(539,710,o),
(422,710,cs),
(280,710,o),
(189,623,o),
(147,453,cs),
(36,0,l),
(64,0,l),
(175,453,ls),
(212,604,o),
(294,682,o),
(420,682,cs),
(525,682,o),
(586,628,o),
(606,546,c),
(606,568,l),
(446,352,l),
(503,328,o),
(536,269,o),
(536,201,cs),
(536,92,o),
(449,19,o),
(338,19,cs),
(284,19,o),
(228,37,o),
(197,65,c),
(178,41,l),
(207,16,o),
(269,-10,o),
(337,-10,cs)
);
}
);
};
layerId = "590A0C71-EA88-4A1F-B6FA-52B0DDF92252";
shapes = (
{
closed = 1;
nodes = (
(465,-10,o),
(565,77,o),
(565,204,cs),
(565,278,o),
(528,337,o),
(475,366,c),
(481,354,l),
(633,559,l),
(609,648,o),
(538,710,o),
(421,710,cs),
(279,710,o),
(188,623,o),
(146,453,cs),
(35,0,l),
(63,0,l),
(174,453,ls),
(211,604,o),
(293,682,o),
(419,682,cs),
(524,682,o),
(585,628,o),
(605,546,c),
(605,568,l),
(445,352,l),
(502,328,o),
(535,269,o),
(535,201,cs),
(535,92,o),
(448,19,o),
(337,19,cs),
(283,19,o),
(227,37,o),
(196,65,c),
(177,41,l),
(206,16,o),
(268,-10,o),
(336,-10,cs)
);
}
);
width = 635;
},
{
hints = (
{
horizontal = 1;
origin = (0,37);
target = (0,30);
type = Stem;
},
{
horizontal = 1;
origin = (0,10);
target = (0,19);
type = Stem;
}
);
layerId = "E84899BD-5F2A-4806-8411-3A23E0ED2668";
shapes = (
{
closed = 1;
nodes = (
(563,-10,o),
(661,75,o),
(661,219,cs),
(661,285,o),
(615,345,o),
(547,368,c),
(569,305,l),
(738,533,l),
(690,648,o),
(562,715,o),
(440,715,cs),
(256,715,o),
(134,608,o),
(85,410,cs),
(-16,0,l),
(199,0,l),
(300,409,ls),
(316,474,o),
(351,518,o),
(415,518,cs),
(450,518,o),
(477,504,o),
(495,479,c),
(495,536,l),
(333,312,l),
(400,291,o),
(438,261,o),
(438,229,cs),
(438,203,o),
(417,185,o),
(385,185,cs),
(371,185,o),
(349,188,o),
(326,198,c),
(244,25,l),
(288,3,o),
(338,-10,o),
(395,-10,cs)
);
}
);
width = 700;
},
{
hints = (
{
horizontal = 1;
origin = (0,37);
target = (0,30);
type = Stem;
},
{
horizontal = 1;
origin = (0,10);
target = (0,19);
type = Stem;
}
);
layerId = "138021A6-51CA-4FC2-BD69-BE801B30E3F7";
shapes = (
{
closed = 1;
nodes = (
(517,-10,o),
(613,77,o),
(613,208,cs),
(613,268,o),
(581,326,o),
(533,353,c),
(523,287,l),
(702,531,l),
(657,638,o),
(563,715,o),
(424,715,cs),
(255,715,o),
(155,611,o),
(120,469,cs),
(5,0,l),
(165,0,l),
(273,441,ls),
(293,523,o),
(333,567,o),
(407,567,cs),
(453,567,o),
(493,538,o),
(525,483,c),
(524,545,l),
(361,315,l),
(425,284,o),
(454,252,o),
(454,212,cs),
(454,168,o),
(420,138,o),
(370,138,cs),
(339,138,o),
(304,150,o),
(278,168,c),
(202,39,l),
(240,10,o),
(295,-10,o),
(367,-10,cs)
);
}
);
width = 672;
}
);
unicode = 7838;
},
{
glyphname = T;
kernLeft = T;
kernRight = T;
lastChange = "2025-08-06 16:58:37 +0000";
layers = (
{
anchors = (
{
name = bottom;
pos = (185,0);
},
{
name = center;
pos = (275,368);
},
{
name = top;
pos = (357,700);
}
);
layerId = "590A0C71-EA88-4A1F-B6FA-52B0DDF92252";
shapes = (
{
closed = 1;
nodes = (
(200,0,l),
(369,686,l),
(339,686,l),
(170,0,l)
);
},
{
closed = 1;
nodes = (
(583,672,l),
(590,700,l),
(124,700,l),
(117,672,l)
);
}
);
width = 484;
},
{
anchors = (
{
name = bottom;
pos = (222,0);
},
{
name = center;
pos = (301,325);
},
{
name = top;
pos = (395,700);
}
);
hints = (
{
horizontal = 1;
origin = (0,3);
target = up;
type = BottomGhost;
},
{
horizontal = 1;
origin = (1,2);
target = (1,3);
type = Stem;
}
);
layerId = "E84899BD-5F2A-4806-8411-3A23E0ED2668";
shapes = (
{
closed = 1;
nodes = (
(331,0,l),
(480,610,l),
(261,610,l),
(112,0,l)
);
},
{
closed = 1;
nodes = (
(619,505,l),
(666,700,l),
(123,700,l),
(76,505,l)
);
}
);
width = 566;
},
{
anchors = (
{
name = bottom;
pos = (214,0);
},
{
name = center;
pos = (297,338);
},
{
name = top;
pos = (387,700);
}
);
hints = (
{
horizontal = 1;
origin = (0,3);
target = up;
type = BottomGhost;
},
{
horizontal = 1;
origin = (1,2);
target = (1,3);
type = Stem;
}
);
layerId = "138021A6-51CA-4FC2-BD69-BE801B30E3F7";
shapes = (
{
closed = 1;
nodes = (
(294,0,l),
(449,633,l),
(288,633,l),
(133,0,l)
);
},
{
closed = 1;
nodes = (
(611,555,l),
(647,700,l),
(127,700,l),
(91,555,l)
);
}
);
width = 547;
}
);
unicode = 84;
},
{
glyphname = U;
kernLeft = U;
kernRight = U;
lastChange = "2025-08-06 16:58:49 +0000";
layers = (
{
anchors = (
{
name = bottom;
pos = (269,0);
},
{
name = ogonek;
pos = (337,0);
},
{
name = top;
pos = (442,700);
},
{
name = topright;
pos = (648,700);
}
);
background = {
anchors = (
{
name = bottom;
pos = (272,0);
},
{
name = ogonek;
pos = (340,0);
},
{
name = top;
pos = (445,700);
},
{
name = topright;
pos = (651,700);
}
);
shapes = (
{
closed = 1;
nodes = (
(441,-10,o),
(525,72,o),
(563,227,cs),
(679,700,l),
(651,700,l),
(536,228,ls),
(502,89,o),
(426,18,o),
(304,18,cs),
(166,18,o),
(94,113,o),
(129,256,cs),
(238,700,l),
(210,700,l),
(101,256,ls),
(62,96,o),
(146,-10,o),
(301,-10,cs)
);
}
);
};
layerId = "590A0C71-EA88-4A1F-B6FA-52B0DDF92252";
shapes = (
{
closed = 1;
nodes = (
(438,-10,o),
(522,72,o),
(560,227,cs),
(676,700,l),
(648,700,l),
(533,228,ls),
(499,89,o),
(423,18,o),
(301,18,cs),
(163,18,o),
(91,113,o),
(126,256,cs),
(235,700,l),
(207,700,l),
(98,256,ls),
(59,96,o),
(143,-10,o),
(298,-10,cs)
);
}
);
width = 654;
},
{
anchors = (
{
name = bottom;
pos = (279,0);
},
{
name = ogonek;
pos = (396,0);
},
{
name = top;
pos = (453,700);
},
{
name = topright;
pos = (528,700);
}
);
hints = (
{
horizontal = 1;
origin = (0,17);
target = (0,8);
type = Stem;
},
{
horizontal = 1;
origin = (0,13);
target = down;
type = TopGhost;
}
);
layerId = "E84899BD-5F2A-4806-8411-3A23E0ED2668";
shapes = (
{
closed = 1;
nodes = (
(503,-15,o),
(595,87,o),
(633,241,cs),
(746,700,l),
(528,700,l),
(423,271,ls),
(412,226,o),
(378,193,o),
(337,193,cs),
(296,193,o),
(257,225,o),
(272,286,cs),
(374,700,l),
(156,700,l),
(60,310,ls),
(12,115,o),
(114,-15,o),
(323,-15,cs)
);
}
);
width = 682;
},
{
anchors = (
{
name = bottom;
pos = (275,0);
},
{
name = ogonek;
pos = (387,0);
},
{
name = top;
pos = (448,700);
},
{
name = topright;
pos = (558,700);
}
);
hints = (
{
horizontal = 1;
origin = (0,17);
target = (0,8);
type = Stem;
},
{
horizontal = 1;
origin = (0,13);
target = down;
type = TopGhost;
}
);
layerId = "138021A6-51CA-4FC2-BD69-BE801B30E3F7";
shapes = (
{
closed = 1;
nodes = (
(475,-15,o),
(562,61,o),
(604,229,cs),
(719,700,l),
(558,700,l),
(450,261,ls),
(430,177,o),
(393,133,o),
(323,133,cs),
(254,133,o),
(206,170,o),
(228,261,cs),
(336,700,l),
(175,700,l),
(71,276,ls),
(29,101,o),
(116,-15,o),
(306,-15,cs)
);
}
);
width = 672;
}
);
unicode = 85;
},
{
color = 8;
glyphname = Uhorn;
kernLeft = U;
kernRight = Uhorn;
lastChange = "2025-08-06 16:58:56 +0000";
layers = (
{
anchors = (
{
name = bottom;
pos = (260,0);
},
{
name = top;
pos = (433,700);
}
);
background = {
anchors = (
{
name = bottom;
pos = (263,0);
},
{
name = top;
pos = (436,700);
}
);
shapes = (
{
closed = 1;
nodes = (
(445,-10,o),
(529,80,o),
(565,228,cs),
(678,689,l),
(664,676,l),
(756,673,o),
(808,722,o),
(817,808,c),
(789,808,l),
(781,739,o),
(745,700,o),
(680,700,cs),
(653,700,l),
(537,229,ls),
(505,99,o),
(433,18,o),
(301,18,cs),
(188,18,o),
(90,99,o),
(131,266,cs),
(238,700,l),
(210,700,l),
(103,265,ls),
(58,80,o),
(164,-10,o),
(305,-10,cs)
);
}
);
};
layerId = "590A0C71-EA88-4A1F-B6FA-52B0DDF92252";
shapes = (
{
closed = 1;
nodes = (
(442,-10,o),
(526,80,o),
(562,228,cs),
(675,689,l),
(661,676,l),
(753,673,o),
(805,722,o),
(814,808,c),
(786,808,l),
(778,739,o),
(742,700,o),
(677,700,cs),
(650,700,l),
(534,229,ls),
(502,99,o),
(430,18,o),
(298,18,cs),
(185,18,o),
(87,99,o),
(128,266,cs),
(235,700,l),
(207,700,l),
(100,265,ls),
(55,80,o),
(161,-10,o),
(302,-10,cs)
);
}
);
width = 665;
},
{
anchors = (
{
name = bottom;
pos = (295,0);
},
{
name = top;
pos = (468,700);
}
);
hints = (
{
horizontal = 1;
origin = (0,25);
target = (0,16);
type = Stem;
},
{
horizontal = 1;
origin = (0,21);
target = down;
type = TopGhost;
}
);
layerId = "E84899BD-5F2A-4806-8411-3A23E0ED2668";
shapes = (
{
closed = 1;
nodes = (
(532,-15,o),
(626,86,o),
(668,257,cs),
(774,689,l),
(679,576,l),
(814,602,o),
(867,681,o),
(868,808,c),
(677,808,l),
(679,726,o),
(655,700,o),
(590,700,cs),
(559,700,l),
(455,279,ls),
(442,227,o),
(410,193,o),
(355,193,cs),
(303,193,o),
(257,227,o),
(272,288,cs),
(374,700,l),
(156,700,l),
(63,322,ls),
(5,86,o),
(157,-15,o),
(341,-15,cs)
);
}
);
width = 731;
},
{
anchors = (
{
name = bottom;
pos = (275,0);
},
{
name = top;
pos = (448,700);
}
);
hints = (
{
horizontal = 1;
origin = (0,25);
target = (0,16);
type = Stem;
},
{
horizontal = 1;
origin = (0,21);
target = down;
type = TopGhost;
}
);
layerId = "138021A6-51CA-4FC2-BD69-BE801B30E3F7";
shapes = (
{
closed = 1;
nodes = (
(480,-15,o),
(563,67,o),
(608,248,cs),
(715,685,l),
(642,604,l),
(768,621,o),
(821,694,o),
(823,808,c),
(681,808,l),
(681,731,o),
(654,700,o),
(588,700,cs),
(558,700,l),
(450,261,ls),
(427,170,o),
(392,133,o),
(319,133,cs),
(256,133,o),
(205,170,o),
(228,261,cs),
(336,700,l),
(175,700,l),
(75,293,ls),
(19,67,o),
(150,-15,o),
(311,-15,cs)
);
}
);
width = 688;
}
);
unicode = 431;
},
{
glyphname = V;
lastChange = "2025-08-06 16:59:05 +0000";
layers = (
{
layerId = "590A0C71-EA88-4A1F-B6FA-52B0DDF92252";
shapes = (
{
closed = 1;
nodes = (
(251,0,l),
(682,700,l),
(648,700,l),
(235,26,l),
(245,26,l),
(164,700,l),
(134,700,l),
(220,0,l)
);
}
);
width = 587;
},
{
hints = (
{
horizontal = 1;
origin = (0,7);
target = up;
type = BottomGhost;
},
{
horizontal = 1;
origin = (0,6);
target = down;
type = TopGhost;
}
);
layerId = "E84899BD-5F2A-4806-8411-3A23E0ED2668";
shapes = (
{
closed = 1;
nodes = (
(398,0,l),
(802,700,l),
(552,700,l),
(262,160,l),
(349,160,l),
(324,700,l),
(105,700,l),
(165,0,l)
);
}
);
width = 684;
},
{
hints = (
{
horizontal = 1;
origin = (0,7);
target = up;
type = BottomGhost;
},
{
horizontal = 1;
origin = (0,6);
target = down;
type = TopGhost;
}
);
layerId = "138021A6-51CA-4FC2-BD69-BE801B30E3F7";
shapes = (
{
closed = 1;
nodes = (
(353,0,l),
(765,700,l),
(581,700,l),
(255,120,l),
(318,120,l),
(275,700,l),
(113,700,l),
(181,0,l)
);
}
);
width = 655;
}
);
unicode = 86;
},
{
glyphname = W;
kernLeft = W;
kernRight = W;
lastChange = "2025-08-06 16:59:09 +0000";
layers = (
{
anchors = (
{
name = top;
pos = (588,700);
}
);
layerId = "590A0C71-EA88-4A1F-B6FA-52B0DDF92252";
shapes = (
{
closed = 1;
nodes = (
(209,0,l),
(585,670,l),
(576,670,l),
(623,0,l),
(652,0,l),
(1037,700,l),
(1005,700,l),
(639,29,l),
(648,29,l),
(602,700,l),
(570,700,l),
(194,28,l),
(204,28,l),
(167,700,l),
(138,700,l),
(179,0,l)
);
}
);
width = 949;
},
{
anchors = (
{
name = top;
pos = (615,700);
}
);
hints = (
{
horizontal = 1;
origin = (0,15);
target = up;
type = BottomGhost;
},
{
horizontal = 1;
origin = (0,14);
target = down;
type = TopGhost;
}
);
layerId = "E84899BD-5F2A-4806-8411-3A23E0ED2668";
shapes = (
{
closed = 1;
nodes = (
(340,0,l),
(607,546,l),
(547,546,l),
(545,0,l),
(769,0,l),
(1117,700,l),
(884,700,l),
(642,169,l),
(739,169,l),
(731,700,l),
(479,700,l),
(209,169,l),
(305,169,l),
(325,700,l),
(111,700,l),
(116,0,l)
);
}
);
width = 1006;
},
{
anchors = (
{
name = top;
pos = (608,700);
}
);
hints = (
{
horizontal = 1;
origin = (0,15);
target = up;
type = BottomGhost;
},
{
horizontal = 1;
origin = (0,14);
target = down;
type = TopGhost;
}
);
layerId = "138021A6-51CA-4FC2-BD69-BE801B30E3F7";
shapes = (
{
closed = 1;
nodes = (
(303,0,l),
(601,583,l),
(556,583,l),
(568,0,l),
(733,0,l),
(1094,700,l),
(924,700,l),
(643,127,l),
(706,127,l),
(689,700,l),
(511,700,l),
(210,127,l),
(273,127,l),
(275,700,l),
(120,700,l),
(137,0,l)
);
}
);
width = 993;
}
);
unicode = 87;
},
{
glyphname = X;
lastChange = "2025-08-06 16:59:14 +0000";
layers = (
{
layerId = "590A0C71-EA88-4A1F-B6FA-52B0DDF92252";
shapes = (
{
closed = 1;
nodes = (
(-1,0,l),
(308,325,l),
(462,0,l),
(492,0,l),
(331,349,l),
(654,700,l),
(619,700,l),
(317,374,l),
(176,700,l),
(144,700,l),
(295,351,l),
(-38,0,l)
);
}
);
width = 569;
},
{
hints = (
{
horizontal = 1;
origin = (0,0);
target = up;
type = BottomGhost;
},
{
horizontal = 1;
origin = (0,9);
target = down;
type = TopGhost;
}
);
layerId = "E84899BD-5F2A-4806-8411-3A23E0ED2668";
shapes = (
{
closed = 1;
nodes = (
(199,0,l),
(338,182,l),
(396,0,l),
(625,0,l),
(513,318,l),
(814,700,l),
(542,700,l),
(404,501,l),
(342,700,l),
(103,700,l),
(232,366,l),
(-67,0,l)
);
}
);
width = 690;
},
{
hints = (
{
horizontal = 1;
origin = (0,0);
target = up;
type = BottomGhost;
},
{
horizontal = 1;
origin = (0,9);
target = down;
type = TopGhost;
}
);
layerId = "138021A6-51CA-4FC2-BD69-BE801B30E3F7";
shapes = (
{
closed = 1;
nodes = (
(143,0,l),
(332,233,l),
(416,0,l),
(584,0,l),
(461,331,l),
(776,700,l),
(568,700,l),
(381,467,l),
(301,700,l),
(124,700,l),
(251,368,l),
(-57,0,l)
);
}
);
width = 661;
}
);
unicode = 88;
},
{
glyphname = Y;
kernLeft = Y;
kernRight = Y;
lastChange = "2025-08-06 16:59:20 +0000";
layers = (
{
anchors = (
{
name = bottom;
pos = (230,0);
},
{
name = top;
pos = (402,700);
}
);
layerId = "590A0C71-EA88-4A1F-B6FA-52B0DDF92252";
shapes = (
{
closed = 1;
nodes = (
(244,0,l),
(319,305,l),
(674,700,l),
(638,700,l),
(301,324,l),
(314,324,l),
(159,700,l),
(129,700,l),
(290,305,l),
(215,0,l)
);
}
);
width = 575;
},
{
anchors = (
{
name = bottom;
pos = (263,0);
},
{
name = top;
pos = (435,700);
}
);
hints = (
{
horizontal = 1;
origin = (0,9);
target = up;
type = BottomGhost;
},
{
horizontal = 1;
origin = (0,7);
target = down;
type = TopGhost;
}
);
layerId = "E84899BD-5F2A-4806-8411-3A23E0ED2668";
shapes = (
{
closed = 1;
nodes = (
(372,0,l),
(440,275,l),
(767,700,l),
(516,700,l),
(303,413,l),
(398,413,l),
(329,700,l),
(101,700,l),
(220,275,l),
(152,0,l)
);
}
);
width = 646;
},
{
anchors = (
{
name = bottom;
pos = (249,0);
},
{
name = top;
pos = (421,700);
}
);
hints = (
{
horizontal = 1;
origin = (0,9);
target = up;
type = BottomGhost;
},
{
horizontal = 1;
origin = (0,7);
target = down;
type = TopGhost;
}
);
layerId = "138021A6-51CA-4FC2-BD69-BE801B30E3F7";
shapes = (
{
closed = 1;
nodes = (
(329,0,l),
(399,284,l),
(732,700,l),
(547,700,l),
(300,386,l),
(363,386,l),
(270,700,l),
(109,700,l),
(238,284,l),
(168,0,l)
);
}
);
width = 617;
}
);
unicode = 89;
},
{
glyphname = Z;
kernLeft = Z;
kernRight = Z;
lastChange = "2025-08-06 16:59:31 +0000";
layers = (
{
anchors = (
{
name = top;
pos = (383,700);
}
);
layerId = "590A0C71-EA88-4A1F-B6FA-52B0DDF92252";
shapes = (
{
closed = 1;
nodes = (
(443,0,l),
(449,28,l),
(3,28,l),
(11,19,l),
(608,674,l),
(614,700,l),
(151,700,l),
(145,672,l),
(582,672,l),
(576,681,l),
(-24,26,l),
(-30,0,l)
);
}
);
width = 532;
},
{
anchors = (
{
name = top;
pos = (415,700);
}
);
hints = (
{
horizontal = 1;
origin = (0,11);
target = (0,2);
type = Stem;
},
{
horizontal = 1;
origin = (0,6);
target = (0,8);
type = Stem;
}
);
layerId = "E84899BD-5F2A-4806-8411-3A23E0ED2668";
shapes = (
{
closed = 1;
nodes = (
(509,0,l),
(555,187,l),
(186,187,l),
(225,118,l),
(632,520,l),
(676,700,l),
(154,700,l),
(108,513,l),
(444,513,l),
(402,584,l),
(12,189,l),
(-34,0,l)
);
}
);
width = 600;
},
{
anchors = (
{
name = top;
pos = (409,700);
}
);
hints = (
{
horizontal = 1;
origin = (0,11);
target = (0,2);
type = Stem;
},
{
horizontal = 1;
origin = (0,6);
target = (0,8);
type = Stem;
}
);
layerId = "138021A6-51CA-4FC2-BD69-BE801B30E3F7";
shapes = (
{
closed = 1;
nodes = (
(489,0,l),
(523,139,l),
(139,139,l),
(165,88,l),
(624,566,l),
(657,700,l),
(160,700,l),
(126,561,l),
(484,561,l),
(456,613,l),
(8,140,l),
(-26,0,l)
);
}
);
width = 585;
}
);
unicode = 90;
},
{
glyphname = a;
kernLeft = a;
kernRight = a;
lastChange = "2025-08-06 17:00:21 +0000";
layers = (
{
anchors = (
{
name = bottom;
pos = (229,0);
},
{
name = ogonek;
pos = (489,0);
},
{
name = top;
pos = (344,472);
}
);
background = {
anchors = (
{
name = bottom;
pos = (236,0);
},
{
name = ogonek;
pos = (486,0);
},
{
name = top;
pos = (351,472);
}
);
shapes = (
{
closed = 1;
nodes = (
(291,-10,o),
(361,35,o),
(394,102,c),
(391,105,l),
(373,42,o),
(401,0,o),
(464,0,cs),
(486,0,l),
(493,27,l),
(468,27,ls),
(427,27,o),
(407,53,o),
(417,95,cs),
(510,472,l),
(480,472,l),
(444,324,l),
(448,327,l),
(438,425,o),
(377,482,o),
(290,482,cs),
(158,482,o),
(47,357,o),
(47,183,cs),
(47,50,o),
(135,-10,o),
(219,-10,cs)
);
},
{
closed = 1;
nodes = (
(152,17,o),
(76,66,o),
(76,187,cs),
(76,341,o),
(172,454,o),
(292,454,cs),
(377,454,o),
(429,391,o),
(429,283,cs),
(429,167,o),
(357,17,o),
(222,17,cs)
);
}
);
};
layerId = "590A0C71-EA88-4A1F-B6FA-52B0DDF92252";
shapes = (
{
closed = 1;
nodes = (
(294,-10,o),
(364,35,o),
(397,102,c),
(394,105,l),
(376,42,o),
(404,0,o),
(467,0,cs),
(489,0,l),
(496,27,l),
(471,27,ls),
(430,27,o),
(410,53,o),
(420,95,cs),
(513,472,l),
(483,472,l),
(447,324,l),
(451,327,l),
(441,425,o),
(380,482,o),
(293,482,cs),
(161,482,o),
(50,357,o),
(50,183,cs),
(50,50,o),
(138,-10,o),
(222,-10,cs)
);
},
{
closed = 1;
nodes = (
(155,17,o),
(79,66,o),
(79,187,cs),
(79,341,o),
(175,454,o),
(295,454,cs),
(380,454,o),
(432,391,o),
(432,283,cs),
(432,167,o),
(360,17,o),
(225,17,cs)
);
}
);
width = 552;
},
{
anchors = (
{
name = bottom;
pos = (262,0);
},
{
name = ogonek;
pos = (525,0);
},
{
name = top;
pos = (350,502);
}
);
hints = (
{
horizontal = 1;
origin = (1,5);
target = (0,14);
type = Stem;
},
{
horizontal = 1;
origin = (0,25);
target = (1,11);
type = Stem;
}
);
layerId = "E84899BD-5F2A-4806-8411-3A23E0ED2668";
shapes = (
{
closed = 1;
nodes = (
(251,-10,o),
(315,26,o),
(345,96,c),
(306,96,l),
(316,33,o),
(370,0,o),
(457,0,cs),
(525,0,l),
(567,168,l),
(530,168,ls),
(519,168,o),
(516,172,o),
(519,182,cs),
(597,502,l),
(395,502,l),
(376,425,l),
(399,425,l),
(383,480,o),
(346,512,o),
(273,512,cs),
(128,512,o),
(18,374,o),
(18,192,cs),
(18,40,o),
(101,-10,o),
(190,-10,cs)
);
},
{
closed = 1;
nodes = (
(246,172,o),
(221,188,o),
(221,229,cs),
(221,287,o),
(257,330,o),
(299,330,cs),
(327,330,o),
(351,314,o),
(351,271,cs),
(351,215,o),
(316,172,o),
(274,172,cs)
);
}
);
width = 606;
},
{
anchors = (
{
name = bottom;
pos = (228,0);
},
{
name = ogonek;
pos = (511,0);
},
{
name = top;
pos = (337,493);
}
);
hints = (
{
horizontal = 1;
origin = (1,5);
target = (0,19);
type = Stem;
},
{
horizontal = 1;
place = (-10,133);
target = (1,11);
type = Stem;
}
);
layerId = "138021A6-51CA-4FC2-BD69-BE801B30E3F7";
shapes = (
{
closed = 1;
nodes = (
(275,-10,o),
(345,41,o),
(374,109,c),
(338,109,l),
(338,34,o),
(374,0,o),
(455,0,cs),
(511,0,l),
(542,124,l),
(493,124,ls),
(478,124,o),
(474,129,o),
(478,144,cs),
(565,493,l),
(415,493,l),
(385,377,l),
(422,402,l),
(401,466,o),
(354,503,o),
(284,503,cs),
(142,503,o),
(28,358,o),
(28,187,cs),
(28,35,o),
(117,-10,o),
(202,-10,cs)
);
},
{
closed = 1;
nodes = (
(212,123,o),
(177,141,o),
(177,221,cs),
(177,291,o),
(224,371,o),
(294,371,cs),
(347,371,o),
(365,334,o),
(365,281,cs),
(365,195,o),
(315,123,o),
(255,123,cs)
);
}
);
width = 595;
}
);
unicode = 97;
},
{
glyphname = ae;
kernRight = e;
lastChange = "2025-08-06 19:38:05 +0000";
layers = (
{
anchors = (
{
name = bottom;
pos = (299,0);
},
{
name = top;
pos = (415,472);
}
);
layerId = "590A0C71-EA88-4A1F-B6FA-52B0DDF92252";
shapes = (
{
closed = 1;
nodes = (
(552,-10,o),
(601,10,o),
(639,38,c),
(626,64,l),
(591,39,o),
(550,18,o),
(493,18,cs),
(426,18,o),
(362,49,o),
(362,183,cs),
(362,336,o),
(471,454,o),
(593,454,cs),
(651,454,o),
(688,427,o),
(688,379,cs),
(688,293,o),
(564,227,o),
(356,231,c),
(350,205,l),
(580,197,o),
(717,274,o),
(717,380,cs),
(717,444,o),
(671,482,o),
(594,482,cs),
(504,482,o),
(428,429,o),
(378,346,c),
(382,346,l),
(375,435,o),
(323,482,o),
(237,482,cs),
(173,482,o),
(118,456,o),
(81,412,c),
(97,390,l),
(128,430,o),
(177,454,o),
(234,454,cs),
(323,454,o),
(367,395,o),
(346,280,cs),
(342,260,ls),
(313,141,o),
(333,-10,o),
(491,-10,cs)
);
},
{
closed = 1;
nodes = (
(288,-10,o),
(354,63,o),
(354,128,c),
(353,128,l),
(356,199,o),
(288,260,o),
(198,260,cs),
(105,260,o),
(31,203,o),
(31,120,cs),
(31,42,o),
(104,-10,o),
(189,-10,cs)
);
},
{
closed = 1;
nodes = (
(118,15,o),
(61,58,o),
(61,123,cs),
(61,190,o),
(121,235,o),
(198,235,cs),
(267,235,o),
(331,199,o),
(331,134,cs),
(331,66,o),
(265,15,o),
(189,15,cs)
);
}
);
width = 733;
},
{
anchors = (
{
name = bottom;
pos = (324,0);
},
{
name = top;
pos = (448,502);
}
);
hints = (
{
horizontal = 1;
origin = (0,19);
target = (0,18);
type = Stem;
},
{
horizontal = 1;
origin = (0,46);
target = (0,6);
type = Stem;
},
{
horizontal = 1;
origin = (0,32);
target = (0,39);
type = Stem;
}
);
layerId = "E84899BD-5F2A-4806-8411-3A23E0ED2668";
shapes = (
{
closed = 1;
nodes = (
(548,-10,o),
(634,5,o),
(715,52,c),
(660,197,l),
(592,164,o),
(561,160,o),
(529,160,cs),
(494,160,o),
(468,175,o),
(468,223,cs),
(468,303,o),
(508,366,o),
(546,366,cs),
(559,366,o),
(569,357,o),
(569,345,cs),
(569,305,o),
(502,274,o),
(414,272,c),
(414,176,l),
(643,181,o),
(763,252,o),
(763,375,cs),
(763,457,o),
(699,512,o),
(603,512,cs),
(510,512,o),
(456,485,o),
(390,412,c),
(454,412,l),
(454,483,o),
(377,512,o),
(287,512,cs),
(198,512,o),
(115,482,o),
(58,453,c),
(108,315,l),
(151,335,o),
(204,350,o),
(246,350,cs),
(279,350,o),
(296,335,o),
(289,309,cs),
(278,265,ls),
(243,116,o),
(336,-10,o),
(479,-10,cs)
);
},
{
closed = 1;
nodes = (
(264,-10,o),
(343,44,o),
(365,149,c),
(369,149,l),
(367,237,o),
(293,296,o),
(193,296,cs),
(71,296,o),
(-6,232,o),
(-6,123,cs),
(-6,43,o),
(62,-10,o),
(159,-10,cs)
);
},
{
closed = 1;
nodes = (
(213,118,o),
(197,132,o),
(197,150,cs),
(197,175,o),
(217,189,o),
(238,189,cs),
(259,189,o),
(274,176,o),
(274,157,cs),
(274,133,o),
(255,118,o),
(234,118,cs)
);
}
);
width = 763;
},
{
anchors = (
{
name = bottom;
pos = (312,0);
},
{
name = top;
pos = (434,493);
}
);
hints = (
{
horizontal = 1;
origin = (0,19);
target = (1,6);
type = Stem;
},
{
horizontal = 1;
origin = (0,46);
target = (0,6);
type = Stem;
},
{
horizontal = 1;
origin = (0,39);
target = (0,32);
type = Stem;
}
);
layerId = "138021A6-51CA-4FC2-BD69-BE801B30E3F7";
shapes = (
{
closed = 1;
nodes = (
(565,-10,o),
(638,11,o),
(688,54,c),
(614,154,l),
(581,129,o),
(551,115,o),
(512,115,cs),
(465,115,o),
(434,136,o),
(434,206,cs),
(434,270,o),
(474,387,o),
(553,387,cs),
(574,387,o),
(590,372,o),
(590,353,cs),
(590,294,o),
(526,278,o),
(404,281,c),
(387,182,l),
(564,177,o),
(739,206,o),
(739,378,cs),
(739,453,o),
(678,503,o),
(586,503,cs),
(501,503,o),
(432,465,o),
(377,411,c),
(431,411,l),
(406,475,o),
(350,503,o),
(269,503,cs),
(194,503,o),
(118,478,o),
(64,440,c),
(108,334,l),
(149,359,o),
(199,374,o),
(238,374,cs),
(275,374,o),
(320,357,o),
(303,295,cs),
(295,265,ls),
(275,193,o),
(293,-10,o),
(483,-10,cs)
);
},
{
closed = 1;
nodes = (
(296,-10,o),
(364,46,o),
(379,145,c),
(354,145,l),
(355,239,o),
(310,288,o),
(200,288,cs),
(102,288,o),
(16,235,o),
(16,130,cs),
(16,52,o),
(76,-10,o),
(168,-10,cs)
);
},
{
closed = 1;
nodes = (
(189,98,o),
(166,118,o),
(166,144,cs),
(166,171,o),
(191,191,o),
(225,191,cs),
(257,191,o),
(282,171,o),
(282,144,cs),
(282,118,o),
(255,98,o),
(220,98,cs)
);
}
);
width = 751;
},
{
anchors = (
{
name = bottom;
pos = (305,0);
},
{
name = top;
pos = (423,481);
}
);
associatedMasterId = "590A0C71-EA88-4A1F-B6FA-52B0DDF92252";
attr = {
coordinates = (
400
);
};
layerId = "04C78E67-E6CD-4151-8E57-893C6E03C4BD";
name = "4. Aug. 25, 16:47";
shapes = (
{
closed = 1;
nodes = (
(564,-10,o),
(622,10,o),
(666,45,c),
(627,103,l),
(593,78,o),
(557,60,o),
(507,60,cs),
(444,60,o),
(393,92,o),
(393,193,cs),
(393,308,o),
(478,425,o),
(582,425,cs),
(624,425,o),
(652,403,o),
(652,368,cs),
(652,293,o),
(547,246,o),
(377,245,c),
(366,189,l),
(580,188,o),
(733,252,o),
(733,379,cs),
(733,448,o),
(680,491,o),
(597,491,cs),
(509,491,o),
(430,444,o),
(378,374,c),
(403,374,l),
(389,451,o),
(335,491,o),
(251,491,cs),
(182,491,o),
(119,466,o),
(74,424,c),
(102,366,l),
(138,400,o),
(187,420,o),
(236,420,cs),
(303,420,o),
(347,378,o),
(328,286,cs),
(322,262,ls),
(297,164,o),
(322,-10,o),
(494,-10,cs)
);
},
{
closed = 1;
nodes = (
(294,-10,o),
(360,51,o),
(369,135,c),
(358,135,l),
(360,222,o),
(301,282,o),
(201,282,cs),
(92,282,o),
(20,218,o),
(20,122,cs),
(20,45,o),
(88,-10,o),
(183,-10,cs)
);
},
{
closed = 1;
nodes = (
(139,51,o),
(101,84,o),
(101,130,cs),
(101,182,o),
(145,216,o),
(211,216,cs),
(269,216,o),
(310,186,o),
(310,140,cs),
(310,87,o),
(261,51,o),
(198,51,cs)
);
}
);
width = 747;
}
);
unicode = 230;
},
{
glyphname = b;
kernLeft = h;
kernRight = b;
lastChange = "2025-08-06 19:38:27 +0000";
layers = (
{
layerId = "590A0C71-EA88-4A1F-B6FA-52B0DDF92252";
shapes = (
{
closed = 1;
nodes = (
(367,-10,o),
(486,100,o),
(486,294,cs),
(486,403,o),
(418,482,o),
(323,482,cs),
(240,482,o),
(166,426,o),
(126,337,c),
(137,331,l),
(235,730,l),
(206,730,l),
(27,0,l),
(55,0,l),
(94,152,l),
(86,168,l),
(94,42,o),
(165,-10,o),
(249,-10,cs)
);
},
{
closed = 1;
nodes = (
(162,17,o),
(104,81,o),
(104,186,cs),
(104,321,o),
(197,454,o),
(315,454,cs),
(398,454,o),
(457,384,o),
(457,289,cs),
(457,110,o),
(345,17,o),
(248,17,cs)
);
}
);
width = 536;
},
{
hints = (
{
horizontal = 1;
origin = (1,5);
target = (0,5);
type = Stem;
},
{
horizontal = 1;
place = (-10,182);
target = (1,11);
type = Stem;
}
);
layerId = "E84899BD-5F2A-4806-8411-3A23E0ED2668";
shapes = (
{
closed = 1;
nodes = (
(442,-10,o),
(560,113,o),
(560,321,cs),
(560,440,o),
(493,512,o),
(388,512,cs),
(318,512,o),
(256,476,o),
(221,406,c),
(282,406,l),
(362,730,l),
(159,730,l),
(-19,0,l),
(183,0,l),
(202,77,l),
(179,77,l),
(195,22,o),
(232,-10,o),
(305,-10,cs)
);
},
{
closed = 1;
nodes = (
(251,172,o),
(227,188,o),
(227,231,cs),
(227,287,o),
(262,330,o),
(304,330,cs),
(333,330,o),
(357,310,o),
(357,275,cs),
(357,209,o),
(318,172,o),
(279,172,cs)
);
}
);
width = 577;
},
{
hints = (
{
horizontal = 1;
origin = (1,5);
target = (0,5);
type = Stem;
},
{
horizontal = 1;
place = (-10,132);
target = (1,11);
type = Stem;
}
);
layerId = "138021A6-51CA-4FC2-BD69-BE801B30E3F7";
shapes = (
{
closed = 1;
nodes = (
(405,-10,o),
(535,111,o),
(535,316,cs),
(535,438,o),
(470,503,o),
(371,503,cs),
(298,503,o),
(228,452,o),
(199,384,c),
(243,384,l),
(328,730,l),
(178,730,l),
(-2,0,l),
(134,0,l),
(164,116,l),
(141,91,l),
(162,27,o),
(209,-10,o),
(279,-10,cs)
);
},
{
closed = 1;
nodes = (
(216,122,o),
(198,159,o),
(198,212,cs),
(198,298,o),
(248,370,o),
(312,370,cs),
(357,370,o),
(386,342,o),
(386,275,cs),
(386,169,o),
(313,122,o),
(269,122,cs)
);
}
);
width = 562;
}
);
unicode = 98;
},
{
glyphname = c;
kernLeft = o;
kernRight = c;
lastChange = "2025-08-06 19:39:01 +0000";
layers = (
{
anchors = (
{
name = bottom;
pos = (189,0);
},
{
name = top;
pos = (325,472);
}
);
background = {
anchors = (
{
name = bottom;
pos = (190,0);
},
{
name = top;
pos = (326,472);
}
);
shapes = (
{
closed = 1;
nodes = (
(280,-10,o),
(334,11,o),
(384,53,c),
(369,76,l),
(325,38,o),
(277,18,o),
(227,18,cs),
(154,18,o),
(79,63,o),
(79,186,cs),
(79,338,o),
(168,454,o),
(297,454,cs),
(349,454,o),
(395,433,o),
(420,400,c),
(442,419,l),
(418,457,o),
(360,482,o),
(298,482,cs),
(153,482,o),
(50,354,o),
(50,185,cs),
(50,44,o),
(134,-10,o),
(224,-10,cs)
);
}
);
};
layerId = "590A0C71-EA88-4A1F-B6FA-52B0DDF92252";
shapes = (
{
closed = 1;
nodes = (
(279,-10,o),
(333,11,o),
(383,53,c),
(368,76,l),
(324,38,o),
(276,18,o),
(226,18,cs),
(153,18,o),
(78,63,o),
(78,186,cs),
(78,338,o),
(175,454,o),
(304,454,cs),
(356,454,o),
(394,433,o),
(419,400,c),
(441,419,l),
(417,457,o),
(367,482,o),
(305,482,cs),
(160,482,o),
(49,354,o),
(49,185,cs),
(49,44,o),
(133,-10,o),
(223,-10,cs)
);
}
);
width = 452;
},
{
anchors = (
{
name = bottom;
pos = (226,0);
},
{
name = top;
pos = (342,502);
}
);
hints = (
{
horizontal = 1;
origin = (0,6);
target = (0,25);
type = Stem;
},
{
horizontal = 1;
origin = (0,12);
target = (0,19);
type = Stem;
}
);
layerId = "E84899BD-5F2A-4806-8411-3A23E0ED2668";
shapes = (
{
closed = 1;
nodes = (
(311,-10,o),
(400,21,o),
(443,71,c),
(342,205,l),
(322,185,o),
(301,176,o),
(280,176,cs),
(249,176,o),
(220,194,o),
(220,238,cs),
(220,289,o),
(256,328,o),
(302,328,cs),
(325,328,o),
(343,319,o),
(358,297,c),
(494,403,l),
(455,474,o),
(385,509,o),
(304,509,cs),
(149,509,o),
(20,387,o),
(20,217,cs),
(20,55,o),
(133,-10,o),
(239,-10,cs)
);
}
);
width = 478;
},
{
anchors = (
{
name = bottom;
pos = (208,0);
},
{
name = top;
pos = (332,493);
}
);
hints = (
{
horizontal = 1;
origin = (0,25);
target = (0,6);
type = Stem;
},
{
horizontal = 1;
origin = (0,19);
target = (0,12);
type = Stem;
}
);
layerId = "138021A6-51CA-4FC2-BD69-BE801B30E3F7";
shapes = (
{
closed = 1;
nodes = (
(313,-10,o),
(377,19,o),
(423,61,c),
(344,165,l),
(310,137,o),
(283,127,o),
(258,127,cs),
(220,127,o),
(182,151,o),
(182,226,cs),
(182,306,o),
(231,366,o),
(296,366,cs),
(323,366,o),
(348,353,o),
(367,320,c),
(476,407,l),
(444,466,o),
(379,503,o),
(303,503,cs),
(149,503,o),
(32,368,o),
(32,203,cs),
(32,49,o),
(134,-10,o),
(238,-10,cs)
);
}
);
width = 471;
}
);
unicode = 99;
},
{
glyphname = d;
kernLeft = d;
kernRight = d;
lastChange = "2025-08-06 19:39:58 +0000";
layers = (
{
anchors = (
{
name = center;
pos = (510,600);
},
{
name = topright;
pos = (673,730);
}
);
background = {
anchors = (
{
name = center;
pos = (507,600);
},
{
name = topright;
pos = (670,730);
}
);
shapes = (
{
closed = 1;
nodes = (
(291,-10,o),
(361,35,o),
(394,102,c),
(391,105,l),
(373,42,o),
(401,0,o),
(464,0,cs),
(486,0,l),
(493,27,l),
(468,27,ls),
(427,27,o),
(407,53,o),
(417,95,cs),
(573,730,l),
(543,730,l),
(444,324,l),
(448,327,l),
(438,425,o),
(377,482,o),
(290,482,cs),
(158,482,o),
(47,357,o),
(47,183,cs),
(47,50,o),
(135,-10,o),
(219,-10,cs)
);
},
{
closed = 1;
nodes = (
(152,17,o),
(76,66,o),
(76,187,cs),
(76,341,o),
(172,454,o),
(292,454,cs),
(377,454,o),
(429,391,o),
(429,283,cs),
(429,167,o),
(357,17,o),
(222,17,cs)
);
}
);
};
layerId = "590A0C71-EA88-4A1F-B6FA-52B0DDF92252";
shapes = (
{
closed = 1;
nodes = (
(294,-10,o),
(364,35,o),
(397,102,c),
(394,105,l),
(376,42,o),
(404,0,o),
(467,0,cs),
(489,0,l),
(496,27,l),
(471,27,ls),
(430,27,o),
(410,53,o),
(420,95,cs),
(576,730,l),
(546,730,l),
(447,324,l),
(451,327,l),
(441,425,o),
(380,482,o),
(293,482,cs),
(161,482,o),
(50,357,o),
(50,183,cs),
(50,50,o),
(138,-10,o),
(222,-10,cs)
);
},
{
closed = 1;
nodes = (
(155,17,o),
(79,66,o),
(79,187,cs),
(79,341,o),
(175,454,o),
(295,454,cs),
(380,454,o),
(432,391,o),
(432,283,cs),
(432,167,o),
(360,17,o),
(225,17,cs)
);
}
);
width = 552;
},
{
anchors = (
{
name = center;
pos = (513,600);
},
{
name = topright;
pos = (699,730);
}
);
background = {
anchors = (
{
name = center;
pos = (509,600);
},
{
name = topright;
pos = (695,730);
}
);
shapes = (
{
closed = 1;
nodes = (
(247,-10,o),
(301,26,o),
(331,96,c),
(302,96,l),
(312,33,o),
(366,0,o),
(453,0,cs),
(521,0,l),
(563,168,l),
(526,168,ls),
(515,168,o),
(513,172,o),
(515,182,cs),
(649,730,l),
(447,730,l),
(372,425,l),
(395,425,l),
(379,480,o),
(342,512,o),
(269,512,cs),
(124,512,o),
(14,374,o),
(14,192,cs),
(14,40,o),
(97,-10,o),
(186,-10,cs)
);
},
{
closed = 1;
nodes = (
(242,172,o),
(217,188,o),
(217,229,cs),
(217,287,o),
(253,330,o),
(295,330,cs),
(323,330,o),
(347,314,o),
(347,271,cs),
(347,215,o),
(312,172,o),
(270,172,cs)
);
}
);
};
hints = (
{
horizontal = 1;
place = (-10,182);
target = (1,11);
type = Stem;
},
{
horizontal = 1;
origin = (1,5);
target = (0,19);
type = Stem;
}
);
layerId = "E84899BD-5F2A-4806-8411-3A23E0ED2668";
shapes = (
{
closed = 1;
nodes = (
(251,-10,o),
(315,26,o),
(345,96,c),
(306,96,l),
(316,33,o),
(370,0,o),
(457,0,cs),
(525,0,l),
(567,168,l),
(530,168,ls),
(519,168,o),
(517,172,o),
(519,182,cs),
(653,730,l),
(451,730,l),
(376,425,l),
(399,425,l),
(383,480,o),
(346,512,o),
(273,512,cs),
(128,512,o),
(18,374,o),
(18,192,cs),
(18,40,o),
(101,-10,o),
(190,-10,cs)
);
},
{
closed = 1;
nodes = (
(246,172,o),
(221,188,o),
(221,229,cs),
(221,287,o),
(257,330,o),
(299,330,cs),
(327,330,o),
(351,314,o),
(351,271,cs),
(351,215,o),
(316,172,o),
(274,172,cs)
);
}
);
width = 606;
},
{
anchors = (
{
name = center;
pos = (502,600);
},
{
name = topright;
pos = (684,730);
}
);
hints = (
{
horizontal = 1;
origin = (0,25);
target = (1,11);
type = Stem;
},
{
horizontal = 1;
origin = (0,19);
target = (1,5);
type = Stem;
}
);
layerId = "138021A6-51CA-4FC2-BD69-BE801B30E3F7";
shapes = (
{
closed = 1;
nodes = (
(275,-10,o),
(345,41,o),
(374,109,c),
(338,109,l),
(338,34,o),
(374,0,o),
(455,0,cs),
(511,0,l),
(542,124,l),
(493,124,ls),
(478,124,o),
(474,129,o),
(478,144,cs),
(623,730,l),
(473,730,l),
(385,377,l),
(422,402,l),
(401,466,o),
(354,503,o),
(284,503,cs),
(142,503,o),
(28,358,o),
(28,187,cs),
(28,35,o),
(117,-10,o),
(202,-10,cs)
);
},
{
closed = 1;
nodes = (
(212,123,o),
(177,141,o),
(177,221,cs),
(177,291,o),
(224,371,o),
(294,371,cs),
(347,371,o),
(365,334,o),
(365,281,cs),
(365,195,o),
(315,123,o),
(255,123,cs)
);
}
);
width = 594;
}
);
unicode = 100;
},
{
glyphname = eth;
lastChange = "2025-08-06 19:40:09 +0000";
layers = (
{
background = {
shapes = (
{
closed = 1;
nodes = (
(336,-10,o),
(464,90,o),
(464,302,cs),
(464,411,o),
(396,482,o),
(299,482,cs),
(158,482,o),
(52,353,o),
(52,182,cs),
(52,49,o),
(134,-10,o),
(221,-10,cs)
);
},
{
closed = 1;
nodes = (
(152,18,o),
(81,65,o),
(81,183,cs),
(81,337,o),
(175,454,o),
(300,454,cs),
(379,454,o),
(435,394,o),
(435,302,cs),
(435,121,o),
(334,18,o),
(222,18,cs)
);
}
);
};
layerId = "590A0C71-EA88-4A1F-B6FA-52B0DDF92252";
shapes = (
{
closed = 1;
nodes = (
(354,-10,o),
(465,120,o),
(465,312,cs),
(465,428,o),
(431,507,o),
(349,610,cs),
(243,743,l),
(219,724,l),
(324,594,ls),
(409,489,o),
(426,427,o),
(436,351,c),
(440,354,l),
(428,429,o),
(365,480,o),
(285,480,cs),
(158,480,o),
(49,355,o),
(49,185,cs),
(49,66,o),
(116,-10,o),
(223,-10,cs)
);
},
{
closed = 1;
nodes = (
(135,17,o),
(78,84,o),
(78,188,cs),
(78,341,o),
(172,453,o),
(284,453,cs),
(367,453,o),
(432,391,o),
(432,283,cs),
(432,130,o),
(335,17,o),
(226,17,cs)
);
},
{
closed = 1;
nodes = (
(466,685,l),
(454,710,l),
(148,542,l),
(159,517,l)
);
}
);
width = 517;
},
{
hints = (
{
horizontal = 1;
origin = (0,21);
target = (1,11);
type = Stem;
},
{
horizontal = 1;
origin = (0,11);
target = (0,15);
type = Stem;
},
{
horizontal = 1;
origin = (2,1);
target = down;
type = TopGhost;
},
{
horizontal = 1;
origin = (0,6);
target = down;
type = TopGhost;
}
);
layerId = "E84899BD-5F2A-4806-8411-3A23E0ED2668";
shapes = (
{
closed = 1;
nodes = (
(460,-10,o),
(546,167,o),
(546,334,cs),
(546,449,o),
(506,551,o),
(428,641,cs),
(338,745,l),
(154,637,l),
(258,525,ls),
(335,442,o),
(377,376,o),
(365,304,c),
(413,341,l),
(388,433,o),
(342,467,o),
(265,467,cs),
(118,467,o),
(16,351,o),
(16,206,cs),
(16,63,o),
(112,-10,o),
(249,-10,cs)
);
},
{
closed = 1;
nodes = (
(237,166,o),
(219,188,o),
(219,220,cs),
(219,272,o),
(251,308,o),
(289,308,cs),
(320,308,o),
(340,286,o),
(340,251,cs),
(340,204,o),
(311,166,o),
(268,166,cs)
);
},
{
closed = 1;
nodes = (
(555,589,l),
(548,715,l),
(119,594,l),
(127,466,l)
);
}
);
width = 559;
},
{
hints = (
{
horizontal = 1;
origin = (1,5);
target = (0,15);
type = Stem;
},
{
horizontal = 1;
origin = (0,21);
target = (1,11);
type = Stem;
}
);
layerId = "138021A6-51CA-4FC2-BD69-BE801B30E3F7";
shapes = (
{
closed = 1;
nodes = (
(431,-9,o),
(518,155,o),
(518,309,cs),
(518,411,o),
(478,508,o),
(405,621,cs),
(325,744,l),
(191,657,l),
(278,545,ls),
(349,452,o),
(389,378,o),
(383,305,c),
(423,322,l),
(408,425,o),
(363,480,o),
(287,480,cs),
(136,480,o),
(29,358,o),
(29,201,cs),
(29,64,o),
(121,-9,o),
(243,-9,cs)
);
},
{
closed = 1;
nodes = (
(208,122,o),
(181,156,o),
(181,213,cs),
(181,292,o),
(227,352,o),
(289,352,cs),
(336,352,o),
(364,319,o),
(364,262,cs),
(364,182,o),
(317,122,o),
(255,122,cs)
);
},
{
closed = 1;
nodes = (
(519,589,l),
(515,694,l),
(136,604,l),
(139,496,l)
);
}
);
width = 546;
}
);
unicode = 240;
},
{
glyphname = e;
kernLeft = e;
kernRight = e;
lastChange = "2025-08-06 19:40:40 +0000";
layers = (
{
anchors = (
{
name = bottom;
pos = (172,0);
},
{
name = top;
pos = (289,472);
}
);
layerId = "590A0C71-EA88-4A1F-B6FA-52B0DDF92252";
shapes = (
{
closed = 1;
nodes = (
(276,-10,o),
(325,10,o),
(363,38,c),
(350,64,l),
(315,39,o),
(274,18,o),
(217,18,cs),
(149,18,o),
(76,62,o),
(76,183,cs),
(76,336,o),
(195,454,o),
(307,454,cs),
(365,454,o),
(402,427,o),
(402,379,cs),
(402,293,o),
(288,227,o),
(70,231,c),
(64,205,l),
(304,200,o),
(431,274,o),
(431,380,cs),
(431,444,o),
(385,482,o),
(308,482,cs),
(177,482,o),
(47,351,o),
(47,183,cs),
(47,43,o),
(130,-10,o),
(215,-10,cs)
);
}
);
width = 451;
},
{
anchors = (
{
name = bottom;
pos = (184,0);
},
{
name = top;
pos = (321,502);
}
);
hints = (
{
horizontal = 1;
origin = (0,6);
target = (0,31);
type = Stem;
},
{
horizontal = 1;
origin = (0,19);
target = (0,18);
type = Stem;
},
{
horizontal = 1;
origin = (0,12);
target = (0,25);
type = Stem;
}
);
layerId = "E84899BD-5F2A-4806-8411-3A23E0ED2668";
shapes = (
{
closed = 1;
nodes = (
(311,-10,o),
(390,14,o),
(457,52,c),
(402,197,l),
(349,171,o),
(306,158,o),
(274,158,cs),
(238,158,o),
(212,171,o),
(212,223,cs),
(212,303,o),
(245,366,o),
(288,366,cs),
(304,366,o),
(311,357,o),
(311,344,cs),
(311,296,o),
(230,274,o),
(142,272,c),
(142,176,l),
(387,183,o),
(505,252,o),
(505,372,cs),
(505,461,o),
(436,512,o),
(329,512,cs),
(151,512,o),
(16,377,o),
(16,206,cs),
(16,44,o),
(141,-10,o),
(243,-10,cs)
);
}
);
width = 505;
},
{
anchors = (
{
name = bottom;
pos = (185,0);
},
{
name = top;
pos = (316,493);
}
);
hints = (
{
horizontal = 1;
origin = (0,31);
target = (0,6);
type = Stem;
},
{
horizontal = 1;
origin = (0,19);
target = (0,18);
type = Stem;
},
{
horizontal = 1;
origin = (0,25);
target = (0,12);
type = Stem;
}
);
layerId = "138021A6-51CA-4FC2-BD69-BE801B30E3F7";
shapes = (
{
closed = 1;
nodes = (
(303,-10,o),
(376,11,o),
(426,54,c),
(352,154,l),
(319,129,o),
(289,115,o),
(250,115,cs),
(207,115,o),
(177,133,o),
(177,206,cs),
(177,270,o),
(212,387,o),
(291,387,cs),
(312,387,o),
(328,372,o),
(328,353,cs),
(328,304,o),
(270,282,o),
(142,282,c),
(125,178,l),
(332,178,o),
(477,215,o),
(477,378,cs),
(477,453,o),
(416,503,o),
(324,503,cs),
(145,503,o),
(27,348,o),
(27,206,cs),
(27,56,o),
(123,-10,o),
(221,-10,cs)
);
}
);
width = 490;
}
);
unicode = 101;
},
{
glyphname = eogonek;
kernLeft = e;
kernRight = e;
lastChange = "2025-08-06 19:44:56 +0000";
layers = (
{
layerId = "590A0C71-EA88-4A1F-B6FA-52B0DDF92252";
shapes = (
{
closed = 1;
nodes = (
(271,-200,l),
(277,-175,l),
(239,-175,ls),
(220,-175,o),
(208,-164,o),
(208,-146,cs),
(208,-127,o),
(224,-107,o),
(242,-87,cs),
(363,38,l),
(350,64,l),
(315,39,o),
(274,18,o),
(217,18,cs),
(149,18,o),
(76,62,o),
(76,183,cs),
(76,336,o),
(195,454,o),
(307,454,cs),
(365,454,o),
(402,427,o),
(402,379,cs),
(402,293,o),
(288,227,o),
(70,231,c),
(64,205,l),
(304,197,o),
(431,274,o),
(431,380,cs),
(431,444,o),
(385,482,o),
(308,482,cs),
(177,482,o),
(47,351,o),
(47,183,cs),
(47,43,o),
(130,-10,o),
(215,-10,cs),
(247,-10,o),
(277,-4,o),
(303,6,c),
(304,12,l),
(224,-70,ls),
(192,-104,o),
(180,-126,o),
(180,-150,cs),
(180,-182,o),
(202,-200,o),
(237,-200,cs)
);
}
);
width = 451;
},
{
background = {
shapes = (
{
closed = 1;
nodes = (
(361,-215,l),
(394,-81,l),
(377,-81,ls),
(366,-81,o),
(362,-76,o),
(362,-70,cs),
(362,-65,o),
(364,-60,o),
(374,-48,cs),
(455,52,l),
(400,197,l),
(332,164,o),
(301,159,o),
(275,159,cs),
(238,159,o),
(210,168,o),
(210,223,cs),
(210,303,o),
(243,366,o),
(287,366,cs),
(302,366,o),
(309,357,o),
(309,345,cs),
(309,295,o),
(228,274,o),
(140,272,c),
(140,176,l),
(383,181,o),
(503,252,o),
(503,375,cs),
(503,457,o),
(435,512,o),
(333,512,cs),
(150,512,o),
(14,380,o),
(14,206,cs),
(14,42,o),
(140,-10,o),
(244,-10,cs),
(268,-10,o),
(287,-8,o),
(316,-4,c),
(276,26,l),
(246,3,ls),
(206,-27,o),
(172,-74,o),
(172,-126,cs),
(172,-183,o),
(214,-215,o),
(280,-215,cs)
);
}
);
};
hints = (
{
horizontal = 1;
place = (-10,169);
target = (0,13);
type = Stem;
},
{
horizontal = 1;
place = (-215,134);
target = (0,2);
type = Stem;
},
{
horizontal = 1;
origin = (0,26);
target = (0,25);
type = Stem;
},
{
horizontal = 1;
origin = (0,32);
target = (0,19);
type = Stem;
}
);
layerId = "E84899BD-5F2A-4806-8411-3A23E0ED2668";
shapes = (
{
closed = 1;
nodes = (
(363,-215,l),
(396,-81,l),
(379,-81,ls),
(368,-81,o),
(364,-76,o),
(364,-70,cs),
(364,-65,o),
(366,-60,o),
(376,-48,cs),
(457,52,l),
(402,197,l),
(334,164,o),
(303,159,o),
(277,159,cs),
(240,159,o),
(212,168,o),
(212,223,cs),
(212,303,o),
(245,366,o),
(289,366,cs),
(304,366,o),
(311,357,o),
(311,345,cs),
(311,295,o),
(230,274,o),
(142,272,c),
(142,176,l),
(385,181,o),
(505,252,o),
(505,375,cs),
(505,457,o),
(437,512,o),
(335,512,cs),
(152,512,o),
(16,380,o),
(16,206,cs),
(16,42,o),
(142,-10,o),
(246,-10,cs),
(270,-10,o),
(289,-8,o),
(318,-4,c),
(278,26,l),
(248,3,ls),
(208,-27,o),
(174,-74,o),
(174,-126,cs),
(174,-183,o),
(216,-215,o),
(282,-215,cs)
);
}
);
width = 508;
},
{
background = {
shapes = (
{
closed = 1;
nodes = (
(328,-200,l),
(352,-99,l),
(334,-99,ls),
(319,-99,o),
(314,-92,o),
(314,-84,cs),
(314,-73,o),
(321,-61,o),
(333,-49,cs),
(425,54,l),
(351,154,l),
(318,129,o),
(288,115,o),
(249,115,cs),
(206,115,o),
(176,133,o),
(176,206,cs),
(176,270,o),
(211,387,o),
(290,387,cs),
(315,387,o),
(327,372,o),
(327,353,cs),
(327,301,o),
(288,281,o),
(141,282,c),
(124,181,l),
(324,178,o),
(476,210,o),
(476,378,cs),
(476,457,o),
(419,503,o),
(323,503,cs),
(144,503,o),
(26,348,o),
(26,206,cs),
(26,56,o),
(122,-10,o),
(220,-10,cs),
(249,-10,o),
(289,-3,o),
(314,6,c),
(266,26,l),
(239,1,ls),
(201,-34,o),
(176,-69,o),
(176,-116,cs),
(176,-169,o),
(214,-200,o),
(264,-200,cs)
);
}
);
};
hints = (
{
horizontal = 1;
origin = (0,26);
target = (0,25);
type = Stem;
},
{
horizontal = 1;
origin = (0,49);
target = (0,2);
type = Stem;
},
{
horizontal = 1;
origin = (0,38);
target = (0,13);
type = Stem;
},
{
horizontal = 1;
origin = (0,32);
target = (0,19);
type = Stem;
}
);
layerId = "138021A6-51CA-4FC2-BD69-BE801B30E3F7";
shapes = (
{
closed = 1;
nodes = (
(329,-200,l),
(353,-99,l),
(335,-99,ls),
(320,-99,o),
(315,-92,o),
(315,-84,cs),
(315,-73,o),
(322,-61,o),
(334,-49,cs),
(426,54,l),
(352,154,l),
(319,129,o),
(289,115,o),
(250,115,cs),
(207,115,o),
(177,133,o),
(177,206,cs),
(177,270,o),
(212,387,o),
(291,387,cs),
(316,387,o),
(328,372,o),
(328,353,cs),
(328,303,o),
(270,281,o),
(142,282,c),
(125,181,l),
(325,178,o),
(477,210,o),
(477,378,cs),
(477,457,o),
(420,503,o),
(324,503,cs),
(145,503,o),
(27,348,o),
(27,206,cs),
(27,56,o),
(123,-10,o),
(221,-10,cs),
(250,-10,o),
(290,-3,o),
(315,6,c),
(267,26,l),
(240,1,ls),
(202,-34,o),
(177,-69,o),
(177,-116,cs),
(177,-169,o),
(215,-200,o),
(265,-200,cs)
);
}
);
width = 492;
}
);
unicode = 281;
},
{
glyphname = f;
kernLeft = f;
lastChange = "2025-08-06 19:45:17 +0000";
layers = (
{
background = {
shapes = (
{
closed = 1;
nodes = (
(-79,-200,ls),
(-15,-200,o),
(39,-158,o),
(54,-94,cs),
(230,620,ls),
(242,670,o),
(283,703,o),
(333,703,cs),
(394,703,l),
(401,730,l),
(335,730,ls),
(271,730,o),
(217,688,o),
(202,624,cs),
(26,-90,ls),
(14,-140,o),
(-27,-173,o),
(-77,-173,cs),
(-138,-173,l),
(-145,-200,l)
);
},
{
closed = 1;
nodes = (
(330,444,l),
(337,472,l),
(78,472,l),
(71,444,l)
);
}
);
};
layerId = "590A0C71-EA88-4A1F-B6FA-52B0DDF92252";
shapes = (
{
closed = 1;
nodes = (
(-81,-200,ls),
(-17,-200,o),
(38,-158,o),
(53,-94,cs),
(229,620,ls),
(241,670,o),
(281,703,o),
(331,703,cs),
(392,703,l),
(399,730,l),
(333,730,ls),
(269,730,o),
(215,688,o),
(200,624,cs),
(24,-90,ls),
(12,-140,o),
(-29,-173,o),
(-79,-173,cs),
(-140,-173,l),
(-147,-200,l)
);
},
{
closed = 1;
nodes = (
(328,444,l),
(335,472,l),
(76,472,l),
(69,444,l)
);
}
);
width = 294;
},
{
hints = (
{
horizontal = 1;
origin = (1,2);
target = (1,3);
type = Stem;
},
{
horizontal = 1;
origin = (0,10);
target = (0,8);
type = Stem;
},
{
horizontal = 1;
origin = (0,19);
target = (0,18);
type = Stem;
}
);
layerId = "E84899BD-5F2A-4806-8411-3A23E0ED2668";
shapes = (
{
closed = 1;
nodes = (
(-4,-200,ls),
(115,-200,o),
(190,-146,o),
(216,-40,cs),
(361,548,ls),
(364,559,o),
(368,562,o),
(379,562,cs),
(442,562,l),
(483,730,l),
(384,730,ls),
(265,730,o),
(190,676,o),
(164,570,cs),
(19,-20,ls),
(16,-30,o),
(11,-34,o),
(1,-34,cs),
(-62,-34,l),
(-103,-200,l)
);
},
{
closed = 1;
nodes = (
(385,334,l),
(427,502,l),
(87,502,l),
(45,334,l)
);
}
);
width = 377;
},
{
hints = (
{
horizontal = 1;
origin = (0,9);
target = (0,8);
type = Stem;
},
{
horizontal = 1;
origin = (1,1);
target = (1,0);
type = Stem;
},
{
horizontal = 1;
origin = (0,19);
target = (0,18);
type = Stem;
}
);
layerId = "138021A6-51CA-4FC2-BD69-BE801B30E3F7";
shapes = (
{
closed = 1;
nodes = (
(-25,-200,ls),
(83,-200,o),
(150,-150,o),
(174,-53,cs),
(332,584,ls),
(336,599,o),
(342,604,o),
(357,604,cs),
(434,604,l),
(465,730,l),
(380,730,ls),
(272,730,o),
(205,680,o),
(181,583,cs),
(23,-56,ls),
(19,-71,o),
(13,-76,o),
(-2,-76,cs),
(-79,-76,l),
(-110,-200,l)
);
},
{
closed = 1;
nodes = (
(375,367,l),
(406,493,l),
(90,493,l),
(59,367,l)
);
}
);
width = 361;
}
);
unicode = 102;
},
{
glyphname = g;
kernLeft = g;
kernRight = g;
lastChange = "2025-08-06 19:46:16 +0000";
layers = (
{
anchors = (
{
name = bottom;
pos = (141,-200);
},
{
name = top;
pos = (309,472);
}
);
background = {
anchors = (
{
name = bottom;
pos = (138,-200);
},
{
name = top;
pos = (306,472);
}
);
shapes = (
{
closed = 1;
nodes = (
(236,-200,ls),
(300,-200,o),
(353,-158,o),
(369,-94,cs),
(508,472,l),
(478,472,l),
(439,314,l),
(447,316,l),
(440,421,o),
(382,482,o),
(286,482,cs),
(158,482,o),
(46,349,o),
(46,183,cs),
(46,36,o),
(128,-10,o),
(209,-10,cs),
(308,-10,o),
(367,47,o),
(414,136,c),
(398,141,l),
(341,-90,ls),
(329,-137,o),
(285,-173,o),
(238,-173,cs),
(17,-173,l),
(10,-200,l)
);
},
{
closed = 1;
nodes = (
(148,17,o),
(75,57,o),
(75,187,cs),
(75,336,o),
(174,454,o),
(287,454,cs),
(377,454,o),
(427,391,o),
(427,283,cs),
(427,167,o),
(355,17,o),
(215,17,cs)
);
}
);
};
layerId = "590A0C71-EA88-4A1F-B6FA-52B0DDF92252";
shapes = (
{
closed = 1;
nodes = (
(239,-200,ls),
(303,-200,o),
(356,-158,o),
(372,-94,cs),
(511,472,l),
(481,472,l),
(442,314,l),
(450,316,l),
(443,421,o),
(385,482,o),
(289,482,cs),
(161,482,o),
(49,349,o),
(49,183,cs),
(49,36,o),
(131,-10,o),
(212,-10,cs),
(311,-10,o),
(370,47,o),
(417,136,c),
(401,141,l),
(344,-90,ls),
(332,-137,o),
(288,-173,o),
(241,-173,cs),
(20,-173,l),
(13,-200,l)
);
},
{
closed = 1;
nodes = (
(151,17,o),
(78,57,o),
(78,187,cs),
(78,336,o),
(177,454,o),
(290,454,cs),
(380,454,o),
(430,391,o),
(430,283,cs),
(430,167,o),
(358,17,o),
(218,17,cs)
);
}
);
width = 538;
},
{
anchors = (
{
name = bottom;
pos = (162,-200);
},
{
name = top;
pos = (337,502);
}
);
hints = (
{
horizontal = 1;
origin = (0,26);
target = (0,25);
type = Stem;
},
{
horizontal = 1;
origin = (0,16);
target = (1,11);
type = Stem;
},
{
horizontal = 1;
origin = (0,5);
target = (1,5);
type = Stem;
}
);
layerId = "E84899BD-5F2A-4806-8411-3A23E0ED2668";
shapes = (
{
closed = 1;
nodes = (
(245,-200,ls),
(364,-200,o),
(439,-145,o),
(465,-40,cs),
(598,502,l),
(396,502,l),
(364,374,l),
(402,414,l),
(396,476,o),
(341,512,o),
(273,512,cs),
(141,512,o),
(20,383,o),
(20,204,cs),
(20,52,o),
(93,7,o),
(188,7,cs),
(233,7,o),
(285,18,o),
(329,86,c),
(309,116,l),
(275,-20,ls),
(273,-28,o),
(265,-34,o),
(257,-34,cs),
(16,-34,l),
(-25,-200,l)
);
},
{
closed = 1;
nodes = (
(246,172,o),
(221,188,o),
(221,229,cs),
(221,287,o),
(257,330,o),
(300,330,cs),
(327,330,o),
(351,314,o),
(351,270,cs),
(351,215,o),
(316,172,o),
(274,172,cs)
);
}
);
width = 578;
},
{
anchors = (
{
name = bottom;
pos = (149,-200);
},
{
name = top;
pos = (321,493);
}
);
background = {
anchors = (
{
name = bottom;
pos = (148,-200);
},
{
name = top;
pos = (320,493);
}
);
shapes = (
{
closed = 1;
nodes = (
(230,-200,ls),
(337,-200,o),
(405,-150,o),
(429,-53,cs),
(563,493,l),
(413,493,l),
(388,392,l),
(414,418,l),
(389,472,o),
(346,503,o),
(272,503,cs),
(140,503,o),
(27,358,o),
(27,187,cs),
(27,55,o),
(99,-10,o),
(183,-10,cs),
(247,-10,o),
(306,24,o),
(361,85,c),
(336,116,l),
(294,-56,ls),
(290,-71,o),
(284,-76,o),
(269,-76,cs),
(26,-76,l),
(-5,-200,l)
);
},
{
closed = 1;
nodes = (
(210,123,o),
(175,141,o),
(175,221,cs),
(175,291,o),
(222,371,o),
(292,371,cs),
(345,371,o),
(363,334,o),
(363,281,cs),
(363,195,o),
(313,123,o),
(253,123,cs)
);
}
);
};
hints = (
{
horizontal = 1;
origin = (0,16);
target = (1,11);
type = Stem;
},
{
horizontal = 1;
origin = (0,5);
target = (1,5);
type = Stem;
},
{
horizontal = 1;
place = (-200,124);
target = (0,25);
type = Stem;
}
);
layerId = "138021A6-51CA-4FC2-BD69-BE801B30E3F7";
shapes = (
{
closed = 1;
nodes = (
(231,-200,ls),
(338,-200,o),
(406,-150,o),
(430,-53,cs),
(564,493,l),
(414,493,l),
(389,392,l),
(415,418,l),
(390,472,o),
(347,503,o),
(273,503,cs),
(141,503,o),
(28,358,o),
(28,187,cs),
(28,55,o),
(110,-10,o),
(194,-10,cs),
(258,-10,o),
(317,24,o),
(372,85,c),
(337,116,l),
(295,-56,ls),
(291,-71,o),
(285,-76,o),
(270,-76,cs),
(27,-76,l),
(-4,-200,l)
);
},
{
closed = 1;
nodes = (
(211,123,o),
(176,141,o),
(176,221,cs),
(176,291,o),
(223,371,o),
(293,371,cs),
(346,371,o),
(364,334,o),
(364,281,cs),
(364,195,o),
(314,123,o),
(254,123,cs)
);
}
);
width = 561;
}
);
unicode = 103;
},
{
glyphname = h;
kernLeft = h;
kernRight = n;
lastChange = "2025-08-06 22:11:35 +0000";
layers = (
{
anchors = (
{
name = center;
pos = (207,600);
},
{
name = top;
pos = (211,700);
}
);
layerId = "590A0C71-EA88-4A1F-B6FA-52B0DDF92252";
shapes = (
{
closed = 1;
nodes = (
(56,0,l),
(122,271,ls),
(150,386,o),
(202,454,o),
(300,454,cs),
(396,454,o),
(436,381,o),
(409,271,cs),
(367,100,ls),
(352,40,o),
(382,0,o),
(443,0,cs),
(465,0,l),
(472,27,l),
(447,27,ls),
(406,27,o),
(386,54,o),
(396,95,cs),
(438,269,ls),
(469,395,o),
(417,482,o),
(306,482,cs),
(228,482,o),
(174,444,o),
(130,348,c),
(139,348,l),
(234,730,l),
(207,730,l),
(27,0,l)
);
}
);
width = 517;
},
{
anchors = (
{
name = center;
pos = (241,600);
},
{
name = top;
pos = (238,700);
}
);
hints = (
{
horizontal = 1;
origin = (0,21);
target = (0,4);
type = Stem;
},
{
horizontal = 1;
origin = (0,12);
target = (0,13);
type = Stem;
},
{
horizontal = 1;
origin = (0,27);
target = down;
type = TopGhost;
}
);
layerId = "E84899BD-5F2A-4806-8411-3A23E0ED2668";
shapes = (
{
closed = 1;
nodes = (
(181,0,l),
(247,272,ls),
(257,313,o),
(272,330,o),
(300,330,cs),
(332,330,o),
(341,312,o),
(332,275,cs),
(305,165,ls),
(279,59,o),
(334,0,o),
(449,0,cs),
(522,0,l),
(564,168,l),
(523,168,ls),
(508,168,o),
(507,174,o),
(509,182,cs),
(538,299,ls),
(573,440,o),
(508,512,o),
(415,512,cs),
(322,512,o),
(262,456,o),
(234,358,c),
(262,358,l),
(353,730,l),
(160,730,l),
(-19,0,l)
);
}
);
width = 582;
},
{
anchors = (
{
name = center;
pos = (238,600);
},
{
name = top;
pos = (236,700);
}
);
hints = (
{
horizontal = 1;
origin = (0,21);
target = (0,4);
type = Stem;
},
{
horizontal = 1;
origin = (0,12);
target = (0,13);
type = Stem;
},
{
horizontal = 1;
origin = (0,27);
target = down;
type = TopGhost;
}
);
layerId = "138021A6-51CA-4FC2-BD69-BE801B30E3F7";
shapes = (
{
closed = 1;
nodes = (
(149,0,l),
(218,283,ls),
(231,336,o),
(262,367,o),
(306,367,cs),
(352,367,o),
(373,336,o),
(360,283,cs),
(324,135,ls),
(304,53,o),
(345,0,o),
(438,0,cs),
(515,0,l),
(546,124,l),
(497,124,ls),
(477,124,o),
(474,131,o),
(477,143,cs),
(511,280,ls),
(547,425,o),
(490,503,o),
(381,503,cs),
(319,503,o),
(238,479,o),
(190,355,c),
(230,355,l),
(322,730,l),
(177,730,l),
(-2,0,l)
);
}
);
width = 576;
}
);
unicode = 104;
},
{
glyphname = idotless;
kernLeft = i;
kernRight = i;
lastChange = "2025-08-06 22:11:19 +0000";
layers = (
{
anchors = (
{
name = bottom;
pos = (73,0);
},
{
name = ogonek;
pos = (176,0);
},
{
name = top;
pos = (184,472);
}
);
layerId = "590A0C71-EA88-4A1F-B6FA-52B0DDF92252";
shapes = (
{
closed = 1;
nodes = (
(176,0,l),
(183,27,l),
(158,27,ls),
(117,27,o),
(97,54,o),
(107,95,cs),
(199,472,l),
(71,472,l),
(64,444,l),
(176,444,l),
(166,457,l),
(78,100,ls),
(63,40,o),
(93,0,o),
(154,0,cs)
);
}
);
width = 242;
},
{
anchors = (
{
name = bottom;
pos = (134,0);
},
{
name = ogonek;
pos = (267,0);
},
{
name = top;
pos = (242,502);
}
);
hints = (
{
horizontal = 1;
origin = (0,7);
target = (0,9);
type = Stem;
},
{
horizontal = 1;
origin = (0,0);
target = (0,1);
type = Stem;
}
);
layerId = "E84899BD-5F2A-4806-8411-3A23E0ED2668";
shapes = (
{
closed = 1;
nodes = (
(267,0,l),
(309,168,l),
(272,168,ls),
(261,168,o),
(258,172,o),
(261,182,cs),
(341,502,l),
(64,502,l),
(22,334,l),
(187,334,l),
(119,424,l),
(55,165,ls),
(29,58,o),
(84,0,o),
(199,0,cs)
);
}
);
width = 350;
},
{
anchors = (
{
name = bottom;
pos = (132,0);
},
{
name = ogonek;
pos = (252,0);
},
{
name = top;
pos = (232,493);
}
);
hints = (
{
horizontal = 1;
origin = (0,7);
target = (0,9);
type = Stem;
},
{
horizontal = 1;
origin = (0,0);
target = (0,1);
type = Stem;
}
);
layerId = "138021A6-51CA-4FC2-BD69-BE801B30E3F7";
shapes = (
{
closed = 1;
nodes = (
(252,0,l),
(283,124,l),
(236,124,ls),
(221,124,o),
(217,129,o),
(221,144,cs),
(307,493,l),
(74,493,l),
(43,367,l),
(194,367,l),
(142,433,l),
(69,137,ls),
(48,51,o),
(89,0,o),
(176,0,cs)
);
}
);
width = 338;
}
);
unicode = 305;
},
{
glyphname = jdotless;
kernLeft = j;
kernRight = j;
lastChange = "2025-08-06 22:11:26 +0000";
layers = (
{
anchors = (
{
name = top;
pos = (183,472);
}
);
layerId = "590A0C71-EA88-4A1F-B6FA-52B0DDF92252";
shapes = (
{
closed = 1;
nodes = (
(-76,-200,ls),
(-8,-200,o),
(42,-160,o),
(59,-93,cs),
(198,472,l),
(68,472,l),
(61,444,l),
(175,444,l),
(165,457,l),
(31,-89,ls),
(18,-139,o),
(-23,-173,o),
(-73,-173,cs),
(-115,-173,l),
(-122,-200,l)
);
}
);
width = 225;
},
{
anchors = (
{
name = top;
pos = (263,502);
}
);
hints = (
{
horizontal = 1;
origin = (0,14);
target = (0,13);
type = Stem;
},
{
horizontal = 1;
origin = (0,5);
target = (0,7);
type = Stem;
}
);
layerId = "E84899BD-5F2A-4806-8411-3A23E0ED2668";
shapes = (
{
closed = 1;
nodes = (
(-39,-200,ls),
(123,-200,o),
(200,-143,o),
(236,3,cs),
(358,502,l),
(81,502,l),
(40,334,l),
(205,334,l),
(137,424,l),
(28,-20,ls),
(26,-28,o),
(19,-34,o),
(11,-34,cs),
(-40,-34,l),
(-81,-200,l)
);
}
);
width = 338;
},
{
anchors = (
{
name = top;
pos = (242,493);
}
);
hints = (
{
horizontal = 1;
origin = (0,14);
target = (0,13);
type = Stem;
},
{
horizontal = 1;
origin = (0,5);
target = (0,7);
type = Stem;
}
);
layerId = "138021A6-51CA-4FC2-BD69-BE801B30E3F7";
shapes = (
{
closed = 1;
nodes = (
(-37,-200,ls),
(106,-200,o),
(154,-156,o),
(184,-35,cs),
(313,493,l),
(80,493,l),
(49,367,l),
(200,367,l),
(148,433,l),
(28,-56,ls),
(24,-71,o),
(18,-76,o),
(3,-76,cs),
(-60,-76,l),
(-90,-200,l)
);
}
);
width = 310;
}
);
unicode = 567;
},
{
glyphname = k;
kernLeft = h;
kernRight = k;
lastChange = "2025-08-04 20:57:04 +0000";
layers = (
{
anchors = (
{
name = bottom;
pos = (166,0);
}
);
layerId = "590A0C71-EA88-4A1F-B6FA-52B0DDF92252";
shapes = (
{
closed = 1;
nodes = (
(467,472,l),
(425,472,l),
(84,188,l),
(75,148,l)
);
},
{
closed = 1;
nodes = (
(375,0,l),
(382,27,l),
(357,27,ls),
(327,27,o),
(311,41,o),
(298,77,cs),
(227,290,l),
(203,271,l),
(272,65,ls),
(287,20,o),
(311,0,o),
(353,0,cs)
);
},
{
closed = 1;
nodes = (
(56,0,l),
(236,730,l),
(207,730,l),
(27,0,l)
);
}
);
width = 440;
},
{
anchors = (
{
name = bottom;
pos = (228,0);
}
);
layerId = "E84899BD-5F2A-4806-8411-3A23E0ED2668";
shapes = (
{
closed = 1;
nodes = (
(635,502,l),
(377,502,l),
(205,309,l),
(171,54,l)
);
},
{
closed = 1;
nodes = (
(495,0,l),
(537,168,l),
(472,168,ls),
(461,168,o),
(456,172,o),
(453,182,cs),
(400,375,l),
(240,208,l),
(259,111,ls),
(274,34,o),
(316,0,o),
(407,0,cs)
);
},
{
closed = 1;
nodes = (
(183,0,l),
(363,730,l),
(161,730,l),
(-19,0,l)
);
}
);
width = 576;
},
{
anchors = (
{
name = bottom;
pos = (216,0);
}
);
layerId = "138021A6-51CA-4FC2-BD69-BE801B30E3F7";
shapes = (
{
closed = 1;
nodes = (
(578,493,l),
(376,493,l),
(133,241,l),
(114,51,l)
);
},
{
closed = 1;
nodes = (
(457,0,l),
(488,124,l),
(419,124,ls),
(413,124,o),
(410,127,o),
(408,132,cs),
(345,325,l),
(214,226,l),
(252,102,ls),
(276,24,o),
(305,0,o),
(371,0,cs)
);
},
{
closed = 1;
nodes = (
(148,0,l),
(328,730,l),
(178,730,l),
(-2,0,l)
);
}
);
width = 535;
}
);
unicode = 107;
},
{
glyphname = l;
kernLeft = l;
kernRight = l;
lastChange = "2025-08-06 22:11:46 +0000";
layers = (
{
anchors = (
{
name = bottom;
pos = (99,0);
},
{
name = center;
pos = (135,365);
},
{
name = top;
pos = (219,730);
},
{
name = topright;
pos = (340,730);
}
);
layerId = "590A0C71-EA88-4A1F-B6FA-52B0DDF92252";
shapes = (
{
closed = 1;
nodes = (
(167,0,l),
(174,27,l),
(139,27,ls),
(91,27,o),
(67,58,o),
(80,105,cs),
(234,730,l),
(105,730,l),
(98,703,l),
(211,703,l),
(201,716,l),
(52,109,ls),
(36,45,o),
(74,0,o),
(135,0,cs)
);
}
);
width = 232;
},
{
anchors = (
{
name = bottom;
pos = (128,0);
},
{
name = center;
pos = (180,365);
},
{
name = top;
pos = (263,730);
},
{
name = topright;
pos = (404,730);
}
);
hints = (
{
horizontal = 1;
origin = (0,7);
target = (0,9);
type = Stem;
},
{
horizontal = 1;
origin = (0,0);
target = (0,11);
type = Stem;
}
);
layerId = "E84899BD-5F2A-4806-8411-3A23E0ED2668";
shapes = (
{
closed = 1;
nodes = (
(253,0,l),
(295,168,l),
(238,168,ls),
(227,168,o),
(224,172,o),
(227,182,cs),
(362,730,l),
(99,730,l),
(57,562,l),
(208,562,l),
(140,652,l),
(21,165,ls),
(-5,58,o),
(50,0,o),
(165,0,cs)
);
}
);
width = 322;
},
{
anchors = (
{
name = bottom;
pos = (123,0);
},
{
name = center;
pos = (170,365);
},
{
name = top;
pos = (253,730);
},
{
name = topright;
pos = (388,730);
}
);
hints = (
{
horizontal = 1;
origin = (0,7);
target = (0,9);
type = Stem;
},
{
horizontal = 1;
origin = (0,0);
target = (0,1);
type = Stem;
}
);
layerId = "138021A6-51CA-4FC2-BD69-BE801B30E3F7";
shapes = (
{
closed = 1;
nodes = (
(224,0,l),
(255,124,l),
(198,124,ls),
(183,124,o),
(180,129,o),
(184,144,cs),
(327,730,l),
(104,730,l),
(73,604,l),
(213,604,l),
(162,671,l),
(31,137,ls),
(10,51,o),
(51,0,o),
(138,0,cs)
);
}
);
width = 308;
}
);
unicode = 108;
},
{
glyphname = m;
kernLeft = n;
kernRight = n;
lastChange = "2025-08-06 22:12:10 +0000";
layers = (
{
layerId = "590A0C71-EA88-4A1F-B6FA-52B0DDF92252";
shapes = (
{
closed = 1;
nodes = (
(55,0,l),
(122,272,ls),
(151,392,o),
(200,454,o),
(291,454,cs),
(370,454,o),
(425,401,o),
(393,271,cs),
(327,0,l),
(355,0,l),
(422,272,ls),
(451,392,o),
(496,454,o),
(590,454,cs),
(660,454,o),
(723,402,o),
(688,262,cs),
(647,100,ls),
(632,40,o),
(661,0,o),
(722,0,cs),
(744,0,l),
(751,27,l),
(726,27,ls),
(685,27,o),
(665,53,o),
(675,95,cs),
(716,263,ls),
(754,420,o),
(677,482,o),
(592,482,cs),
(519,482,o),
(462,445,o),
(421,343,c),
(430,342,l),
(429,439,o),
(368,482,o),
(295,482,cs),
(223,482,o),
(171,446,o),
(133,357,c),
(141,355,l),
(170,472,l),
(143,472,l),
(27,0,l)
);
}
);
width = 797;
},
{
hints = (
{
horizontal = 1;
origin = (0,37);
target = (0,4);
type = Stem;
},
{
horizontal = 1;
origin = (0,21);
target = (0,22);
type = Stem;
}
);
layerId = "E84899BD-5F2A-4806-8411-3A23E0ED2668";
shapes = (
{
closed = 1;
nodes = (
(180,0,l),
(252,289,ls),
(259,317,o),
(274,330,o),
(299,330,cs),
(328,330,o),
(339,314,o),
(329,273,cs),
(262,0,l),
(462,0,l),
(534,290,ls),
(541,318,o),
(557,330,o),
(580,330,cs),
(610,330,o),
(620,313,o),
(611,276,cs),
(584,166,ls),
(558,60,o),
(611,0,o),
(728,0,cs),
(800,0,l),
(842,168,l),
(801,168,ls),
(787,168,o),
(786,174,o),
(788,182,cs),
(817,298,ls),
(854,446,o),
(772,512,o),
(675,512,cs),
(586,512,o),
(519,474,o),
(480,409,c),
(543,388,l),
(534,472,o),
(477,512,o),
(406,512,cs),
(337,512,o),
(286,476,o),
(255,410,c),
(267,376,l),
(297,502,l),
(104,502,l),
(-19,0,l)
);
}
);
width = 860;
},
{
hints = (
{
horizontal = 1;
origin = (0,37);
target = (0,4);
type = Stem;
},
{
horizontal = 1;
origin = (0,21);
target = (0,22);
type = Stem;
}
);
layerId = "138021A6-51CA-4FC2-BD69-BE801B30E3F7";
shapes = (
{
closed = 1;
nodes = (
(148,0,l),
(222,299,ls),
(233,344,o),
(261,367,o),
(300,367,cs),
(347,367,o),
(368,339,o),
(356,290,cs),
(285,0,l),
(435,0,l),
(511,298,ls),
(522,341,o),
(551,367,o),
(589,367,cs),
(635,367,o),
(655,340,o),
(644,293,cs),
(605,133,ls),
(585,51,o),
(628,0,o),
(719,0,cs),
(795,0,l),
(826,124,l),
(778,124,ls),
(760,124,o),
(755,129,o),
(759,146,cs),
(792,280,ls),
(828,426,o),
(748,503,o),
(643,503,cs),
(583,503,o),
(508,483,o),
(454,395,c),
(510,395,l),
(494,465,o),
(439,503,o),
(377,503,cs),
(322,503,o),
(270,490,o),
(221,418,c),
(245,418,l),
(264,493,l),
(119,493,l),
(-2,0,l)
);
}
);
width = 855;
}
);
unicode = 109;
},
{
glyphname = n;
kernLeft = n;
kernRight = n;
lastChange = "2025-08-06 22:12:43 +0000";
layers = (
{
anchors = (
{
name = bottom;
pos = (208,0);
},
{
name = top;
pos = (324,472);
}
);
layerId = "590A0C71-EA88-4A1F-B6FA-52B0DDF92252";
shapes = (
{
closed = 1;
nodes = (
(56,0,l),
(122,271,ls),
(150,386,o),
(202,454,o),
(300,454,cs),
(396,454,o),
(436,381,o),
(409,271,cs),
(367,100,ls),
(352,40,o),
(382,0,o),
(443,0,cs),
(465,0,l),
(472,27,l),
(447,27,ls),
(406,27,o),
(386,54,o),
(396,95,cs),
(438,269,ls),
(469,395,o),
(417,482,o),
(306,482,cs),
(228,482,o),
(174,444,o),
(130,348,c),
(139,348,l),
(170,472,l),
(143,472,l),
(27,0,l)
);
}
);
width = 517;
},
{
anchors = (
{
name = bottom;
pos = (231,0);
},
{
name = top;
pos = (358,502);
}
);
hints = (
{
horizontal = 1;
origin = (0,12);
target = (0,13);
type = Stem;
},
{
horizontal = 1;
origin = (0,26);
target = (0,4);
type = Stem;
}
);
layerId = "E84899BD-5F2A-4806-8411-3A23E0ED2668";
shapes = (
{
closed = 1;
nodes = (
(181,0,l),
(247,272,ls),
(257,313,o),
(272,330,o),
(300,330,cs),
(332,330,o),
(341,312,o),
(332,275,cs),
(305,165,ls),
(279,59,o),
(334,0,o),
(449,0,cs),
(522,0,l),
(564,168,l),
(523,168,ls),
(508,168,o),
(507,174,o),
(509,182,cs),
(538,299,ls),
(573,440,o),
(508,512,o),
(415,512,cs),
(322,512,o),
(262,456,o),
(234,358,c),
(262,358,l),
(297,502,l),
(104,502,l),
(-19,0,l)
);
}
);
width = 582;
},
{
anchors = (
{
name = bottom;
pos = (230,0);
},
{
name = top;
pos = (354,493);
}
);
hints = (
{
horizontal = 1;
origin = (0,12);
target = (0,13);
type = Stem;
},
{
horizontal = 1;
origin = (0,21);
target = (0,4);
type = Stem;
}
);
layerId = "138021A6-51CA-4FC2-BD69-BE801B30E3F7";
shapes = (
{
closed = 1;
nodes = (
(149,0,l),
(218,283,ls),
(231,336,o),
(262,367,o),
(303,367,cs),
(352,367,o),
(373,336,o),
(360,283,cs),
(324,135,ls),
(304,53,o),
(345,0,o),
(438,0,cs),
(515,0,l),
(546,124,l),
(497,124,ls),
(477,124,o),
(474,131,o),
(477,143,cs),
(511,280,ls),
(547,425,o),
(490,503,o),
(381,503,cs),
(319,503,o),
(238,479,o),
(190,355,c),
(230,355,l),
(264,493,l),
(119,493,l),
(-2,0,l)
);
}
);
width = 576;
}
);
unicode = 110;
},
{
glyphname = eng;
kernLeft = n;
lastChange = "2025-08-06 22:13:05 +0000";
layers = (
{
background = {
shapes = (
{
closed = 1;
nodes = (
(223,-200,ls),
(287,-200,o),
(336,-161,o),
(353,-92,cs),
(441,266,ls),
(473,396,o),
(422,482,o),
(308,482,cs),
(234,482,o),
(177,444,o),
(134,348,c),
(143,348,l),
(174,472,l),
(147,472,l),
(31,0,l),
(59,0,l),
(126,273,ls),
(154,387,o),
(210,454,o),
(302,454,cs),
(401,454,o),
(441,382,o),
(414,272,cs),
(326,-86,ls),
(313,-139,o),
(274,-173,o),
(226,-173,cs),
(187,-173,l),
(180,-200,l)
);
}
);
};
layerId = "590A0C71-EA88-4A1F-B6FA-52B0DDF92252";
shapes = (
{
closed = 1;
nodes = (
(219,-200,ls),
(283,-200,o),
(332,-161,o),
(349,-92,cs),
(437,266,ls),
(469,396,o),
(418,482,o),
(304,482,cs),
(230,482,o),
(173,444,o),
(130,348,c),
(139,348,l),
(170,472,l),
(143,472,l),
(27,0,l),
(55,0,l),
(122,273,ls),
(150,387,o),
(206,454,o),
(298,454,cs),
(397,454,o),
(437,382,o),
(410,272,cs),
(322,-86,ls),
(309,-139,o),
(270,-173,o),
(222,-173,cs),
(183,-173,l),
(176,-200,l)
);
}
);
width = 508;
},
{
hints = (
{
horizontal = 1;
place = (-200,200);
target = (0,14);
type = Stem;
},
{
horizontal = 1;
origin = (0,7);
target = (0,19);
type = Stem;
}
);
layerId = "E84899BD-5F2A-4806-8411-3A23E0ED2668";
shapes = (
{
closed = 1;
nodes = (
(203,-200,ls),
(360,-200,o),
(430,-140,o),
(464,-2,cs),
(538,299,ls),
(573,441,o),
(507,512,o),
(404,512,cs),
(321,512,o),
(261,456,o),
(233,358,c),
(262,358,l),
(298,502,l),
(104,502,l),
(-19,0,l),
(181,0,l),
(247,273,ls),
(257,314,o),
(272,330,o),
(299,330,cs),
(331,330,o),
(341,312,o),
(332,275,cs),
(259,-21,ls),
(257,-29,o),
(249,-34,o),
(240,-34,cs),
(183,-34,l),
(142,-200,l)
);
}
);
width = 563;
},
{
hints = (
{
horizontal = 1;
origin = (0,28);
target = (0,27);
type = Stem;
},
{
horizontal = 1;
origin = (0,7);
target = (0,19);
type = Stem;
}
);
layerId = "138021A6-51CA-4FC2-BD69-BE801B30E3F7";
shapes = (
{
closed = 1;
nodes = (
(200,-200,ls),
(347,-200,o),
(407,-157,o),
(439,-27,cs),
(515,281,ls),
(550,423,o),
(496,503,o),
(386,503,cs),
(319,503,o),
(241,480,o),
(194,355,c),
(232,355,l),
(267,493,l),
(119,493,l),
(-2,0,l),
(151,0,l),
(220,285,ls),
(232,337,o),
(264,367,o),
(306,367,cs),
(354,367,o),
(375,334,o),
(361,278,cs),
(279,-55,ls),
(275,-72,o),
(264,-76,o),
(245,-76,cs),
(181,-76,l),
(151,-200,l)
);
}
);
width = 558;
}
);
unicode = 331;
},
{
glyphname = o;
kernLeft = o;
kernRight = o;
lastChange = "2025-08-06 22:13:29 +0000";
layers = (
{
anchors = (
{
name = bottom;
pos = (196,0);
},
{
name = center;
pos = (254,236);
},
{
name = top;
pos = (312,472);
},
{
name = topright;
pos = (365,472);
}
);
layerId = "590A0C71-EA88-4A1F-B6FA-52B0DDF92252";
shapes = (
{
closed = 1;
nodes = (
(333,-10,o),
(461,90,o),
(461,302,cs),
(461,411,o),
(393,482,o),
(296,482,cs),
(155,482,o),
(49,353,o),
(49,182,cs),
(49,49,o),
(131,-10,o),
(218,-10,cs)
);
},
{
closed = 1;
nodes = (
(149,18,o),
(78,65,o),
(78,183,cs),
(78,337,o),
(170,454,o),
(295,454,cs),
(374,454,o),
(432,394,o),
(432,302,cs),
(432,121,o),
(331,18,o),
(219,18,cs)
);
}
);
width = 510;
},
{
anchors = (
{
name = bottom;
pos = (223,0);
},
{
name = center;
pos = (285,252);
},
{
name = top;
pos = (351,502);
},
{
name = topright;
pos = (380,502);
}
);
hints = (
{
horizontal = 1;
origin = (1,11);
target = (0,11);
type = Stem;
},
{
horizontal = 1;
origin = (0,5);
target = (1,5);
type = Stem;
}
);
layerId = "E84899BD-5F2A-4806-8411-3A23E0ED2668";
shapes = (
{
closed = 1;
nodes = (
(396,-10,o),
(552,73,o),
(552,289,cs),
(552,423,o),
(453,512,o),
(312,512,cs),
(139,512,o),
(20,392,o),
(20,213,cs),
(20,43,o),
(158,-10,o),
(260,-10,cs)
);
},
{
closed = 1;
nodes = (
(246,172,o),
(221,188,o),
(221,229,cs),
(221,287,o),
(257,330,o),
(299,330,cs),
(328,330,o),
(351,309,o),
(351,275,cs),
(351,201,o),
(306,172,o),
(274,172,cs)
);
}
);
width = 572;
},
{
anchors = (
{
name = bottom;
pos = (213,0);
},
{
name = center;
pos = (271,247);
},
{
name = top;
pos = (332,493);
},
{
name = topright;
pos = (367,493);
}
);
hints = (
{
horizontal = 1;
origin = (1,11);
target = (0,11);
type = Stem;
},
{
horizontal = 1;
origin = (0,5);
target = (1,5);
type = Stem;
}
);
layerId = "138021A6-51CA-4FC2-BD69-BE801B30E3F7";
shapes = (
{
closed = 1;
nodes = (
(376,-10,o),
(517,92,o),
(517,293,cs),
(517,419,o),
(429,503,o),
(308,503,cs),
(151,503,o),
(31,378,o),
(31,211,cs),
(31,78,o),
(115,-10,o),
(244,-10,cs)
);
},
{
closed = 1;
nodes = (
(208,126,o),
(181,161,o),
(181,221,cs),
(181,302,o),
(234,367,o),
(296,367,cs),
(341,367,o),
(367,337,o),
(367,285,cs),
(367,190,o),
(315,126,o),
(255,126,cs)
);
}
);
width = 547;
}
);
unicode = 111;
},
{
color = 8;
glyphname = ohorn;
kernLeft = o;
kernRight = ohorn;
lastChange = "2025-08-06 22:13:41 +0000";
layers = (
{
anchors = (
{
name = bottom;
pos = (237,0);
},
{
name = top;
pos = (290,502);
}
);
hints = (
{
horizontal = 1;
origin = (1,11);
target = (0,22);
type = Stem;
},
{
horizontal = 1;
origin = (0,16);
target = (1,5);
type = Stem;
}
);
layerId = "E84899BD-5F2A-4806-8411-3A23E0ED2668";
shapes = (
{
closed = 1;
nodes = (
(396,-10,o),
(552,73,o),
(552,289,cs),
(552,345,o),
(536,390,o),
(503,433,c),
(457,364,l),
(619,381,o),
(634,467,o),
(648,599,c),
(474,599,l),
(470,534,o),
(466,496,o),
(424,496,cs),
(399,496,o),
(370,512,o),
(312,512,cs),
(139,512,o),
(20,392,o),
(20,213,cs),
(20,43,o),
(158,-10,o),
(260,-10,cs)
);
},
{
closed = 1;
nodes = (
(246,172,o),
(221,188,o),
(221,229,cs),
(221,287,o),
(257,330,o),
(299,330,cs),
(328,330,o),
(351,309,o),
(351,275,cs),
(351,201,o),
(306,172,o),
(274,172,cs)
);
}
);
width = 579;
},
{
anchors = (
{
name = bottom;
pos = (225,0);
},
{
name = top;
pos = (323,493);
}
);
background = {
anchors = (
{
name = bottom;
pos = (225,0);
},
{
name = top;
pos = (323,493);
}
);
shapes = (
{
closed = 1;
nodes = (
(378,-10,o),
(517,92,o),
(517,293,cs),
(517,420,o),
(425,503,o),
(298,503,cs),
(151,503,o),
(31,378,o),
(31,211,cs),
(31,50,o),
(142,-10,o),
(245,-10,cs)
);
},
{
closed = 1;
nodes = (
(206,126,o),
(181,158,o),
(181,221,cs),
(181,302,o),
(234,367,o),
(296,367,cs),
(343,367,o),
(367,339,o),
(367,285,cs),
(367,190,o),
(315,126,o),
(255,126,cs)
);
}
);
};
hints = (
{
horizontal = 1;
origin = (1,11);
target = (0,22);
type = Stem;
},
{
horizontal = 1;
origin = (0,16);
target = (1,5);
type = Stem;
}
);
layerId = "138021A6-51CA-4FC2-BD69-BE801B30E3F7";
shapes = (
{
closed = 1;
nodes = (
(381,-10,o),
(517,94,o),
(517,293,cs),
(517,344,o),
(503,387,o),
(476,421,c),
(460,376,l),
(563,387,o),
(589,463,o),
(591,571,c),
(463,571,l),
(462,504,o),
(454,473,o),
(428,473,cs),
(408,473,o),
(375,503,o),
(300,503,cs),
(158,503,o),
(31,378,o),
(31,211,cs),
(31,44,o),
(142,-10,o),
(247,-10,cs)
);
},
{
closed = 1;
nodes = (
(206,126,o),
(181,158,o),
(181,221,cs),
(181,302,o),
(234,367,o),
(296,367,cs),
(343,367,o),
(367,339,o),
(367,285,cs),
(367,190,o),
(315,126,o),
(255,126,cs)
);
}
);
width = 556;
},
{
anchors = (
{
name = bottom;
pos = (207,0);
},
{
name = top;
pos = (305,472);
}
);
associatedMasterId = "590A0C71-EA88-4A1F-B6FA-52B0DDF92252";
background = {
shapes = (
{
closed = 1;
nodes = (
(333,-10,o),
(461,90,o),
(461,302,cs),
(461,411,o),
(393,482,o),
(296,482,cs),
(155,482,o),
(49,353,o),
(49,182,cs),
(49,49,o),
(131,-10,o),
(218,-10,cs)
);
},
{
closed = 1;
nodes = (
(149,18,o),
(78,65,o),
(78,183,cs),
(78,337,o),
(170,454,o),
(295,454,cs),
(374,454,o),
(432,394,o),
(432,302,cs),
(432,121,o),
(331,18,o),
(219,18,cs)
);
}
);
};
layerId = "E5EF4809-AE74-49D5-899D-962401506F3A";
name = "4. Aug. 25, 22:59";
shapes = (
{
closed = 1;
nodes = (
(336,-10,o),
(452,100,o),
(452,290,cs),
(452,351,o),
(432,403,o),
(398,435,c),
(394,429,l),
(469,432,o),
(507,478,o),
(519,554,c),
(493,554,l),
(485,487,o),
(451,454,o),
(398,454,cs),
(363,454,o),
(348,482,o),
(288,482,cs),
(150,482,o),
(50,351,o),
(50,191,cs),
(50,49,o),
(136,-10,o),
(223,-10,cs)
);
},
{
closed = 1;
nodes = (
(153,18,o),
(78,69,o),
(78,191,cs),
(78,337,o),
(167,454,o),
(289,454,cs),
(368,454,o),
(424,387,o),
(424,287,cs),
(424,121,o),
(324,18,o),
(224,18,cs)
);
}
);
width = 504;
},
{
anchors = (
{
name = bottom;
pos = (212,0);
},
{
name = top;
pos = (310,472);
}
);
background = {
shapes = (
{
closed = 1;
nodes = (
(333,-10,o),
(461,90,o),
(461,302,cs),
(461,411,o),
(393,482,o),
(296,482,cs),
(155,482,o),
(49,353,o),
(49,182,cs),
(49,49,o),
(131,-10,o),
(218,-10,cs)
);
},
{
closed = 1;
nodes = (
(149,18,o),
(78,65,o),
(78,183,cs),
(78,337,o),
(170,454,o),
(295,454,cs),
(374,454,o),
(432,394,o),
(432,302,cs),
(432,121,o),
(331,18,o),
(219,18,cs)
);
}
);
};
layerId = "590A0C71-EA88-4A1F-B6FA-52B0DDF92252";
name = "Thin Italic";
shapes = (
{
closed = 1;
nodes = (
(334,-10,o),
(461,99,o),
(461,287,cs),
(461,352,o),
(440,403,o),
(405,435,c),
(399,431,l),
(478,427,o),
(517,478,o),
(529,554,c),
(503,554,l),
(495,487,o),
(462,455,o),
(408,455,cs),
(371,455,o),
(354,482,o),
(292,482,cs),
(151,482,o),
(49,352,o),
(49,184,cs),
(49,49,o),
(130,-10,o),
(219,-10,cs)
);
},
{
closed = 1;
nodes = (
(147,18,o),
(78,69,o),
(78,184,cs),
(78,339,o),
(169,454,o),
(294,454,cs),
(375,454,o),
(433,387,o),
(433,284,cs),
(433,120,o),
(323,18,o),
(220,18,cs)
);
}
);
width = 514;
}
);
unicode = 417;
},
{
glyphname = oslash;
kernLeft = o;
kernRight = o;
lastChange = "2025-08-06 22:13:49 +0000";
layers = (
{
layerId = "590A0C71-EA88-4A1F-B6FA-52B0DDF92252";
shapes = (
{
closed = 1;
nodes = (
(93,63,l),
(106,73,l),
(428,376,l),
(440,387,l),
(531,471,l),
(515,490,l),
(427,410,l),
(416,399,l),
(92,94,l),
(82,84,l),
(-14,0,l),
(1,-19,l)
);
},
{
closed = 1;
nodes = (
(336,-10,o),
(464,90,o),
(464,302,cs),
(464,411,o),
(396,482,o),
(299,482,cs),
(158,482,o),
(52,353,o),
(52,182,cs),
(52,49,o),
(134,-10,o),
(221,-10,cs)
);
},
{
closed = 1;
nodes = (
(152,18,o),
(81,65,o),
(81,183,cs),
(81,337,o),
(175,454,o),
(300,454,cs),
(379,454,o),
(435,394,o),
(435,302,cs),
(435,121,o),
(334,18,o),
(222,18,cs)
);
}
);
width = 516;
},
{
hints = (
{
horizontal = 1;
origin = (0,1);
target = (1,11);
type = Stem;
},
{
horizontal = 1;
origin = (1,5);
target = (2,5);
type = Stem;
}
);
layerId = "E84899BD-5F2A-4806-8411-3A23E0ED2668";
shapes = (
{
closed = 1;
nodes = (
(130,31,l),
(246,153,l),
(400,284,l),
(532,374,l),
(608,437,l),
(518,539,l),
(446,477,l),
(333,355,l),
(175,223,l),
(48,135,l),
(-32,67,l),
(54,-34,l)
);
},
{
closed = 1;
nodes = (
(397,-10,o),
(553,73,o),
(553,289,cs),
(553,423,o),
(454,512,o),
(313,512,cs),
(140,512,o),
(21,392,o),
(21,213,cs),
(21,43,o),
(159,-10,o),
(261,-10,cs)
);
},
{
closed = 1;
nodes = (
(236,150,o),
(204,171,o),
(204,223,cs),
(204,297,o),
(250,352,o),
(304,352,cs),
(341,352,o),
(370,325,o),
(370,282,cs),
(370,194,o),
(318,150,o),
(272,150,cs)
);
}
);
width = 574;
},
{
hints = (
{
horizontal = 1;
origin = (2,11);
target = (1,11);
type = Stem;
},
{
horizontal = 1;
origin = (1,5);
target = (2,5);
type = Stem;
}
);
layerId = "138021A6-51CA-4FC2-BD69-BE801B30E3F7";
shapes = (
{
closed = 1;
nodes = (
(151,78,l),
(195,118,l),
(413,308,l),
(489,366,l),
(580,446,l),
(516,520,l),
(411,428,l),
(358,378,l),
(137,186,l),
(72,139,l),
(-27,49,l),
(35,-25,l)
);
},
{
closed = 1;
nodes = (
(380,-10,o),
(519,92,o),
(519,293,cs),
(519,420,o),
(427,503,o),
(300,503,cs),
(153,503,o),
(33,378,o),
(33,211,cs),
(33,50,o),
(144,-10,o),
(247,-10,cs)
);
},
{
closed = 1;
nodes = (
(214,118,o),
(179,144,o),
(179,220,cs),
(179,304,o),
(234,376,o),
(299,376,cs),
(347,376,o),
(375,343,o),
(375,287,cs),
(375,187,o),
(318,118,o),
(256,118,cs)
);
}
);
width = 551;
}
);
unicode = 248;
},
{
glyphname = oe;
kernLeft = o;
kernRight = e;
lastChange = "2025-08-06 22:14:31 +0000";
layers = (
{
anchors = (
{
name = bottom;
pos = (360,0);
},
{
name = top;
pos = (479,472);
}
);
layerId = "590A0C71-EA88-4A1F-B6FA-52B0DDF92252";
shapes = (
{
closed = 1;
nodes = (
(313,-10,o),
(385,61,o),
(422,148,c),
(417,150,l),
(424,50,o),
(486,-10,o),
(585,-10,cs),
(644,-10,o),
(694,10,o),
(732,38,c),
(719,64,l),
(684,39,o),
(643,18,o),
(586,18,cs),
(510,18,o),
(445,58,o),
(445,183,cs),
(445,336,o),
(556,454,o),
(681,454,cs),
(738,454,o),
(771,428,o),
(771,382,cs),
(771,295,o),
(647,227,o),
(439,231,c),
(433,204,l),
(658,200,o),
(800,276,o),
(800,384,cs),
(800,447,o),
(756,482,o),
(682,482,cs),
(579,482,o),
(493,416,o),
(446,317,c),
(451,315,l),
(443,421,o),
(387,482,o),
(292,482,cs),
(154,482,o),
(50,348,o),
(50,191,cs),
(50,52,o),
(136,-10,o),
(220,-10,cs)
);
},
{
closed = 1;
nodes = (
(151,18,o),
(78,71,o),
(78,191,cs),
(78,334,o),
(173,454,o),
(289,454,cs),
(379,454,o),
(423,392,o),
(423,287,cs),
(423,116,o),
(317,18,o),
(222,18,cs)
);
}
);
width = 820;
},
{
anchors = (
{
name = bottom;
pos = (372,0);
},
{
name = top;
pos = (495,502);
}
);
hints = (
{
horizontal = 1;
origin = (1,11);
target = (0,45);
type = Stem;
},
{
horizontal = 1;
origin = (0,39);
target = (1,5);
type = Stem;
},
{
horizontal = 1;
origin = (0,26);
target = (0,25);
type = Stem;
}
);
layerId = "E84899BD-5F2A-4806-8411-3A23E0ED2668";
shapes = (
{
closed = 1;
nodes = (
(340,-10,o),
(406,23,o),
(457,77,c),
(388,77,l),
(411,20,o),
(463,-10,o),
(561,-10,cs),
(614,-10,o),
(700,5,o),
(781,52,c),
(726,197,l),
(658,164,o),
(619,155,o),
(593,155,cs),
(556,155,o),
(536,166,o),
(536,223,cs),
(536,303,o),
(569,366,o),
(613,366,cs),
(628,366,o),
(635,357,o),
(635,345,cs),
(635,295,o),
(554,274,o),
(466,272,c),
(466,176,l),
(709,181,o),
(829,252,o),
(829,375,cs),
(829,457,o),
(761,512,o),
(659,512,cs),
(558,512,o),
(480,470,o),
(433,406,c),
(504,406,l),
(465,475,o),
(402,512,o),
(307,512,cs),
(146,512,o),
(20,392,o),
(20,213,cs),
(20,49,o),
(153,-10,o),
(253,-10,cs)
);
},
{
closed = 1;
nodes = (
(246,172,o),
(221,189,o),
(221,229,cs),
(221,287,o),
(255,330,o),
(301,330,cs),
(331,330,o),
(351,309,o),
(351,275,cs),
(351,200,o),
(305,172,o),
(273,172,cs)
);
}
);
width = 829;
},
{
anchors = (
{
name = bottom;
pos = (363,0);
},
{
name = top;
pos = (485,493);
}
);
background = {
anchors = (
{
name = bottom;
pos = (364,0);
},
{
name = top;
pos = (486,493);
}
);
shapes = (
{
closed = 1;
nodes = (
(332,-10,o),
(396,37,o),
(446,104,c),
(384,104,l),
(418,14,o),
(499,-10,o),
(573,-10,cs),
(645,-10,o),
(720,13,o),
(768,54,c),
(694,154,l),
(661,129,o),
(630,115,o),
(593,115,cs),
(545,115,o),
(514,136,o),
(514,206,cs),
(514,275,o),
(558,387,o),
(630,387,cs),
(654,387,o),
(670,374,o),
(670,350,cs),
(670,298,o),
(624,281,o),
(484,283,c),
(467,178,l),
(699,174,o),
(819,240,o),
(819,372,cs),
(819,453,o),
(762,503,o),
(666,503,cs),
(569,503,o),
(490,454,o),
(445,387,c),
(486,387,l),
(459,457,o),
(390,503,o),
(301,503,cs),
(153,503,o),
(31,373,o),
(31,211,cs),
(31,55,o),
(144,-10,o),
(244,-10,cs)
);
},
{
closed = 1;
nodes = (
(216,123,o),
(181,141,o),
(181,221,cs),
(181,291,o),
(228,371,o),
(298,371,cs),
(350,371,o),
(374,336,o),
(374,285,cs),
(374,190,o),
(317,123,o),
(259,123,cs)
);
}
);
};
hints = (
{
horizontal = 1;
origin = (0,26);
target = (0,25);
type = Stem;
},
{
horizontal = 1;
origin = (1,5);
target = (0,39);
type = Stem;
},
{
horizontal = 1;
place = (-10,133);
target = (1,11);
type = Stem;
}
);
layerId = "138021A6-51CA-4FC2-BD69-BE801B30E3F7";
shapes = (
{
closed = 1;
nodes = (
(331,-10,o),
(395,37,o),
(445,104,c),
(383,104,l),
(417,14,o),
(498,-10,o),
(572,-10,cs),
(644,-10,o),
(719,13,o),
(767,54,c),
(693,154,l),
(660,129,o),
(629,115,o),
(592,115,cs),
(544,115,o),
(513,136,o),
(513,206,cs),
(513,275,o),
(557,387,o),
(629,387,cs),
(653,387,o),
(669,376,o),
(669,352,cs),
(669,304,o),
(611,281,o),
(483,283,c),
(466,178,l),
(698,174,o),
(818,240,o),
(818,372,cs),
(818,453,o),
(761,503,o),
(665,503,cs),
(568,503,o),
(489,454,o),
(444,387,c),
(485,387,l),
(458,457,o),
(389,503,o),
(300,503,cs),
(152,503,o),
(30,373,o),
(30,211,cs),
(30,55,o),
(143,-10,o),
(243,-10,cs)
);
},
{
closed = 1;
nodes = (
(215,123,o),
(180,141,o),
(180,221,cs),
(180,291,o),
(227,371,o),
(297,371,cs),
(349,371,o),
(373,336,o),
(373,285,cs),
(373,190,o),
(316,123,o),
(258,123,cs)
);
}
);
width = 831;
}
);
unicode = 339;
},
{
glyphname = p;
kernLeft = n;
kernRight = b;
lastChange = "2025-08-06 22:15:05 +0000";
layers = (
{
anchors = (
{
name = top;
pos = (346,472);
}
);
layerId = "590A0C71-EA88-4A1F-B6FA-52B0DDF92252";
shapes = (
{
closed = 1;
nodes = (
(6,-200,l),
(94,152,l),
(86,168,l),
(94,42,o),
(165,-10,o),
(249,-10,cs),
(367,-10,o),
(486,100,o),
(486,294,cs),
(486,403,o),
(418,482,o),
(323,482,cs),
(240,482,o),
(166,426,o),
(126,337,c),
(137,331,l),
(172,472,l),
(143,472,l),
(-23,-200,l)
);
},
{
closed = 1;
nodes = (
(162,17,o),
(104,81,o),
(104,186,cs),
(104,321,o),
(197,454,o),
(315,454,cs),
(398,454,o),
(457,384,o),
(457,289,cs),
(457,110,o),
(345,17,o),
(248,17,cs)
);
}
);
width = 536;
},
{
anchors = (
{
name = top;
pos = (372,502);
}
);
hints = (
{
horizontal = 1;
place = (-200,21);
target = up;
type = BottomGhost;
},
{
horizontal = 1;
origin = (1,11);
target = (0,5);
type = Stem;
},
{
horizontal = 1;
origin = (1,5);
target = (0,11);
type = Stem;
}
);
layerId = "E84899BD-5F2A-4806-8411-3A23E0ED2668";
shapes = (
{
closed = 1;
nodes = (
(134,-200,l),
(203,77,l),
(180,77,l),
(196,22,o),
(233,-10,o),
(306,-10,cs),
(443,-10,o),
(561,113,o),
(561,321,cs),
(561,440,o),
(494,512,o),
(389,512,cs),
(319,512,o),
(257,476,o),
(222,406,c),
(259,406,l),
(283,502,l),
(104,502,l),
(-68,-200,l)
);
},
{
closed = 1;
nodes = (
(252,172,o),
(228,188,o),
(228,231,cs),
(228,287,o),
(263,330,o),
(305,330,cs),
(334,330,o),
(358,310,o),
(358,275,cs),
(358,209,o),
(319,172,o),
(280,172,cs)
);
}
);
width = 578;
},
{
anchors = (
{
name = top;
pos = (356,493);
}
);
hints = (
{
horizontal = 1;
place = (-200,21);
target = up;
type = BottomGhost;
},
{
horizontal = 1;
place = (-10,132);
target = (1,11);
type = Stem;
},
{
horizontal = 1;
origin = (1,5);
target = (0,11);
type = Stem;
}
);
layerId = "138021A6-51CA-4FC2-BD69-BE801B30E3F7";
shapes = (
{
closed = 1;
nodes = (
(97,-200,l),
(175,116,l),
(140,91,l),
(161,27,o),
(208,-10,o),
(278,-10,cs),
(404,-10,o),
(534,111,o),
(534,316,cs),
(534,438,o),
(469,503,o),
(370,503,cs),
(297,503,o),
(227,452,o),
(198,384,c),
(225,384,l),
(252,493,l),
(119,493,l),
(-51,-200,l)
);
},
{
closed = 1;
nodes = (
(215,122,o),
(197,159,o),
(197,212,cs),
(197,298,o),
(247,370,o),
(311,370,cs),
(356,370,o),
(385,342,o),
(385,275,cs),
(385,169,o),
(312,122,o),
(268,122,cs)
);
}
);
width = 561;
}
);
unicode = 112;
},
{
glyphname = thorn;
kernLeft = h;
kernRight = b;
lastChange = "2025-08-06 22:15:23 +0000";
layers = (
{
layerId = "590A0C71-EA88-4A1F-B6FA-52B0DDF92252";
shapes = (
{
closed = 1;
nodes = (
(7,-200,l),
(95,152,l),
(87,168,l),
(95,42,o),
(166,-10,o),
(250,-10,cs),
(368,-10,o),
(487,100,o),
(487,294,cs),
(487,403,o),
(419,482,o),
(324,482,cs),
(241,482,o),
(167,426,o),
(127,337,c),
(138,331,l),
(236,730,l),
(207,730,l),
(-22,-200,l)
);
},
{
closed = 1;
nodes = (
(163,17,o),
(105,81,o),
(105,186,cs),
(105,321,o),
(198,454,o),
(316,454,cs),
(399,454,o),
(458,384,o),
(458,289,cs),
(458,110,o),
(346,17,o),
(249,17,cs)
);
}
);
width = 537;
},
{
hints = (
{
horizontal = 1;
place = (-200,21);
target = up;
type = BottomGhost;
},
{
horizontal = 1;
origin = (1,11);
target = (0,5);
type = Stem;
},
{
horizontal = 1;
origin = (1,5);
target = (0,11);
type = Stem;
},
{
horizontal = 1;
place = (730,-20);
target = down;
type = TopGhost;
}
);
layerId = "E84899BD-5F2A-4806-8411-3A23E0ED2668";
shapes = (
{
closed = 1;
nodes = (
(134,-200,l),
(203,77,l),
(180,77,l),
(196,22,o),
(233,-10,o),
(306,-10,cs),
(443,-10,o),
(561,113,o),
(561,321,cs),
(561,440,o),
(494,512,o),
(389,512,cs),
(319,512,o),
(257,476,o),
(222,406,c),
(284,406,l),
(364,730,l),
(160,730,l),
(-68,-200,l)
);
},
{
closed = 1;
nodes = (
(252,172,o),
(228,188,o),
(228,231,cs),
(228,287,o),
(263,330,o),
(305,330,cs),
(334,330,o),
(358,310,o),
(358,275,cs),
(358,209,o),
(319,172,o),
(280,172,cs)
);
}
);
width = 578;
},
{
hints = (
{
horizontal = 1;
place = (-200,21);
target = up;
type = BottomGhost;
},
{
horizontal = 1;
place = (-10,132);
target = (1,11);
type = Stem;
},
{
horizontal = 1;
origin = (1,5);
target = (0,11);
type = Stem;
},
{
horizontal = 1;
place = (730,-20);
target = down;
type = TopGhost;
}
);
layerId = "138021A6-51CA-4FC2-BD69-BE801B30E3F7";
shapes = (
{
closed = 1;
nodes = (
(97,-200,l),
(175,116,l),
(140,91,l),
(161,27,o),
(208,-10,o),
(278,-10,cs),
(404,-10,o),
(534,111,o),
(534,316,cs),
(534,438,o),
(469,503,o),
(370,503,cs),
(297,503,o),
(227,452,o),
(198,384,c),
(242,384,l),
(327,730,l),
(177,730,l),
(-51,-200,l)
);
},
{
closed = 1;
nodes = (
(215,122,o),
(197,159,o),
(197,212,cs),
(197,298,o),
(247,370,o),
(311,370,cs),
(356,370,o),
(385,342,o),
(385,275,cs),
(385,169,o),
(312,122,o),
(268,122,cs)
);
}
);
width = 561;
}
);
unicode = 254;
},
{
glyphname = q;
kernLeft = d;
kernRight = g;
lastChange = "2025-08-06 22:15:35 +0000";
layers = (
{
layerId = "590A0C71-EA88-4A1F-B6FA-52B0DDF92252";
shapes = (
{
closed = 1;
nodes = (
(344,-200,l),
(509,472,l),
(481,472,l),
(444,319,l),
(450,304,l),
(442,430,o),
(371,482,o),
(287,482,cs),
(159,482,o),
(50,355,o),
(50,187,cs),
(50,47,o),
(134,-10,o),
(213,-10,cs),
(296,-10,o),
(370,46,o),
(410,135,c),
(399,141,l),
(315,-200,l)
);
},
{
closed = 1;
nodes = (
(155,18,o),
(79,65,o),
(79,190,cs),
(79,336,o),
(172,455,o),
(288,455,cs),
(374,455,o),
(432,391,o),
(432,286,cs),
(432,151,o),
(339,18,o),
(221,18,cs)
);
}
);
width = 536;
},
{
hints = (
{
horizontal = 1;
place = (-200,21);
target = up;
type = BottomGhost;
},
{
horizontal = 1;
origin = (1,11);
target = (0,13);
type = Stem;
},
{
horizontal = 1;
origin = (1,5);
target = (0,2);
type = Stem;
}
);
layerId = "E84899BD-5F2A-4806-8411-3A23E0ED2668";
shapes = (
{
closed = 1;
nodes = (
(426,-200,l),
(598,502,l),
(396,502,l),
(376,425,l),
(399,425,l),
(383,480,o),
(346,512,o),
(273,512,cs),
(128,512,o),
(18,374,o),
(18,192,cs),
(18,40,o),
(101,-10,o),
(190,-10,cs),
(260,-10,o),
(322,26,o),
(357,96,c),
(297,96,l),
(224,-200,l)
);
},
{
closed = 1;
nodes = (
(246,172,o),
(221,188,o),
(221,229,cs),
(221,287,o),
(257,330,o),
(299,330,cs),
(327,330,o),
(351,314,o),
(351,271,cs),
(351,215,o),
(316,172,o),
(274,172,cs)
);
}
);
width = 578;
},
{
hints = (
{
horizontal = 1;
place = (-200,21);
target = up;
type = BottomGhost;
},
{
horizontal = 1;
place = (-10,133);
target = (1,11);
type = Stem;
},
{
horizontal = 1;
origin = (1,5);
target = (0,7);
type = Stem;
}
);
layerId = "138021A6-51CA-4FC2-BD69-BE801B30E3F7";
shapes = (
{
closed = 1;
nodes = (
(394,-200,l),
(564,493,l),
(416,493,l),
(387,377,l),
(422,402,l),
(401,466,o),
(354,503,o),
(284,503,cs),
(142,503,o),
(28,358,o),
(28,187,cs),
(28,39,o),
(103,-10,o),
(202,-10,cs),
(265,-10,o),
(335,41,o),
(364,109,c),
(321,109,l),
(245,-200,l)
);
},
{
closed = 1;
nodes = (
(215,123,o),
(177,139,o),
(177,221,cs),
(177,291,o),
(224,371,o),
(294,371,cs),
(347,371,o),
(365,334,o),
(365,281,cs),
(365,195,o),
(315,123,o),
(251,123,cs)
);
}
);
width = 561;
}
);
unicode = 113;
},
{
glyphname = r;
kernLeft = n;
kernRight = r;
lastChange = "2025-08-06 22:15:50 +0000";
layers = (
{
anchors = (
{
name = bottom;
pos = (41,0);
},
{
name = top;
pos = (244,472);
}
);
layerId = "590A0C71-EA88-4A1F-B6FA-52B0DDF92252";
shapes = (
{
closed = 1;
nodes = (
(56,0,l),
(130,300,ls),
(151,386,o),
(219,443,o),
(299,443,cs),
(323,443,l),
(330,472,l),
(307,472,ls),
(243,472,o),
(185,453,o),
(144,378,c),
(147,376,l),
(171,472,l),
(143,472,l),
(27,0,l)
);
}
);
width = 294;
},
{
anchors = (
{
name = bottom;
pos = (84,0);
},
{
name = top;
pos = (298,502);
}
);
hints = (
{
horizontal = 1;
origin = (0,14);
target = up;
type = BottomGhost;
},
{
horizontal = 1;
origin = (0,7);
target = (0,5);
type = Stem;
}
);
layerId = "E84899BD-5F2A-4806-8411-3A23E0ED2668";
shapes = (
{
closed = 1;
nodes = (
(183,0,l),
(235,212,ls),
(252,282,o),
(283,310,o),
(350,310,cs),
(394,310,l),
(442,509,l),
(416,509,ls),
(327,509,o),
(256,464,o),
(230,315,c),
(253,316,l),
(299,502,l),
(104,502,l),
(-19,0,l)
);
}
);
width = 392;
},
{
anchors = (
{
name = bottom;
pos = (74,0);
},
{
name = top;
pos = (285,493);
}
);
hints = (
{
horizontal = 1;
origin = (0,14);
target = up;
type = BottomGhost;
},
{
horizontal = 1;
origin = (0,7);
target = (0,5);
type = Stem;
}
);
layerId = "138021A6-51CA-4FC2-BD69-BE801B30E3F7";
shapes = (
{
closed = 1;
nodes = (
(148,0,l),
(208,247,ls),
(226,318,o),
(253,350,o),
(325,350,cs),
(376,350,l),
(412,498,l),
(374,498,ls),
(292,498,o),
(238,460,o),
(207,334,c),
(225,334,l),
(264,493,l),
(119,493,l),
(-2,0,l)
);
}
);
width = 369;
}
);
unicode = 114;
},
{
glyphname = s;
kernLeft = s;
kernRight = s;
lastChange = "2025-08-06 22:16:11 +0000";
layers = (
{
anchors = (
{
name = bottom;
pos = (129,0);
},
{
name = top;
pos = (254,472);
}
);
layerId = "590A0C71-EA88-4A1F-B6FA-52B0DDF92252";
shapes = (
{
closed = 1;
nodes = (
(245,-10,o),
(311,46,o),
(311,130,cs),
(311,275,o),
(116,220,o),
(116,343,cs),
(116,410,o),
(169,455,o),
(248,455,cs),
(290,455,o),
(331,436,o),
(359,411,c),
(379,431,l),
(349,460,o),
(302,482,o),
(250,482,cs),
(152,482,o),
(87,425,o),
(87,340,cs),
(87,197,o),
(282,252,o),
(282,127,cs),
(282,60,o),
(230,16,o),
(153,16,cs),
(103,16,o),
(40,40,o),
(15,70,c),
(-5,49,l),
(19,16,o),
(89,-10,o),
(147,-10,cs)
);
}
);
width = 387;
},
{
anchors = (
{
name = bottom;
pos = (180,0);
},
{
name = top;
pos = (311,502);
}
);
background = {
anchors = (
{
name = bottom;
pos = (177,0);
},
{
name = top;
pos = (308,502);
}
);
shapes = (
{
closed = 1;
nodes = (
(334,-7,o),
(415,62,o),
(415,179,cs),
(415,318,o),
(244,321,o),
(244,356,cs),
(244,365,o),
(253,371,o),
(267,371,cs),
(295,371,o),
(348,340,o),
(381,319,c),
(479,436,l),
(419,483,o),
(339,510,o),
(265,510,cs),
(128,510,o),
(47,443,o),
(47,329,cs),
(47,190,o),
(211,194,o),
(211,152,cs),
(211,143,o),
(201,137,o),
(185,137,cs),
(138,137,o),
(104,157,o),
(56,192,c),
(-40,67,l),
(20,20,o),
(107,-7,o),
(195,-7,cs)
);
}
);
};
hints = (
{
horizontal = 1;
origin = (0,24);
target = (0,31);
type = Stem;
},
{
horizontal = 1;
origin = (0,8);
target = (0,15);
type = Stem;
}
);
layerId = "E84899BD-5F2A-4806-8411-3A23E0ED2668";
shapes = (
{
closed = 1;
nodes = (
(337,-7,o),
(418,62,o),
(418,179,cs),
(418,318,o),
(247,321,o),
(247,356,cs),
(247,365,o),
(256,371,o),
(270,371,cs),
(298,371,o),
(351,340,o),
(384,319,c),
(482,436,l),
(422,483,o),
(342,510,o),
(268,510,cs),
(131,510,o),
(50,443,o),
(50,329,cs),
(50,190,o),
(214,194,o),
(214,152,cs),
(214,143,o),
(204,137,o),
(188,137,cs),
(141,137,o),
(107,157,o),
(59,192,c),
(-37,67,l),
(23,20,o),
(110,-7,o),
(198,-7,cs)
);
}
);
width = 457;
},
{
anchors = (
{
name = bottom;
pos = (154,0);
},
{
name = top;
pos = (283,493);
}
);
hints = (
{
horizontal = 1;
origin = (0,31);
target = (0,24);
type = Stem;
},
{
horizontal = 1;
origin = (0,15);
target = (0,8);
type = Stem;
}
);
layerId = "138021A6-51CA-4FC2-BD69-BE801B30E3F7";
shapes = (
{
closed = 1;
nodes = (
(290,-8,o),
(376,62,o),
(376,167,cs),
(376,318,o),
(209,294,o),
(209,355,cs),
(209,376,o),
(227,390,o),
(254,390,cs),
(281,390,o),
(322,377,o),
(355,351,c),
(435,441,l),
(394,479,o),
(328,503,o),
(263,503,cs),
(147,503,o),
(62,431,o),
(62,326,cs),
(62,175,o),
(226,204,o),
(226,144,cs),
(226,122,o),
(206,107,o),
(176,107,cs),
(139,107,o),
(96,128,o),
(60,157,c),
(-18,67,l),
(16,28,o),
(83,-8,o),
(170,-8,cs)
);
}
);
width = 428;
}
);
unicode = 115;
},
{
glyphname = germandbls;
kernLeft = h;
lastChange = "2025-08-06 22:16:50 +0000";
layers = (
{
background = {
shapes = (
{
closed = 1;
nodes = (
(399,0,o),
(494,87,o),
(494,217,cs),
(494,310,o),
(432,373,o),
(338,373,c),
(335,360,l),
(457,360,o),
(552,456,o),
(552,585,cs),
(552,676,o),
(490,740,o),
(391,740,cs),
(273,740,o),
(194,662,o),
(157,512,cs),
(31,0,l),
(60,0,l),
(186,511,ls),
(219,645,o),
(288,713,o),
(390,713,cs),
(471,713,o),
(524,663,o),
(524,581,cs),
(524,466,o),
(437,379,o),
(325,379,c),
(319,352,l),
(341,352,ls),
(417,352,o),
(467,297,o),
(467,215,cs),
(467,103,o),
(385,28,o),
(267,28,cs),
(170,28,l),
(163,0,l),
(262,0,ls)
);
}
);
};
layerId = "590A0C71-EA88-4A1F-B6FA-52B0DDF92252";
shapes = (
{
closed = 1;
nodes = (
(395,0,o),
(490,87,o),
(490,217,cs),
(490,310,o),
(428,373,o),
(334,373,c),
(331,360,l),
(453,360,o),
(548,456,o),
(548,585,cs),
(548,676,o),
(486,740,o),
(387,740,cs),
(269,740,o),
(190,662,o),
(153,512,cs),
(27,0,l),
(56,0,l),
(182,511,ls),
(215,645,o),
(284,713,o),
(386,713,cs),
(467,713,o),
(520,663,o),
(520,581,cs),
(520,466,o),
(433,379,o),
(321,379,c),
(315,352,l),
(337,352,ls),
(413,352,o),
(463,297,o),
(463,215,cs),
(463,103,o),
(381,28,o),
(263,28,cs),
(166,28,l),
(159,0,l),
(258,0,ls)
);
}
);
width = 551;
},
{
hints = (
{
horizontal = 1;
origin = (0,38);
target = (0,36);
type = Stem;
},
{
horizontal = 1;
origin = (0,12);
target = (0,21);
type = Stem;
},
{
horizontal = 1;
origin = (0,27);
target = (0,28);
type = Stem;
}
);
layerId = "E84899BD-5F2A-4806-8411-3A23E0ED2668";
shapes = (
{
closed = 1;
nodes = (
(477,0,o),
(574,85,o),
(574,212,cs),
(574,310,o),
(505,394,o),
(371,394,c),
(365,328,l),
(516,328,o),
(625,405,o),
(625,548,cs),
(625,666,o),
(535,745,o),
(401,745,cs),
(202,745,o),
(137,637,o),
(100,487,cs),
(-19,0,l),
(183,0,l),
(307,505,ls),
(316,542,o),
(340,571,o),
(378,571,cs),
(404,571,o),
(426,554,o),
(426,527,cs),
(426,476,o),
(381,452,o),
(323,452,c),
(282,286,l),
(320,286,ls),
(358,286,o),
(383,267,o),
(383,238,cs),
(383,200,o),
(351,178,o),
(297,178,cs),
(254,178,l),
(211,0,l),
(331,0,ls)
);
}
);
width = 606;
},
{
hints = (
{
horizontal = 1;
origin = (0,38);
target = (0,36);
type = Stem;
},
{
horizontal = 1;
origin = (0,12);
target = (0,21);
type = Stem;
},
{
horizontal = 1;
origin = (0,27);
target = (0,28);
type = Stem;
}
);
layerId = "138021A6-51CA-4FC2-BD69-BE801B30E3F7";
shapes = (
{
closed = 1;
nodes = (
(465,0,o),
(554,88,o),
(554,221,cs),
(554,320,o),
(488,384,o),
(375,384,c),
(364,326,l),
(525,349,o),
(606,424,o),
(606,548,cs),
(606,679,o),
(518,740,o),
(392,740,cs),
(252,740,o),
(160,658,o),
(121,500,cs),
(-2,0,l),
(148,0,l),
(267,484,ls),
(289,571,o),
(326,610,o),
(385,610,cs),
(431,610,o),
(458,588,o),
(458,542,cs),
(458,485,o),
(404,442,o),
(324,431,c),
(294,307,l),
(317,307,ls),
(382,307,o),
(411,269,o),
(411,223,cs),
(411,158,o),
(357,133,o),
(307,133,cs),
(241,133,l),
(208,0,l),
(315,0,ls)
);
}
);
width = 597;
}
);
unicode = 223;
},
{
glyphname = t;
kernLeft = t;
kernRight = t;
lastChange = "2025-08-06 22:17:05 +0000";
layers = (
{
anchors = (
{
name = bottom;
pos = (122,19);
},
{
name = center;
pos = (144,293);
},
{
name = top;
pos = (202,591);
},
{
name = topright;
pos = (336,702);
}
);
layerId = "590A0C71-EA88-4A1F-B6FA-52B0DDF92252";
shapes = (
{
closed = 1;
nodes = (
(204,0,l),
(211,27,l),
(155,27,ls),
(110,27,o),
(85,60,o),
(96,104,cs),
(216,591,l),
(188,591,l),
(69,108,ls),
(54,46,o),
(88,0,o),
(148,0,cs)
);
},
{
closed = 1;
nodes = (
(313,444,l),
(320,472,l),
(74,472,l),
(67,444,l)
);
}
);
width = 291;
},
{
anchors = (
{
name = bottom;
pos = (181,0);
},
{
name = center;
pos = (189,250);
},
{
name = top;
pos = (265,621);
},
{
name = topright;
pos = (440,742);
}
);
hints = (
{
horizontal = 1;
origin = (0,11);
target = (0,2);
type = Stem;
},
{
horizontal = 1;
origin = (1,2);
target = (1,3);
type = Stem;
}
);
layerId = "E84899BD-5F2A-4806-8411-3A23E0ED2668";
shapes = (
{
closed = 1;
nodes = (
(283,0,l),
(324,168,l),
(273,168,ls),
(263,168,o),
(257,174,o),
(260,186,cs),
(366,621,l),
(164,621,l),
(56,180,ls),
(30,72,o),
(90,0,o),
(206,0,cs)
);
},
{
closed = 1;
nodes = (
(365,334,l),
(406,502,l),
(75,502,l),
(34,334,l)
);
}
);
width = 378;
},
{
anchors = (
{
name = bottom;
pos = (170,0);
},
{
name = center;
pos = (185,259);
},
{
name = top;
pos = (254,612);
},
{
name = topright;
pos = (417,730);
}
);
hints = (
{
horizontal = 1;
origin = (0,11);
target = (0,2);
type = Stem;
},
{
horizontal = 1;
origin = (1,2);
target = (1,3);
type = Stem;
}
);
layerId = "138021A6-51CA-4FC2-BD69-BE801B30E3F7";
shapes = (
{
closed = 1;
nodes = (
(269,0,l),
(300,126,l),
(230,126,ls),
(219,126,o),
(212,135,o),
(215,146,cs),
(329,612,l),
(179,612,l),
(70,167,ls),
(46,68,o),
(101,0,o),
(207,0,cs)
);
},
{
closed = 1;
nodes = (
(359,367,l),
(390,493,l),
(83,493,l),
(52,367,l)
);
}
);
width = 367;
}
);
unicode = 116;
},
{
glyphname = u;
kernLeft = u;
kernRight = u;
lastChange = "2025-08-06 22:17:30 +0000";
layers = (
{
anchors = (
{
name = bottom;
pos = (174,0);
},
{
name = ogonek;
pos = (453,0);
},
{
name = top;
pos = (297,472);
},
{
name = topright;
pos = (448,472);
}
);
layerId = "590A0C71-EA88-4A1F-B6FA-52B0DDF92252";
shapes = (
{
closed = 1;
nodes = (
(267,-10,o),
(317,19,o),
(357,86,c),
(352,87,l),
(344,35,o),
(374,0,o),
(431,0,cs),
(453,0,l),
(460,27,l),
(435,27,ls),
(394,27,o),
(374,54,o),
(384,95,cs),
(476,472,l),
(448,472,l),
(374,171,ls),
(344,74,o),
(292,18,o),
(208,18,cs),
(108,18,o),
(72,91,o),
(99,201,cs),
(165,472,l),
(136,472,l),
(70,203,ls),
(39,77,o),
(88,-10,o),
(203,-10,cs)
);
}
);
width = 515;
},
{
anchors = (
{
name = bottom;
pos = (210,0);
},
{
name = ogonek;
pos = (530,0);
},
{
name = top;
pos = (340,502);
},
{
name = topright;
pos = (394,502);
}
);
hints = (
{
horizontal = 1;
place = (-10,182);
target = (0,18);
type = Stem;
},
{
horizontal = 1;
place = (502,-20);
target = down;
type = TopGhost;
}
);
layerId = "E84899BD-5F2A-4806-8411-3A23E0ED2668";
shapes = (
{
closed = 1;
nodes = (
(242,-10,o),
(318,37,o),
(348,119,c),
(303,119,l),
(303,41,o),
(354,0,o),
(457,0,cs),
(530,0,l),
(572,168,l),
(523,168,ls),
(512,168,o),
(509,171,o),
(511,180,cs),
(590,502,l),
(394,502,l),
(327,230,ls),
(317,189,o),
(297,172,o),
(268,172,cs),
(235,172,o),
(219,187,o),
(229,228,cs),
(296,502,l),
(100,502,l),
(26,203,ls),
(-9,61,o),
(58,-10,o),
(167,-10,cs)
);
}
);
width = 608;
},
{
anchors = (
{
name = bottom;
pos = (202,0);
},
{
name = ogonek;
pos = (509,0);
},
{
name = top;
pos = (324,493);
},
{
name = topright;
pos = (405,493);
}
);
hints = (
{
horizontal = 1;
origin = (0,18);
target = (0,27);
type = Stem;
},
{
horizontal = 1;
place = (493,-20);
target = down;
type = TopGhost;
}
);
layerId = "138021A6-51CA-4FC2-BD69-BE801B30E3F7";
shapes = (
{
closed = 1;
nodes = (
(232,-10,o),
(317,11,o),
(357,125,c),
(316,108,l),
(315,30,o),
(352,0,o),
(443,0,cs),
(509,0,l),
(540,124,l),
(492,124,ls),
(475,124,o),
(467,128,o),
(471,144,cs),
(556,493,l),
(405,493,l),
(329,187,ls),
(319,150,o),
(288,126,o),
(250,126,cs),
(205,126,o),
(182,156,o),
(193,201,cs),
(264,493,l),
(113,493,l),
(40,196,ls),
(10,74,o),
(64,-10,o),
(181,-10,cs)
);
}
);
width = 591;
}
);
unicode = 117;
},
{
color = 8;
glyphname = uhorn;
kernLeft = u;
kernRight = uhorn;
lastChange = "2025-08-06 22:17:44 +0000";
layers = (
{
anchors = (
{
name = bottom;
pos = (183,0);
},
{
name = top;
pos = (299,472);
}
);
layerId = "590A0C71-EA88-4A1F-B6FA-52B0DDF92252";
shapes = (
{
closed = 1;
nodes = (
(267,-10,o),
(317,19,o),
(357,85,c),
(352,86,l),
(344,33,o),
(374,0,o),
(431,0,cs),
(453,0,l),
(460,27,l),
(435,27,ls),
(394,27,o),
(374,54,o),
(384,95,cs),
(473,460,l),
(460,447,l),
(550,444,o),
(592,497,o),
(590,589,c),
(564,589,l),
(565,514,o),
(540,472,o),
(475,472,cs),
(448,472,l),
(374,171,l),
(344,74,o),
(292,18,o),
(208,18,cs),
(108,18,o),
(72,91,o),
(99,201,cs),
(165,472,l),
(136,472,l),
(70,203,ls),
(39,77,o),
(88,-10,o),
(203,-10,cs)
);
}
);
width = 521;
},
{
anchors = (
{
name = bottom;
pos = (207,0);
},
{
name = top;
pos = (339,502);
}
);
hints = (
{
horizontal = 1;
place = (-10,182);
target = (0,26);
type = Stem;
},
{
horizontal = 1;
place = (502,-20);
target = down;
type = TopGhost;
}
);
layerId = "E84899BD-5F2A-4806-8411-3A23E0ED2668";
shapes = (
{
closed = 1;
nodes = (
(241,-10,o),
(307,36,o),
(340,115,c),
(299,109,l),
(302,38,o),
(356,0,o),
(452,0,cs),
(525,0,l),
(567,168,l),
(520,168,ls),
(509,168,o),
(506,171,o),
(508,181,cs),
(582,481,l),
(488,374,l),
(632,395,o),
(679,475,o),
(678,596,c),
(504,596,l),
(506,524,o),
(471,502,o),
(422,502,cs),
(390,502,l),
(323,229,ls),
(313,188,o),
(293,172,o),
(266,172,cs),
(234,172,o),
(220,188,o),
(230,229,cs),
(297,502,l),
(100,502,l),
(26,203,ls),
(-9,61,o),
(58,-10,o),
(164,-10,cs)
);
}
);
width = 610;
},
{
anchors = (
{
name = bottom;
pos = (201,0);
},
{
name = top;
pos = (322,493);
}
);
hints = (
{
horizontal = 1;
origin = (0,26);
target = (0,35);
type = Stem;
},
{
horizontal = 1;
place = (493,-20);
target = down;
type = TopGhost;
}
);
layerId = "138021A6-51CA-4FC2-BD69-BE801B30E3F7";
shapes = (
{
closed = 1;
nodes = (
(226,-10,o),
(302,9,o),
(344,98,c),
(314,98,l),
(315,28,o),
(353,0,o),
(438,0,cs),
(505,0,l),
(536,124,l),
(488,124,ls),
(469,124,o),
(464,129,o),
(467,142,cs),
(547,471,l),
(478,395,l),
(594,409,o),
(645,482,o),
(646,601,c),
(513,601,l),
(514,524,o),
(484,493,o),
(433,493,cs),
(402,493,l),
(327,190,ls),
(318,152,o),
(286,126,o),
(248,126,cs),
(203,126,o),
(181,154,o),
(191,197,cs),
(264,493,l),
(113,493,l),
(40,196,ls),
(10,74,o),
(64,-10,o),
(180,-10,cs)
);
}
);
width = 592;
}
);
unicode = 432;
},
{
glyphname = v;
lastChange = "2025-08-06 22:17:50 +0000";
layers = (
{
layerId = "590A0C71-EA88-4A1F-B6FA-52B0DDF92252";
shapes = (
{
closed = 1;
nodes = (
(180,0,l),
(482,472,l),
(449,472,l),
(162,22,l),
(174,22,l),
(106,472,l),
(78,472,l),
(149,0,l)
);
}
);
width = 445;
},
{
hints = (
{
horizontal = 1;
origin = (0,6);
target = down;
type = TopGhost;
},
{
horizontal = 1;
origin = (0,7);
target = up;
type = BottomGhost;
}
);
layerId = "E84899BD-5F2A-4806-8411-3A23E0ED2668";
shapes = (
{
closed = 1;
nodes = (
(312,0,l),
(603,502,l),
(374,502,l),
(180,129,l),
(265,129,l),
(256,502,l),
(55,502,l),
(100,0,l)
);
}
);
width = 534;
},
{
hints = (
{
horizontal = 1;
origin = (0,7);
target = up;
type = BottomGhost;
},
{
horizontal = 1;
origin = (0,6);
target = down;
type = TopGhost;
}
);
layerId = "138021A6-51CA-4FC2-BD69-BE801B30E3F7";
shapes = (
{
closed = 1;
nodes = (
(272,0,l),
(566,493,l),
(400,493,l),
(177,97,l),
(234,97,l),
(207,493,l),
(61,493,l),
(114,0,l)
);
}
);
width = 506;
}
);
unicode = 118;
},
{
glyphname = w;
kernLeft = w;
kernRight = w;
lastChange = "2025-08-06 22:17:53 +0000";
layers = (
{
anchors = (
{
name = top;
pos = (391,472);
}
);
layerId = "590A0C71-EA88-4A1F-B6FA-52B0DDF92252";
shapes = (
{
closed = 1;
nodes = (
(149,0,l),
(390,452,l),
(381,452,l),
(401,0,l),
(432,0,l),
(699,472,l),
(668,472,l),
(417,26,l),
(424,25,l),
(405,472,l),
(373,472,l),
(134,23,l),
(141,24,l),
(111,472,l),
(83,472,l),
(118,0,l)
);
}
);
width = 666;
},
{
anchors = (
{
name = top;
pos = (458,502);
}
);
hints = (
{
horizontal = 1;
origin = (0,15);
target = up;
type = BottomGhost;
},
{
horizontal = 1;
origin = (0,14);
target = down;
type = TopGhost;
}
);
layerId = "E84899BD-5F2A-4806-8411-3A23E0ED2668";
shapes = (
{
closed = 1;
nodes = (
(276,0,l),
(480,466,l),
(409,466,l),
(383,0,l),
(624,0,l),
(856,502,l),
(644,502,l),
(492,120,l),
(532,122,l),
(553,502,l),
(350,502,l),
(184,123,l),
(223,121,l),
(258,502,l),
(63,502,l),
(47,0,l)
);
}
);
width = 794;
},
{
anchors = (
{
name = top;
pos = (432,493);
}
);
hints = (
{
horizontal = 1;
origin = (0,15);
target = up;
type = BottomGhost;
},
{
horizontal = 1;
origin = (0,14);
target = down;
type = TopGhost;
}
);
layerId = "138021A6-51CA-4FC2-BD69-BE801B30E3F7";
shapes = (
{
closed = 1;
nodes = (
(243,0,l),
(449,462,l),
(396,462,l),
(374,0,l),
(554,0,l),
(788,493,l),
(630,493,l),
(458,92,l),
(488,93,l),
(506,493,l),
(347,493,l),
(167,93,l),
(197,92,l),
(223,493,l),
(77,493,l),
(67,0,l)
);
}
);
width = 745;
}
);
unicode = 119;
},
{
glyphname = x;
lastChange = "2025-08-06 22:17:57 +0000";
layers = (
{
layerId = "590A0C71-EA88-4A1F-B6FA-52B0DDF92252";
shapes = (
{
closed = 1;
nodes = (
(3,0,l),
(205,214,l),
(304,0,l),
(336,0,l),
(225,233,l),
(448,472,l),
(412,472,l),
(213,256,l),
(117,472,l),
(86,472,l),
(193,238,l),
(-35,0,l)
);
}
);
width = 417;
},
{
hints = (
{
horizontal = 1;
origin = (0,0);
target = up;
type = BottomGhost;
},
{
horizontal = 1;
origin = (0,9);
target = down;
type = TopGhost;
}
);
layerId = "E84899BD-5F2A-4806-8411-3A23E0ED2668";
shapes = (
{
closed = 1;
nodes = (
(175,0,l),
(239,102,l),
(269,0,l),
(491,0,l),
(397,241,l),
(608,502,l),
(357,502,l),
(296,392,l),
(266,502,l),
(53,502,l),
(143,257,l),
(-68,0,l)
);
}
);
width = 540;
},
{
hints = (
{
horizontal = 1;
origin = (0,0);
target = up;
type = BottomGhost;
},
{
horizontal = 1;
origin = (0,9);
target = down;
type = TopGhost;
}
);
layerId = "138021A6-51CA-4FC2-BD69-BE801B30E3F7";
shapes = (
{
closed = 1;
nodes = (
(124,0,l),
(230,143,l),
(273,0,l),
(435,0,l),
(349,226,l),
(575,493,l),
(386,493,l),
(281,348,l),
(242,493,l),
(83,493,l),
(165,267,l),
(-64,0,l)
);
}
);
width = 512;
}
);
unicode = 120;
},
{
glyphname = y;
kernLeft = y;
kernRight = y;
lastChange = "2025-08-06 22:18:43 +0000";
layers = (
{
anchors = (
{
name = bottom;
pos = (122,-200);
},
{
name = top;
pos = (289,472);
}
);
background = {
anchors = (
{
name = bottom;
pos = (127,-200);
},
{
name = top;
pos = (294,472);
}
);
shapes = (
{
closed = 1;
nodes = (
(207,-200,ls),
(271,-200,o),
(324,-158,o),
(340,-94,cs),
(479,472,l),
(451,472,l),
(385,201,ls),
(357,86,o),
(300,18,o),
(208,18,cs),
(117,18,o),
(74,88,o),
(100,192,cs),
(168,472,l),
(139,472,l),
(71,194,ls),
(40,72,o),
(93,-10,o),
(202,-10,cs),
(273,-10,o),
(322,21,o),
(366,96,c),
(359,100,l),
(312,-90,ls),
(300,-137,o),
(256,-173,o),
(209,-173,cs),
(-2,-173,l),
(-9,-200,l)
);
}
);
};
layerId = "590A0C71-EA88-4A1F-B6FA-52B0DDF92252";
shapes = (
{
closed = 1;
nodes = (
(202,-200,ls),
(266,-200,o),
(319,-158,o),
(335,-94,cs),
(474,472,l),
(446,472,l),
(380,201,ls),
(352,86,o),
(295,18,o),
(203,18,cs),
(112,18,o),
(69,88,o),
(95,192,cs),
(163,472,l),
(134,472,l),
(66,194,ls),
(35,72,o),
(88,-10,o),
(197,-10,cs),
(268,-10,o),
(317,21,o),
(361,96,c),
(354,100,l),
(307,-90,ls),
(295,-137,o),
(251,-173,o),
(204,-173,cs),
(-7,-173,l),
(-14,-200,l)
);
}
);
width = 503;
},
{
anchors = (
{
name = bottom;
pos = (160,-200);
},
{
name = top;
pos = (339,502);
}
);
background = {
anchors = (
{
name = bottom;
pos = (164,-200);
},
{
name = top;
pos = (343,502);
}
);
shapes = (
{
closed = 1;
nodes = (
(235,-200,ls),
(360,-200,o),
(439,-146,o),
(466,-37,cs),
(599,502,l),
(398,502,l),
(338,258,ls),
(329,221,o),
(310,202,o),
(281,202,cs),
(246,202,o),
(232,221,o),
(242,259,cs),
(301,502,l),
(99,502,l),
(33,232,ls),
(-2,89,o),
(78,20,o),
(189,20,cs),
(258,20,o),
(310,61,o),
(347,126,c),
(322,162,l),
(276,-20,ls),
(274,-28,o),
(266,-34,o),
(253,-34,cs),
(7,-34,l),
(-34,-200,l)
);
}
);
};
hints = (
{
horizontal = 1;
origin = (0,14);
target = down;
type = TopGhost;
},
{
horizontal = 1;
place = (-200,166);
target = (0,26);
type = Stem;
},
{
horizontal = 1;
origin = (0,18);
target = (0,9);
type = Stem;
}
);
layerId = "E84899BD-5F2A-4806-8411-3A23E0ED2668";
shapes = (
{
closed = 1;
nodes = (
(231,-200,ls),
(356,-200,o),
(435,-146,o),
(462,-37,cs),
(595,502,l),
(394,502,l),
(334,258,ls),
(325,221,o),
(306,202,o),
(277,202,cs),
(242,202,o),
(228,221,o),
(238,259,cs),
(297,502,l),
(95,502,l),
(29,232,ls),
(-6,89,o),
(74,20,o),
(185,20,cs),
(254,20,o),
(306,61,o),
(343,126,c),
(318,162,l),
(272,-20,ls),
(270,-28,o),
(262,-34,o),
(249,-34,cs),
(3,-34,l),
(-38,-200,l)
);
}
);
width = 578;
},
{
anchors = (
{
name = bottom;
pos = (141,-200);
},
{
name = top;
pos = (313,493);
}
);
background = {
anchors = (
{
name = bottom;
pos = (145,-200);
},
{
name = top;
pos = (317,493);
}
);
shapes = (
{
closed = 1;
nodes = (
(216,-200,ls),
(325,-200,o),
(397,-151,o),
(421,-53,cs),
(555,493,l),
(405,493,l),
(335,210,ls),
(326,172,o),
(293,146,o),
(254,146,cs),
(209,146,o),
(186,173,o),
(198,223,cs),
(264,493,l),
(114,493,l),
(46,218,ls),
(15,93,o),
(71,10,o),
(186,10,cs),
(242,10,o),
(301,28,o),
(352,120,c),
(319,120,l),
(275,-57,ls),
(272,-69,o),
(264,-76,o),
(244,-76,cs),
(15,-76,l),
(-16,-200,l)
);
}
);
};
hints = (
{
horizontal = 1;
origin = (0,14);
target = down;
type = TopGhost;
},
{
horizontal = 1;
origin = (0,18);
target = (0,9);
type = Stem;
},
{
horizontal = 1;
origin = (0,28);
target = (0,27);
type = Stem;
}
);
layerId = "138021A6-51CA-4FC2-BD69-BE801B30E3F7";
shapes = (
{
closed = 1;
nodes = (
(212,-200,ls),
(321,-200,o),
(393,-151,o),
(417,-53,cs),
(551,493,l),
(401,493,l),
(331,210,ls),
(322,172,o),
(289,146,o),
(250,146,cs),
(205,146,o),
(182,173,o),
(194,223,cs),
(260,493,l),
(110,493,l),
(42,218,ls),
(11,93,o),
(72,10,o),
(187,10,cs),
(243,10,o),
(302,28,o),
(353,120,c),
(315,120,l),
(271,-57,ls),
(268,-69,o),
(260,-76,o),
(240,-76,cs),
(11,-76,l),
(-20,-200,l)
);
}
);
width = 551;
}
);
unicode = 121;
},
{
glyphname = z;
kernLeft = z;
kernRight = z;
lastChange = "2025-08-06 22:19:25 +0000";
layers = (
{
anchors = (
{
name = top;
pos = (250,472);
}
);
layerId = "590A0C71-EA88-4A1F-B6FA-52B0DDF92252";
shapes = (
{
closed = 1;
nodes = (
(292,0,l),
(299,27,l),
(8,27,l),
(14,20,l),
(400,445,l),
(407,472,l),
(97,472,l),
(90,444,l),
(377,444,l),
(370,452,l),
(-16,26,l),
(-22,0,l)
);
}
);
width = 386;
},
{
anchors = (
{
name = top;
pos = (299,502);
}
);
hints = (
{
horizontal = 1;
origin = (0,6);
target = (0,8);
type = Stem;
},
{
horizontal = 1;
origin = (0,11);
target = (0,2);
type = Stem;
}
);
layerId = "E84899BD-5F2A-4806-8411-3A23E0ED2668";
shapes = (
{
closed = 1;
nodes = (
(384,0,l),
(427,168,l),
(153,168,l),
(184,96,l),
(458,349,l),
(496,502,l),
(93,502,l),
(51,334,l),
(313,334,l),
(277,411,l),
(3,150,l),
(-34,0,l)
);
}
);
width = 468;
},
{
anchors = (
{
name = top;
pos = (291,493);
}
);
hints = (
{
horizontal = 1;
origin = (0,11);
target = (0,2);
type = Stem;
},
{
horizontal = 1;
origin = (0,6);
target = (0,8);
type = Stem;
}
);
layerId = "138021A6-51CA-4FC2-BD69-BE801B30E3F7";
shapes = (
{
closed = 1;
nodes = (
(363,0,l),
(395,130,l),
(114,130,l),
(149,73,l),
(447,378,l),
(476,493,l),
(101,493,l),
(68,362,l),
(339,362,l),
(301,423,l),
(4,113,l),
(-24,0,l)
);
}
);
width = 457;
}
);
unicode = 122;
},
{
glyphname = k.ss01;
kernLeft = h;
kernRight = k.ss01;
lastChange = "2025-08-06 22:19:47 +0000";
layers = (
{
anchors = (
{
name = bottom;
pos = (179,0);
}
);
layerId = "590A0C71-EA88-4A1F-B6FA-52B0DDF92252";
shapes = (
{
closed = 1;
nodes = (
(56,0,l),
(104,189,ls),
(147,358,o),
(231,454,o),
(333,454,cs),
(385,454,o),
(416,428,o),
(416,381,cs),
(416,312,o),
(339,247,o),
(220,223,c),
(280,64,ls),
(296,21,o),
(319,0,o),
(355,0,cs),
(387,0,l),
(394,27,l),
(359,27,ls),
(331,27,o),
(320,41,o),
(309,69,cs),
(251,217,l),
(245,203,l),
(367,228,o),
(444,304,o),
(444,383,cs),
(444,444,o),
(403,482,o),
(335,482,cs),
(255,482,o),
(181,427,o),
(128,307,c),
(128,295,l),
(236,730,l),
(207,730,l),
(27,0,l)
);
}
);
width = 471;
},
{
anchors = (
{
name = bottom;
pos = (218,0);
}
);
hints = (
{
horizontal = 1;
place = (730,-20);
target = down;
type = TopGhost;
},
{
horizontal = 1;
origin = (0,15);
target = (0,17);
type = Stem;
},
{
horizontal = 1;
origin = (0,28);
target = (0,4);
type = Stem;
}
);
layerId = "E84899BD-5F2A-4806-8411-3A23E0ED2668";
shapes = (
{
closed = 1;
nodes = (
(183,0,l),
(235,212,ls),
(252,280,o),
(291,336,o),
(351,336,cs),
(374,336,o),
(385,323,o),
(385,309,cs),
(385,263,o),
(311,230,o),
(251,209,c),
(273,119,ls),
(295,33,o),
(338,0,o),
(427,0,cs),
(495,0,l),
(537,168,l),
(468,168,ls),
(462,168,o),
(459,171,o),
(458,176,cs),
(441,242,l),
(419,175,l),
(517,210,o),
(586,290,o),
(586,382,cs),
(586,460,o),
(529,512,o),
(444,512,cs),
(372,512,o),
(303,478,o),
(266,426,c),
(288,426,l),
(363,730,l),
(161,730,l),
(-19,0,l)
);
}
);
width = 586;
},
{
anchors = (
{
name = bottom;
pos = (209,0);
}
);
background = {
anchors = (
{
name = bottom;
pos = (209,0);
}
);
shapes = (
{
closed = 1;
nodes = (
(148,0,l),
(210,248,ls),
(229,324,o),
(283,373,o),
(338,373,cs),
(361,373,o),
(376,359,o),
(376,338,cs),
(376,284,o),
(292,249,o),
(226,226,c),
(262,102,ls),
(284,26,o),
(315,0,o),
(381,0,cs),
(467,0,l),
(498,124,l),
(436,124,ls),
(426,124,o),
(421,129,o),
(418,137,cs),
(378,255,l),
(362,176,l),
(428,197,o),
(526,266,o),
(526,384,cs),
(526,455,o),
(476,503,o),
(395,503,cs),
(323,503,o),
(258,466,o),
(223,404,c),
(241,374,l),
(328,730,l),
(178,730,l),
(-2,0,l)
);
}
);
};
hints = (
{
horizontal = 1;
place = (730,-20);
target = down;
type = TopGhost;
},
{
horizontal = 1;
origin = (0,15);
target = (0,16);
type = Stem;
},
{
horizontal = 1;
origin = (0,28);
target = (0,4);
type = Stem;
}
);
layerId = "138021A6-51CA-4FC2-BD69-BE801B30E3F7";
shapes = (
{
closed = 1;
nodes = (
(148,0,l),
(210,248,ls),
(229,324,o),
(283,373,o),
(338,373,cs),
(361,373,o),
(376,359,o),
(376,338,cs),
(376,284,o),
(292,249,o),
(226,226,c),
(262,102,ls),
(284,26,o),
(315,0,o),
(381,0,cs),
(467,0,l),
(498,124,l),
(436,124,ls),
(426,124,o),
(421,129,o),
(418,137,cs),
(378,255,l),
(362,176,l),
(428,197,o),
(526,266,o),
(526,384,cs),
(526,455,o),
(476,503,o),
(395,503,cs),
(323,503,o),
(258,466,o),
(223,404,c),
(241,374,l),
(328,730,l),
(178,730,l),
(-2,0,l)
);
}
);
width = 557;
}
);
},
{
glyphname = fi;
kernLeft = f;
kernRight = i;
lastChange = "2025-08-06 22:20:08 +0000";
layers = (
{
anchors = (
{
name = caret_1;
pos = (200,0);
}
);
layerId = "590A0C71-EA88-4A1F-B6FA-52B0DDF92252";
shapes = (
{
closed = 1;
nodes = (
(-81,-200,ls),
(-17,-200,o),
(37,-158,o),
(52,-94,cs),
(228,620,ls),
(240,670,o),
(281,703,o),
(331,703,cs),
(402,703,l),
(409,730,l),
(333,730,ls),
(269,730,o),
(215,688,o),
(200,624,cs),
(24,-90,ls),
(12,-140,o),
(-29,-173,o),
(-79,-173,cs),
(-140,-173,l),
(-147,-200,l)
);
},
{
closed = 1;
nodes = (
(437,0,l),
(444,27,l),
(419,27,ls),
(378,27,o),
(358,54,o),
(368,95,cs),
(460,472,l),
(76,472,l),
(69,444,l),
(438,444,l),
(428,457,l),
(339,100,ls),
(324,40,o),
(354,0,o),
(415,0,cs)
);
},
{
closed = 1;
nodes = (
(489,590,l),
(512,683,l),
(483,683,l),
(460,590,l)
);
}
);
width = 503;
},
{
anchors = (
{
name = caret_1;
pos = (282,0);
}
);
hints = (
{
horizontal = 1;
origin = (1,7);
target = (1,9);
type = Stem;
},
{
horizontal = 1;
origin = (2,2);
target = (2,3);
type = Stem;
},
{
horizontal = 1;
origin = (1,0);
target = (1,1);
type = Stem;
}
);
layerId = "E84899BD-5F2A-4806-8411-3A23E0ED2668";
shapes = (
{
closed = 1;
nodes = (
(-4,-200,ls),
(115,-200,o),
(190,-145,o),
(216,-40,cs),
(361,550,ls),
(363,558,o),
(371,564,o),
(379,564,cs),
(428,564,l),
(469,730,l),
(384,730,ls),
(265,730,o),
(190,676,o),
(164,570,cs),
(19,-20,ls),
(17,-28,o),
(9,-34,o),
(1,-34,cs),
(-62,-34,l),
(-103,-200,l)
);
},
{
closed = 1;
nodes = (
(581,0,l),
(623,168,l),
(586,168,ls),
(575,168,o),
(572,172,o),
(575,182,cs),
(654,502,l),
(87,502,l),
(45,334,l),
(501,334,l),
(432,424,l),
(369,165,ls),
(344,58,o),
(398,0,o),
(513,0,cs)
);
},
{
closed = 1;
nodes = (
(682,564,l),
(723,730,l),
(518,730,l),
(477,564,l)
);
}
);
width = 664;
},
{
anchors = (
{
name = caret_1;
pos = (265,0);
}
);
hints = (
{
horizontal = 1;
origin = (1,7);
target = (1,9);
type = Stem;
},
{
horizontal = 1;
origin = (2,2);
target = (2,3);
type = Stem;
},
{
horizontal = 1;
origin = (1,0);
target = (1,2);
type = Stem;
}
);
layerId = "138021A6-51CA-4FC2-BD69-BE801B30E3F7";
shapes = (
{
closed = 1;
nodes = (
(-25,-200,ls),
(83,-200,o),
(150,-150,o),
(174,-53,cs),
(332,586,ls),
(336,601,o),
(342,606,o),
(357,606,cs),
(421,606,l),
(452,730,l),
(380,730,ls),
(272,730,o),
(205,680,o),
(181,583,cs),
(23,-56,ls),
(19,-71,o),
(13,-76,o),
(-2,-76,cs),
(-79,-76,l),
(-110,-200,l)
);
},
{
closed = 1;
nodes = (
(539,0,l),
(570,124,l),
(523,124,ls),
(508,124,o),
(504,129,o),
(508,144,cs),
(594,493,l),
(90,493,l),
(59,367,l),
(480,367,l),
(430,434,l),
(363,165,ls),
(336,56,o),
(380,0,o),
(493,0,cs)
);
},
{
closed = 1;
nodes = (
(625,582,l),
(662,730,l),
(496,730,l),
(459,582,l)
);
}
);
width = 625;
}
);
unicode = 64257;
},
{
glyphname = fl;
kernLeft = f;
kernRight = l;
lastChange = "2025-08-06 23:39:17 +0000";
layers = (
{
anchors = (
{
name = caret_1;
pos = (200,0);
}
);
layerId = "590A0C71-EA88-4A1F-B6FA-52B0DDF92252";
shapes = (
{
closed = 1;
nodes = (
(437,444,l),
(444,472,l),
(76,472,l),
(69,444,l)
);
},
{
closed = 1;
nodes = (
(454,0,l),
(461,27,l),
(424,27,ls),
(379,27,o),
(354,60,o),
(365,105,cs),
(519,730,l),
(491,730,l),
(337,105,ls),
(322,44,o),
(355,0,o),
(416,0,cs)
);
},
{
closed = 1;
nodes = (
(-81,-200,ls),
(-17,-200,o),
(37,-158,o),
(52,-94,cs),
(228,620,ls),
(240,670,o),
(281,703,o),
(331,703,cs),
(402,703,l),
(409,730,l),
(333,730,ls),
(269,730,o),
(215,688,o),
(200,624,cs),
(24,-90,ls),
(12,-140,o),
(-29,-173,o),
(-79,-173,cs),
(-140,-173,l),
(-147,-200,l)
);
}
);
width = 519;
},
{
anchors = (
{
name = caret_1;
pos = (284,0);
}
);
hints = (
{
horizontal = 1;
origin = (1,11);
target = (1,2);
type = Stem;
},
{
horizontal = 1;
origin = (0,2);
target = (0,3);
type = Stem;
},
{
horizontal = 1;
origin = (2,9);
target = (2,8);
type = Stem;
}
);
layerId = "E84899BD-5F2A-4806-8411-3A23E0ED2668";
shapes = (
{
closed = 1;
nodes = (
(524,334,l),
(566,502,l),
(87,502,l),
(45,334,l)
);
},
{
closed = 1;
nodes = (
(598,0,l),
(639,166,l),
(592,166,ls),
(584,166,o),
(580,172,o),
(582,180,cs),
(717,730,l),
(515,730,l),
(376,165,ls),
(353,71,o),
(415,0,o),
(520,0,cs)
);
},
{
closed = 1;
nodes = (
(-4,-200,ls),
(115,-200,o),
(190,-145,o),
(216,-40,cs),
(361,548,ls),
(363,556,o),
(371,562,o),
(379,562,cs),
(428,562,l),
(469,730,l),
(384,730,ls),
(265,730,o),
(190,676,o),
(164,570,cs),
(19,-20,ls),
(17,-28,o),
(9,-34,o),
(1,-34,cs),
(-62,-34,l),
(-103,-200,l)
);
}
);
width = 677;
},
{
anchors = (
{
name = caret_1;
pos = (256,0);
}
);
hints = (
{
horizontal = 1;
origin = (1,11);
target = (1,2);
type = Stem;
},
{
horizontal = 1;
origin = (0,2);
target = (0,3);
type = Stem;
},
{
horizontal = 1;
origin = (2,9);
target = (2,8);
type = Stem;
}
);
layerId = "138021A6-51CA-4FC2-BD69-BE801B30E3F7";
shapes = (
{
closed = 1;
nodes = (
(495,367,l),
(526,493,l),
(90,493,l),
(59,367,l)
);
},
{
closed = 1;
nodes = (
(552,0,l),
(583,124,l),
(526,124,ls),
(511,124,o),
(507,129,o),
(511,144,cs),
(655,730,l),
(505,730,l),
(361,147,ls),
(339,54,o),
(387,0,o),
(486,0,cs)
);
},
{
closed = 1;
nodes = (
(-25,-200,ls),
(83,-200,o),
(150,-150,o),
(174,-53,cs),
(332,584,ls),
(336,599,o),
(342,604,o),
(357,604,cs),
(427,604,l),
(458,730,l),
(380,730,ls),
(272,730,o),
(205,680,o),
(181,583,cs),
(23,-56,ls),
(19,-71,o),
(13,-76,o),
(-2,-76,cs),
(-79,-76,l),
(-110,-200,l)
);
}
);
width = 635;
}
);
unicode = 64258;
},
{
glyphname = ordfeminine;
kernLeft = ordmasculine;
lastChange = "2025-08-04 14:44:36 +0000";
layers = (
{
layerId = "590A0C71-EA88-4A1F-B6FA-52B0DDF92252";
shapes = (
{
closed = 1;
nodes = (
(294,361,o),
(342,393,o),
(365,440,c),
(361,442,l),
(350,398,o),
(369,368,o),
(416,368,cs),
(433,368,l),
(440,394,l),
(421,394,ls),
(394,394,o),
(381,410,o),
(388,439,cs),
(452,700,l),
(423,700,l),
(398,599,l),
(403,602,l),
(395,669,o),
(353,707,o),
(294,707,cs),
(201,707,o),
(123,618,o),
(123,496,cs),
(123,403,o),
(182,361,o),
(243,361,cs)
);
},
{
closed = 1;
nodes = (
(202,387,o),
(152,419,o),
(152,501,cs),
(152,603,o),
(216,680,o),
(296,680,cs),
(353,680,o),
(387,638,o),
(387,566,cs),
(387,487,o),
(338,387,o),
(249,387,cs)
);
}
);
userData = {
RMXScaler = {
adjustSpace = 13;
height = 70;
verticalShift = 368;
weight = 20;
width = 70;
};
};
width = 450;
},
{
layerId = "E84899BD-5F2A-4806-8411-3A23E0ED2668";
shapes = (
{
closed = 1;
nodes = (
(266,291,o),
(311,321,o),
(335,377,c),
(312,377,l),
(319,325,o),
(361,299,o),
(429,299,cs),
(482,299,l),
(515,429,l),
(484,429,ls),
(476,429,o),
(472,431,o),
(474,439,cs),
(538,700,l),
(382,700,l),
(365,634,l),
(385,637,l),
(372,681,o),
(342,708,o),
(283,708,cs),
(168,708,o),
(79,597,o),
(79,452,cs),
(79,330,o),
(145,291,o),
(216,291,cs)
);
},
{
closed = 1;
nodes = (
(256,432,o),
(236,448,o),
(236,481,cs),
(236,529,o),
(266,567,o),
(302,567,cs),
(327,567,o),
(346,552,o),
(346,517,cs),
(346,469,o),
(316,432,o),
(281,432,cs)
);
}
);
userData = {
RMXScaler = {
adjustSpace = 13;
height = 80;
verticalShift = 299;
weight = -220;
width = 80;
};
};
width = 494;
},
{
layerId = "138021A6-51CA-4FC2-BD69-BE801B30E3F7";
shapes = (
{
closed = 1;
nodes = (
(271,322,o),
(321,358,o),
(343,409,c),
(323,409,l),
(324,355,o),
(354,329,o),
(416,329,cs),
(460,329,l),
(485,429,l),
(450,429,ls),
(439,429,o),
(437,432,o),
(439,442,cs),
(503,700,l),
(383,700,l),
(362,619,l),
(388,634,l),
(373,681,o),
(339,708,o),
(286,708,cs),
(179,708,o),
(94,600,o),
(94,470,cs),
(94,356,o),
(154,322,o),
(218,322,cs)
);
},
{
closed = 1;
nodes = (
(238,429,o),
(214,442,o),
(214,496,cs),
(214,548,o),
(248,601,o),
(296,601,cs),
(332,601,o),
(346,576,o),
(346,538,cs),
(346,479,o),
(311,429,o),
(269,429,cs)
);
}
);
userData = {
RMXScaler = {
adjustSpace = 12;
height = 75;
verticalShift = 329;
weight = -170;
width = 75;
};
};
width = 474;
}
);
unicode = 170;
userData = {
RMXScaler = {
source = a;
};
};
},
{
glyphname = ordmasculine;
kernLeft = ordmasculine;
lastChange = "2025-08-04 14:44:36 +0000";
layers = (
{
layerId = "590A0C71-EA88-4A1F-B6FA-52B0DDF92252";
shapes = (
{
closed = 1;
nodes = (
(329,363,o),
(417,436,o),
(417,581,cs),
(417,658,o),
(368,709,o),
(297,709,cs),
(198,709,o),
(123,618,o),
(123,499,cs),
(123,404,o),
(183,363,o),
(245,363,cs)
);
},
{
closed = 1;
nodes = (
(199,390,o),
(152,420,o),
(152,501,cs),
(152,603,o),
(215,682,o),
(298,682,cs),
(351,682,o),
(388,641,o),
(388,580,cs),
(388,456,o),
(316,390,o),
(246,390,cs)
);
}
);
userData = {
RMXScaler = {
adjustSpace = 13;
height = 70;
verticalShift = 370;
weight = 20;
width = 70;
};
};
width = 397;
},
{
layerId = "E84899BD-5F2A-4806-8411-3A23E0ED2668";
shapes = (
{
closed = 1;
nodes = (
(377,291,o),
(500,358,o),
(500,531,cs),
(500,637,o),
(421,708,o),
(310,708,cs),
(174,708,o),
(79,611,o),
(79,469,cs),
(79,333,o),
(187,291,o),
(268,291,cs)
);
},
{
closed = 1;
nodes = (
(255,432,o),
(235,449,o),
(235,481,cs),
(235,529,o),
(265,567,o),
(301,567,cs),
(326,567,o),
(345,549,o),
(345,520,cs),
(345,462,o),
(311,432,o),
(279,432,cs)
);
}
);
userData = {
RMXScaler = {
adjustSpace = 13;
height = 80;
verticalShift = 299;
weight = -220;
width = 80;
};
};
width = 456;
},
{
layerId = "138021A6-51CA-4FC2-BD69-BE801B30E3F7";
shapes = (
{
closed = 1;
nodes = (
(360,322,o),
(466,394,o),
(466,548,cs),
(466,644,o),
(396,708,o),
(299,708,cs),
(185,708,o),
(95,615,o),
(95,488,cs),
(95,366,o),
(180,322,o),
(259,322,cs)
);
},
{
closed = 1;
nodes = (
(243,429,o),
(215,443,o),
(215,496,cs),
(215,553,o),
(252,601,o),
(296,601,cs),
(327,601,o),
(347,579,o),
(347,541,cs),
(347,473,o),
(308,429,o),
(268,429,cs)
);
}
);
userData = {
RMXScaler = {
adjustSpace = 12;
height = 75;
verticalShift = 329;
weight = -170;
width = 75;
};
};
width = 430;
}
);
unicode = 186;
userData = {
RMXScaler = {
source = o;
};
};
},
{
glyphname = zero;
lastChange = "2025-08-07 00:17:04 +0000";
layers = (
{
layerId = "590A0C71-EA88-4A1F-B6FA-52B0DDF92252";
shapes = (
{
closed = 1;
nodes = (
(424,-10,o),
(576,219,o),
(576,491,cs),
(576,629,o),
(512,710,o),
(406,710,cs),
(234,710,o),
(81,485,o),
(81,216,cs),
(81,73,o),
(146,-10,o),
(258,-10,cs)
);
},
{
closed = 1;
nodes = (
(166,18,o),
(111,93,o),
(111,220,cs),
(111,472,o),
(249,682,o),
(403,682,cs),
(492,682,o),
(547,609,o),
(547,485,cs),
(547,231,o),
(410,18,o),
(261,18,cs)
);
}
);
userData = {
RMXScaler = {
monoWidth = 600;
};
};
width = 600;
},
{
background = {
shapes = (
{
closed = 1;
nodes = (
(483,-11,o),
(617,191,o),
(617,459,cs),
(617,617,o),
(525,710,o),
(387,710,cs),
(170,710,o),
(33,508,o),
(33,249,cs),
(33,82,o),
(126,-11,o),
(266,-11,cs)
);
},
{
closed = 1;
nodes = (
(256,182,o),
(238,204,o),
(238,256,cs),
(238,396,o),
(297,518,o),
(364,518,cs),
(395,518,o),
(414,498,o),
(414,453,cs),
(414,306,o),
(355,182,o),
(288,182,cs)
);
}
);
};
hints = (
{
horizontal = 1;
origin = (0,11);
target = (1,11);
type = Stem;
},
{
horizontal = 1;
origin = (0,5);
target = (1,5);
type = Stem;
}
);
layerId = "E84899BD-5F2A-4806-8411-3A23E0ED2668";
shapes = (
{
closed = 1;
nodes = (
(483,-11,o),
(617,191,o),
(617,459,cs),
(617,617,o),
(525,710,o),
(387,710,cs),
(170,710,o),
(33,508,o),
(33,249,cs),
(33,82,o),
(126,-11,o),
(266,-11,cs)
);
},
{
closed = 1;
nodes = (
(256,182,o),
(238,204,o),
(238,256,cs),
(238,396,o),
(297,518,o),
(364,518,cs),
(395,518,o),
(414,498,o),
(414,453,cs),
(414,306,o),
(355,182,o),
(288,182,cs)
);
}
);
userData = {
RMXScaler = {
monoWidth = 600;
};
};
width = 600;
},
{
hints = (
{
horizontal = 1;
origin = (0,11);
target = (1,11);
type = Stem;
},
{
horizontal = 1;
origin = (0,5);
target = (1,5);
type = Stem;
}
);
layerId = "138021A6-51CA-4FC2-BD69-BE801B30E3F7";
shapes = (
{
closed = 1;
nodes = (
(451,-9,o),
(606,204,o),
(606,465,cs),
(606,619,o),
(521,709,o),
(388,709,cs),
(202,709,o),
(47,496,o),
(47,238,cs),
(47,82,o),
(132,-9,o),
(260,-9,cs)
);
},
{
closed = 1;
nodes = (
(232,133,o),
(205,170,o),
(205,241,cs),
(205,416,o),
(285,566,o),
(375,566,cs),
(421,566,o),
(447,531,o),
(447,461,cs),
(447,283,o),
(368,133,o),
(281,133,cs)
);
}
);
userData = {
RMXScaler = {
monoWidth = 600;
};
};
width = 600;
}
);
unicode = 48;
userData = {
RMXScaler = {
source = zero;
};
};
},
{
glyphname = one;
lastChange = "2025-08-07 00:17:18 +0000";
layers = (
{
layerId = "590A0C71-EA88-4A1F-B6FA-52B0DDF92252";
shapes = (
{
closed = 1;
nodes = (
(269,13,l),
(413,597,ls),
(427,659,o),
(396,700,o),
(334,700,cs),
(220,700,l),
(213,672,l),
(331,672,ls),
(377,672,o),
(395,645,o),
(382,593,cs),
(239,13,l)
);
},
{
closed = 1;
nodes = (
(463,0,l),
(470,28,l),
(46,28,l),
(39,0,l)
);
}
);
userData = {
RMXScaler = {
monoWidth = 600;
};
};
width = 600;
},
{
hints = (
{
horizontal = 1;
origin = (1,3);
target = (1,2);
type = Stem;
},
{
horizontal = 1;
origin = (0,5);
target = (0,7);
type = Stem;
}
);
layerId = "E84899BD-5F2A-4806-8411-3A23E0ED2668";
shapes = (
{
closed = 1;
nodes = (
(380,74,l),
(491,523,ls),
(517,629,o),
(463,700,o),
(355,700,cs),
(182,700,l),
(134,505,l),
(264,505,ls),
(272,505,o),
(277,499,o),
(275,491,cs),
(172,74,l)
);
},
{
closed = 1;
nodes = (
(496,0,l),
(544,195,l),
(58,195,l),
(10,0,l)
);
}
);
userData = {
RMXScaler = {
monoWidth = 600;
};
};
width = 600;
},
{
hints = (
{
horizontal = 1;
origin = (1,3);
target = (1,2);
type = Stem;
},
{
horizontal = 1;
origin = (0,5);
target = (0,7);
type = Stem;
}
);
layerId = "138021A6-51CA-4FC2-BD69-BE801B30E3F7";
shapes = (
{
closed = 1;
nodes = (
(352,56,l),
(476,561,ls),
(496,644,o),
(454,700,o),
(369,700,cs),
(195,700,l),
(159,555,l),
(308,555,ls),
(316,555,o),
(319,552,o),
(317,544,cs),
(197,56,l)
);
},
{
closed = 1;
nodes = (
(482,0,l),
(518,145,l),
(71,145,l),
(35,0,l)
);
}
);
userData = {
RMXScaler = {
source = one;
};
};
width = 600;
}
);
unicode = 49;
userData = {
RMXScaler = {
source = one;
};
};
},
{
glyphname = two;
lastChange = "2025-08-07 00:17:34 +0000";
layers = (
{
background = {
shapes = (
{
closed = 1;
nodes = (
(453,0,l),
(460,28,l),
(70,28,l),
(71,18,l),
(387,278,ls),
(494,366,o),
(559,442,o),
(559,544,cs),
(559,646,o),
(490,710,o),
(386,710,cs),
(298,710,o),
(220,666,o),
(170,586,c),
(191,569,l),
(234,640,o),
(305,681,o),
(386,681,cs),
(473,681,o),
(529,627,o),
(529,542,cs),
(529,447,o),
(462,377,o),
(370,301,cs),
(33,23,l),
(28,0,l)
);
}
);
};
layerId = "590A0C71-EA88-4A1F-B6FA-52B0DDF92252";
shapes = (
{
closed = 1;
nodes = (
(458,0,l),
(465,28,l),
(75,28,l),
(76,18,l),
(392,278,ls),
(499,366,o),
(564,442,o),
(564,544,cs),
(564,646,o),
(495,710,o),
(391,710,cs),
(303,710,o),
(225,666,o),
(175,586,c),
(196,569,l),
(239,640,o),
(310,681,o),
(391,681,cs),
(478,681,o),
(534,627,o),
(534,542,cs),
(534,447,o),
(467,377,o),
(375,301,cs),
(38,23,l),
(33,0,l)
);
}
);
userData = {
RMXScaler = {
monoWidth = 600;
useSpacing = 80;
};
};
width = 600;
},
{
hints = (
{
horizontal = 1;
origin = (0,25);
target = (0,2);
type = Stem;
},
{
horizontal = 1;
origin = (0,10);
target = (0,17);
type = Stem;
}
);
layerId = "E84899BD-5F2A-4806-8411-3A23E0ED2668";
shapes = (
{
closed = 1;
nodes = (
(503,0,l),
(551,195,l),
(270,195,l),
(277,127,l),
(437,248,ls),
(546,331,o),
(598,411,o),
(598,509,cs),
(598,633,o),
(510,710,o),
(366,710,cs),
(255,710,o),
(173,662,o),
(102,584,c),
(214,440,l),
(263,485,o),
(296,509,o),
(332,509,cs),
(357,509,o),
(372,496,o),
(372,473,cs),
(372,439,o),
(331,400,o),
(299,375,cs),
(27,157,l),
(-11,0,l)
);
}
);
userData = {
RMXScaler = {
monoWidth = 600;
useSpacing = 80;
};
};
width = 600;
},
{
hints = (
{
horizontal = 1;
origin = (0,25);
target = (0,2);
type = Stem;
},
{
horizontal = 1;
origin = (0,10);
target = (0,17);
type = Stem;
}
);
layerId = "138021A6-51CA-4FC2-BD69-BE801B30E3F7";
shapes = (
{
closed = 1;
nodes = (
(486,0,l),
(521,142,l),
(216,142,l),
(234,99,l),
(422,262,ls),
(512,340,o),
(581,421,o),
(581,524,cs),
(581,635,o),
(499,710,o),
(369,710,cs),
(273,710,o),
(190,666,o),
(118,593,c),
(204,483,l),
(256,535,o),
(300,561,o),
(347,561,cs),
(389,561,o),
(414,536,o),
(414,500,cs),
(414,448,o),
(358,387,o),
(316,352,cs),
(34,117,l),
(5,0,l)
);
}
);
userData = {
RMXScaler = {
monoWidth = 600;
};
};
width = 600;
}
);
unicode = 50;
userData = {
RMXScaler = {
source = two;
};
};
},
{
glyphname = three;
lastChange = "2025-08-07 00:17:55 +0000";
layers = (
{
background = {
shapes = (
{
closed = 1;
nodes = (
(384,-10,o),
(489,74,o),
(489,197,cs),
(489,288,o),
(429,358,o),
(302,358,c),
(301,345,l),
(437,345,o),
(557,420,o),
(557,550,cs),
(557,648,o),
(488,710,o),
(377,710,cs),
(289,710,o),
(226,674,o),
(186,643,c),
(199,620,l),
(228,644,o),
(293,682,o),
(376,682,cs),
(473,682,o),
(529,628,o),
(529,549,cs),
(529,439,o),
(426,368,o),
(300,368,cs),
(211,368,l),
(205,340,l),
(295,340,ls),
(405,340,o),
(461,273,o),
(461,194,cs),
(461,87,o),
(370,17,o),
(236,17,cs),
(139,17,o),
(80,55,o),
(53,91,c),
(31,70,l),
(63,29,o),
(132,-10,o),
(235,-10,cs)
);
}
);
};
layerId = "590A0C71-EA88-4A1F-B6FA-52B0DDF92252";
shapes = (
{
closed = 1;
nodes = (
(384,-10,o),
(489,74,o),
(489,197,cs),
(489,288,o),
(429,358,o),
(302,358,c),
(301,345,l),
(437,345,o),
(557,420,o),
(557,550,cs),
(557,648,o),
(488,710,o),
(377,710,cs),
(289,710,o),
(226,674,o),
(186,643,c),
(199,620,l),
(228,644,o),
(293,682,o),
(376,682,cs),
(473,682,o),
(529,628,o),
(529,549,cs),
(529,439,o),
(426,368,o),
(300,368,cs),
(211,368,l),
(205,340,l),
(295,340,ls),
(405,340,o),
(461,273,o),
(461,194,cs),
(461,87,o),
(370,17,o),
(236,17,cs),
(139,17,o),
(80,55,o),
(53,91,c),
(31,70,l),
(63,29,o),
(132,-10,o),
(235,-10,cs)
);
}
);
userData = {
RMXScaler = {
monoWidth = 600;
useSpacing = 68;
};
};
width = 600;
},
{
hints = (
{
horizontal = 1;
origin = (0,41);
target = (0,34);
type = Stem;
},
{
horizontal = 1;
origin = (0,28);
target = (0,26);
type = Stem;
},
{
horizontal = 1;
origin = (0,12);
target = (0,19);
type = Stem;
}
);
layerId = "E84899BD-5F2A-4806-8411-3A23E0ED2668";
shapes = (
{
closed = 1;
nodes = (
(421,-10,o),
(547,81,o),
(547,227,cs),
(547,306,o),
(506,354,o),
(421,371,c),
(403,316,l),
(535,328,o),
(605,411,o),
(605,520,cs),
(605,650,o),
(500,710,o),
(374,710,cs),
(282,710,o),
(198,680,o),
(106,613,c),
(195,460,l),
(254,509,o),
(304,529,o),
(345,529,cs),
(378,529,o),
(397,516,o),
(397,490,cs),
(397,458,o),
(369,437,o),
(326,437,cs),
(242,437,l),
(198,256,l),
(288,256,ls),
(325,256,o),
(341,241,o),
(341,219,cs),
(341,189,o),
(312,167,o),
(266,167,cs),
(215,167,o),
(175,192,o),
(141,235,c),
(5,107,l),
(64,40,o),
(155,-10,o),
(262,-10,cs)
);
}
);
userData = {
RMXScaler = {
monoWidth = 600;
useSpacing = 68;
};
};
width = 600;
},
{
hints = (
{
horizontal = 1;
origin = (0,41);
target = (0,34);
type = Stem;
},
{
horizontal = 1;
origin = (0,28);
target = (0,26);
type = Stem;
},
{
horizontal = 1;
origin = (0,12);
target = (0,19);
type = Stem;
}
);
layerId = "138021A6-51CA-4FC2-BD69-BE801B30E3F7";
shapes = (
{
closed = 1;
nodes = (
(414,-10,o),
(525,79,o),
(525,216,cs),
(525,288,o),
(495,335,o),
(419,368,c),
(417,327,l),
(549,352,o),
(585,461,o),
(585,525,cs),
(585,637,o),
(500,710,o),
(368,710,cs),
(286,710,o),
(202,680,o),
(130,628,c),
(196,516,l),
(241,552,o),
(296,575,o),
(345,575,cs),
(394,575,o),
(428,550,o),
(428,503,cs),
(428,452,o),
(386,416,o),
(325,416,cs),
(233,416,l),
(200,281,l),
(287,281,ls),
(337,281,o),
(370,252,o),
(370,212,cs),
(370,167,o),
(330,122,o),
(260,122,cs),
(205,122,o),
(161,146,o),
(127,201,c),
(21,103,l),
(65,31,o),
(150,-10,o),
(255,-10,cs)
);
}
);
userData = {
RMXScaler = {
monoWidth = 600;
};
};
width = 600;
}
);
unicode = 51;
userData = {
RMXScaler = {
source = three;
};
};
},
{
glyphname = four;
lastChange = "2025-08-07 00:18:08 +0000";
layers = (
{
layerId = "590A0C71-EA88-4A1F-B6FA-52B0DDF92252";
shapes = (
{
closed = 1;
nodes = (
(534,189,l),
(541,217,l),
(90,217,l),
(98,211,l),
(471,700,l),
(434,700,l),
(65,214,l),
(58,189,l)
);
},
{
closed = 1;
nodes = (
(364,0,l),
(468,422,l),
(440,422,l),
(336,0,l)
);
}
);
userData = {
RMXScaler = {
monoWidth = 600;
};
};
width = 600;
},
{
hints = (
{
horizontal = 1;
origin = (0,7);
target = (0,2);
type = Stem;
}
);
layerId = "E84899BD-5F2A-4806-8411-3A23E0ED2668";
shapes = (
{
closed = 1;
nodes = (
(556,126,l),
(602,313,l),
(179,313,l),
(227,248,l),
(484,700,l),
(261,700,l),
(30,301,l),
(-13,126,l)
);
},
{
closed = 1;
nodes = (
(454,0,l),
(560,432,l),
(365,432,l),
(259,0,l)
);
}
);
userData = {
RMXScaler = {
monoWidth = 600;
};
};
width = 600;
},
{
hints = (
{
horizontal = 1;
origin = (0,7);
target = (0,2);
type = Stem;
}
);
layerId = "138021A6-51CA-4FC2-BD69-BE801B30E3F7";
shapes = (
{
closed = 1;
nodes = (
(547,145,l),
(581,284,l),
(156,284,l),
(195,237,l),
(489,700,l),
(317,700,l),
(43,275,l),
(11,145,l)
);
},
{
closed = 1;
nodes = (
(426,0,l),
(537,450,l),
(385,450,l),
(274,0,l)
);
}
);
userData = {
RMXScaler = {
monoWidth = 600;
};
};
width = 600;
}
);
unicode = 52;
userData = {
RMXScaler = {
source = four;
};
};
},
{
glyphname = five;
lastChange = "2025-08-07 00:18:30 +0000";
layers = (
{
layerId = "590A0C71-EA88-4A1F-B6FA-52B0DDF92252";
shapes = (
{
closed = 1;
nodes = (
(398,-10,o),
(517,111,o),
(517,261,cs),
(517,371,o),
(455,436,o),
(350,436,cs),
(260,436,o),
(194,387,o),
(150,321,c),
(164,319,l),
(247,602,ls),
(259,643,o),
(301,672,o),
(346,672,cs),
(590,672,l),
(597,700,l),
(346,700,ls),
(286,700,o),
(236,662,o),
(221,611,cs),
(125,284,l),
(153,284,l),
(193,358,o),
(259,408,o),
(344,408,cs),
(434,408,o),
(487,353,o),
(487,260,cs),
(487,126,o),
(382,17,o),
(239,17,cs),
(164,17,o),
(95,45,o),
(61,91,c),
(39,70,l),
(74,22,o),
(154,-10,o),
(238,-10,cs)
);
}
);
userData = {
RMXScaler = {
monoWidth = 600;
useSpacing = 80;
};
};
width = 600;
},
{
hints = (
{
horizontal = 1;
origin = (0,37);
target = (0,30);
type = Stem;
},
{
horizontal = 1;
origin = (0,24);
target = (0,5);
type = Stem;
},
{
horizontal = 1;
origin = (0,16);
target = (0,13);
type = Stem;
}
);
layerId = "E84899BD-5F2A-4806-8411-3A23E0ED2668";
shapes = (
{
closed = 1;
nodes = (
(458,-10,o),
(560,129,o),
(560,267,cs),
(560,392,o),
(481,446,o),
(389,446,cs),
(311,446,o),
(257,404,o),
(230,340,c),
(287,340,l),
(328,503,ls),
(330,511,o),
(337,517,o),
(345,517,cs),
(596,517,l),
(641,700,l),
(320,700,ls),
(232,700,o),
(170,651,o),
(150,568,cs),
(78,264,l),
(243,264,l),
(258,277,o),
(273,285,o),
(292,285,cs),
(321,285,o),
(341,269,o),
(341,239,cs),
(341,199,o),
(303,168,o),
(251,168,cs),
(216,168,o),
(173,180,o),
(132,232,c),
(-6,103,l),
(56,13,o),
(173,-10,o),
(255,-10,cs)
);
}
);
userData = {
RMXScaler = {
monoWidth = 600;
useSpacing = 80;
};
};
width = 600;
},
{
hints = (
{
horizontal = 1;
origin = (0,37);
target = (0,30);
type = Stem;
},
{
horizontal = 1;
origin = (0,24);
target = (0,5);
type = Stem;
},
{
horizontal = 1;
origin = (0,16);
target = (0,14);
type = Stem;
}
);
layerId = "138021A6-51CA-4FC2-BD69-BE801B30E3F7";
shapes = (
{
closed = 1;
nodes = (
(423,-10,o),
(534,99,o),
(534,257,cs),
(534,373,o),
(469,443,o),
(364,443,cs),
(279,443,o),
(239,401,o),
(201,334,c),
(255,334,l),
(312,550,ls),
(314,556,o),
(319,561,o),
(326,561,cs),
(590,561,l),
(624,700,l),
(323,700,ls),
(249,700,o),
(194,658,o),
(175,583,cs),
(94,263,l),
(219,263,l),
(244,294,o),
(275,310,o),
(308,310,cs),
(351,310,o),
(375,283,o),
(375,238,cs),
(375,177,o),
(334,122,o),
(258,122,cs),
(205,122,o),
(161,148,o),
(126,201,c),
(19,102,l),
(68,29,o),
(149,-10,o),
(248,-10,cs)
);
}
);
userData = {
RMXScaler = {
monoWidth = 600;
};
};
width = 600;
}
);
unicode = 53;
userData = {
RMXScaler = {
source = five;
};
};
},
{
glyphname = six;
lastChange = "2025-08-07 00:18:42 +0000";
layers = (
{
background = {
shapes = (
{
closed = 1;
nodes = (
(409,-10,o),
(525,111,o),
(525,254,cs),
(525,374,o),
(453,446,o),
(339,446,cs),
(299,446,o),
(255,437,o),
(208,401,c),
(218,399,l),
(509,700,l),
(472,700,l),
(174,391,ls),
(105,319,o),
(75,249,o),
(75,178,cs),
(75,64,o),
(156,-10,o),
(275,-10,cs)
);
},
{
closed = 1;
nodes = (
(175,18,o),
(105,83,o),
(105,183,cs),
(105,309,o),
(212,419,o),
(335,419,cs),
(432,419,o),
(495,355,o),
(495,252,cs),
(495,125,o),
(394,18,o),
(277,18,cs)
);
}
);
};
layerId = "590A0C71-EA88-4A1F-B6FA-52B0DDF92252";
shapes = (
{
closed = 1;
nodes = (
(412,-10,o),
(528,111,o),
(528,254,cs),
(528,374,o),
(456,446,o),
(342,446,cs),
(302,446,o),
(258,437,o),
(211,401,c),
(221,399,l),
(512,700,l),
(475,700,l),
(177,391,ls),
(108,319,o),
(78,249,o),
(78,178,cs),
(78,64,o),
(159,-10,o),
(278,-10,cs)
);
},
{
closed = 1;
nodes = (
(178,18,o),
(108,83,o),
(108,183,cs),
(108,309,o),
(215,419,o),
(338,419,cs),
(435,419,o),
(498,355,o),
(498,252,cs),
(498,125,o),
(397,18,o),
(280,18,cs)
);
}
);
userData = {
RMXScaler = {
monoWidth = 600;
useSpacing = 80;
};
};
width = 600;
},
{
hints = (
{
horizontal = 1;
origin = (0,18);
target = (1,11);
type = Stem;
},
{
horizontal = 1;
origin = (1,5);
target = (0,5);
type = Stem;
},
{
horizontal = 1;
origin = (0,11);
target = down;
type = TopGhost;
}
);
layerId = "E84899BD-5F2A-4806-8411-3A23E0ED2668";
shapes = (
{
closed = 1;
nodes = (
(448,-10,o),
(578,109,o),
(578,267,cs),
(578,390,o),
(509,460,o),
(405,460,cs),
(347,460,o),
(295,437,o),
(234,386,c),
(326,386,l),
(650,700,l),
(367,700,l),
(183,503,ls),
(59,370,o),
(22,296,o),
(22,207,cs),
(22,63,o),
(126,-10,o),
(272,-10,cs)
);
},
{
closed = 1;
nodes = (
(258,173,o),
(237,195,o),
(237,227,cs),
(237,264,o),
(267,296,o),
(304,296,cs),
(339,296,o),
(361,274,o),
(361,241,cs),
(361,204,o),
(331,173,o),
(293,173,cs)
);
}
);
userData = {
RMXScaler = {
monoWidth = 600;
useSpacing = 80;
};
};
width = 600;
},
{
hints = (
{
horizontal = 1;
origin = (0,18);
target = (1,11);
type = Stem;
},
{
horizontal = 1;
origin = (1,5);
target = (0,5);
type = Stem;
},
{
horizontal = 1;
origin = (0,11);
target = down;
type = TopGhost;
}
);
layerId = "138021A6-51CA-4FC2-BD69-BE801B30E3F7";
shapes = (
{
closed = 1;
nodes = (
(434,-10,o),
(555,107,o),
(555,259,cs),
(555,377,o),
(479,463,o),
(372,463,cs),
(318,463,o),
(266,441,o),
(212,396,c),
(310,404,l),
(607,700,l),
(392,700,l),
(176,469,ls),
(95,382,o),
(41,304,o),
(41,205,cs),
(41,74,o),
(136,-10,o),
(274,-10,cs)
);
},
{
closed = 1;
nodes = (
(237,127,o),
(202,159,o),
(202,213,cs),
(202,280,o),
(249,333,o),
(309,333,cs),
(360,333,o),
(393,299,o),
(393,246,cs),
(393,179,o),
(346,127,o),
(286,127,cs)
);
}
);
userData = {
RMXScaler = {
monoWidth = 600;
};
};
width = 600;
}
);
unicode = 54;
userData = {
RMXScaler = {
source = six;
};
};
},
{
glyphname = seven;
lastChange = "2025-08-07 00:18:55 +0000";
layers = (
{
layerId = "590A0C71-EA88-4A1F-B6FA-52B0DDF92252";
shapes = (
{
closed = 1;
nodes = (
(131,0,l),
(637,680,l),
(642,700,l),
(187,700,l),
(180,672,l),
(611,672,l),
(605,682,l),
(93,0,l)
);
}
);
userData = {
RMXScaler = {
monoWidth = 600;
};
};
width = 600;
},
{
hints = (
{
horizontal = 1;
origin = (0,7);
target = up;
type = BottomGhost;
},
{
horizontal = 1;
origin = (0,3);
target = (0,4);
type = Stem;
}
);
layerId = "E84899BD-5F2A-4806-8411-3A23E0ED2668";
shapes = (
{
closed = 1;
nodes = (
(265,0,l),
(633,551,l),
(670,700,l),
(156,700,l),
(110,511,l),
(461,511,l),
(407,561,l),
(8,0,l)
);
}
);
userData = {
RMXScaler = {
monoWidth = 600;
};
};
width = 600;
},
{
hints = (
{
horizontal = 1;
origin = (0,7);
target = up;
type = BottomGhost;
},
{
horizontal = 1;
origin = (0,3);
target = (0,5);
type = Stem;
}
);
layerId = "138021A6-51CA-4FC2-BD69-BE801B30E3F7";
shapes = (
{
closed = 1;
nodes = (
(230,0,l),
(631,590,l),
(658,700,l),
(172,700,l),
(137,559,l),
(501,559,l),
(463,597,l),
(38,0,l)
);
}
);
userData = {
RMXScaler = {
monoWidth = 600;
};
};
width = 600;
}
);
unicode = 55;
userData = {
RMXScaler = {
source = seven;
};
};
},
{
glyphname = eight;
lastChange = "2025-08-07 00:30:06 +0000";
layers = (
{
layerId = "590A0C71-EA88-4A1F-B6FA-52B0DDF92252";
shapes = (
{
closed = 1;
nodes = (
(410,-10,o),
(517,82,o),
(517,205,cs),
(517,304,o),
(442,375,o),
(338,371,c),
(342,358,l),
(472,358,o),
(576,435,o),
(576,547,cs),
(576,645,o),
(501,710,o),
(389,710,cs),
(263,710,o),
(168,626,o),
(168,515,cs),
(168,427,o),
(235,366,o),
(333,366,c),
(321,379,l),
(171,379,o),
(55,303,o),
(55,171,cs),
(55,62,o),
(140,-10,o),
(267,-10,cs)
);
},
{
closed = 1;
nodes = (
(158,18,o),
(83,80,o),
(83,172,cs),
(83,278,o),
(180,355,o),
(307,355,cs),
(419,355,o),
(488,295,o),
(488,206,cs),
(488,99,o),
(395,18,o),
(271,18,cs)
);
},
{
closed = 1;
nodes = (
(263,382,o),
(198,437,o),
(198,518,cs),
(198,611,o),
(280,682,o),
(389,682,cs),
(483,682,o),
(545,627,o),
(545,545,cs),
(545,453,o),
(461,382,o),
(357,382,cs)
);
}
);
userData = {
RMXScaler = {
monoWidth = 600;
useSpacing = 80;
};
};
width = 600;
},
{
hints = (
{
horizontal = 1;
origin = (0,25);
target = (1,11);
type = Stem;
},
{
horizontal = 1;
origin = (1,5);
target = (2,11);
type = Stem;
},
{
horizontal = 1;
origin = (0,12);
target = (2,5);
type = Stem;
}
);
layerId = "E84899BD-5F2A-4806-8411-3A23E0ED2668";
shapes = (
{
closed = 1;
nodes = (
(442,-10,o),
(565,78,o),
(565,209,cs),
(565,296,o),
(514,356,o),
(430,378,c),
(417,331,l),
(518,324,o),
(621,396,o),
(621,518,cs),
(621,636,o),
(529,710,o),
(376,710,cs),
(216,710,o),
(102,624,o),
(102,496,cs),
(102,407,o),
(157,359,o),
(233,347,c),
(244,384,l),
(136,388,o),
(10,319,o),
(10,186,cs),
(10,66,o),
(107,-10,o),
(270,-10,cs)
);
},
{
closed = 1;
nodes = (
(255,168,o),
(235,186,o),
(235,215,cs),
(235,250,o),
(262,276,o),
(298,276,cs),
(328,276,o),
(351,258,o),
(351,229,cs),
(351,195,o),
(323,168,o),
(286,168,cs)
);
},
{
closed = 1;
nodes = (
(321,428,o),
(302,446,o),
(302,472,cs),
(302,505,o),
(328,529,o),
(362,529,cs),
(390,529,o),
(409,511,o),
(409,485,cs),
(409,453,o),
(382,428,o),
(349,428,cs)
);
}
);
userData = {
RMXScaler = {
monoWidth = 600;
useSpacing = 80;
};
};
width = 600;
},
{
hints = (
{
horizontal = 1;
origin = (0,25);
target = (1,11);
type = Stem;
},
{
horizontal = 1;
origin = (1,5);
target = (2,11);
type = Stem;
},
{
horizontal = 1;
origin = (0,12);
target = (2,5);
type = Stem;
}
);
layerId = "138021A6-51CA-4FC2-BD69-BE801B30E3F7";
shapes = (
{
closed = 1;
nodes = (
(436,-9,o),
(554,78,o),
(554,215,cs),
(554,308,o),
(491,371,o),
(394,371,c),
(383,330,l),
(509,330,o),
(612,409,o),
(612,529,cs),
(612,647,o),
(508,709,o),
(381,709,cs),
(241,709,o),
(119,629,o),
(119,501,cs),
(119,419,o),
(172,344,o),
(263,344,c),
(275,381,l),
(149,401,o),
(23,315,o),
(23,179,cs),
(23,63,o),
(124,-9,o),
(275,-9,cs)
);
},
{
closed = 1;
nodes = (
(226,126,o),
(191,155,o),
(191,202,cs),
(191,258,o),
(238,298,o),
(300,298,cs),
(353,298,o),
(393,270,o),
(393,221,cs),
(393,163,o),
(341,126,o),
(284,126,cs)
);
},
{
closed = 1;
nodes = (
(306,417,o),
(272,446,o),
(272,487,cs),
(272,537,o),
(317,571,o),
(370,571,cs),
(420,571,o),
(451,543,o),
(451,502,cs),
(451,455,o),
(413,417,o),
(357,417,cs)
);
}
);
userData = {
RMXScaler = {
monoWidth = 600;
};
};
width = 600;
}
);
unicode = 56;
userData = {
RMXScaler = {
source = eight;
};
};
},
{
glyphname = nine;
lastChange = "2025-08-07 00:31:34 +0000";
layers = (
{
layerId = "590A0C71-EA88-4A1F-B6FA-52B0DDF92252";
shapes = (
{
closed = 1;
nodes = (
(180,-10,l),
(478,299,ls),
(547,371,o),
(577,441,o),
(577,512,cs),
(577,626,o),
(500,700,o),
(381,700,cs),
(239,700,o),
(127,583,o),
(127,429,cs),
(127,309,o),
(199,244,o),
(313,244,cs),
(353,244,o),
(397,253,o),
(444,289,c),
(434,291,l),
(143,-10,l)
);
},
{
closed = 1;
nodes = (
(220,271,o),
(157,328,o),
(157,433,cs),
(157,568,o),
(255,672,o),
(380,672,cs),
(481,672,o),
(547,607,o),
(547,507,cs),
(547,380,o),
(440,271,o),
(315,271,cs)
);
}
);
userData = {
RMXScaler = {
monoWidth = 600;
useSpacing = 80;
};
};
width = 600;
},
{
hints = (
{
horizontal = 1;
place = (0,21);
target = up;
type = BottomGhost;
},
{
horizontal = 1;
origin = (1,11);
target = (0,13);
type = Stem;
},
{
horizontal = 1;
origin = (1,5);
target = (0,7);
type = Stem;
}
);
layerId = "E84899BD-5F2A-4806-8411-3A23E0ED2668";
shapes = (
{
closed = 1;
nodes = (
(292,0,l),
(466,177,ls),
(604,317,o),
(628,404,o),
(628,493,cs),
(628,637,o),
(523,710,o),
(377,710,cs),
(201,710,o),
(71,591,o),
(71,433,cs),
(71,310,o),
(140,240,o),
(244,240,cs),
(302,240,o),
(354,263,o),
(415,314,c),
(323,314,l),
(-1,0,l)
);
},
{
closed = 1;
nodes = (
(310,404,o),
(288,426,o),
(288,459,cs),
(288,496,o),
(318,527,o),
(356,527,cs),
(391,527,o),
(413,505,o),
(413,473,cs),
(413,436,o),
(382,404,o),
(345,404,cs)
);
}
);
userData = {
RMXScaler = {
monoWidth = 600;
useSpacing = 80;
};
};
width = 600;
},
{
hints = (
{
horizontal = 1;
place = (0,21);
target = up;
type = BottomGhost;
},
{
horizontal = 1;
origin = (1,11);
target = (0,13);
type = Stem;
},
{
horizontal = 1;
origin = (1,5);
target = (0,7);
type = Stem;
}
);
layerId = "138021A6-51CA-4FC2-BD69-BE801B30E3F7";
shapes = (
{
closed = 1;
nodes = (
(262,0,l),
(477,231,ls),
(558,318,o),
(611,397,o),
(611,495,cs),
(611,626,o),
(516,710,o),
(378,710,cs),
(218,710,o),
(97,593,o),
(97,441,cs),
(97,323,o),
(172,237,o),
(280,237,cs),
(334,237,o),
(386,259,o),
(440,304,c),
(342,296,l),
(45,0,l)
);
},
{
closed = 1;
nodes = (
(292,367,o),
(259,401,o),
(259,454,cs),
(259,521,o),
(307,573,o),
(366,573,cs),
(415,573,o),
(450,541,o),
(450,487,cs),
(450,420,o),
(403,367,o),
(343,367,cs)
);
}
);
userData = {
RMXScaler = {
monoWidth = 600;
};
};
width = 600;
}
);
unicode = 57;
userData = {
RMXScaler = {
source = nine;
};
};
},
{
glyphname = zero.dnom;
kernLeft = zero.dnom;
kernRight = zero.dnom;
lastChange = "2025-08-07 00:31:53 +0000";
layers = (
{
layerId = "590A0C71-EA88-4A1F-B6FA-52B0DDF92252";
shapes = (
{
closed = 1;
nodes = (
(236,-6,o),
(327,131,o),
(327,293,cs),
(327,377,o),
(287,426,o),
(222,426,cs),
(118,426,o),
(26,292,o),
(26,131,cs),
(26,45,o),
(66,-6,o),
(134,-6,cs)
);
},
{
closed = 1;
nodes = (
(83,18,o),
(52,61,o),
(52,133,cs),
(52,279,o),
(131,402,o),
(220,402,cs),
(270,402,o),
(301,360,o),
(301,289,cs),
(301,143,o),
(223,18,o),
(137,18,cs)
);
}
);
userData = {
RMXScaler = {
adjustSpace = 9;
height = 60;
weight = 4;
width = 60;
};
};
width = 366;
},
{
hints = (
{
horizontal = 1;
origin = (1,11);
target = (0,11);
type = Stem;
},
{
horizontal = 1;
origin = (1,5);
target = (0,5);
type = Stem;
}
);
layerId = "E84899BD-5F2A-4806-8411-3A23E0ED2668";
shapes = (
{
closed = 1;
nodes = (
(298,-7,o),
(377,116,o),
(377,283,cs),
(377,382,o),
(319,440,o),
(232,440,cs),
(91,440,o),
(10,317,o),
(10,157,cs),
(10,52,o),
(69,-7,o),
(159,-7,cs)
);
},
{
closed = 1;
nodes = (
(156,123,o),
(147,134,o),
(147,162,cs),
(147,241,o),
(179,311,o),
(216,311,cs),
(232,311,o),
(242,301,o),
(242,279,cs),
(242,195,o),
(210,123,o),
(172,123,cs)
);
}
);
userData = {
RMXScaler = {
adjustSpace = 22;
height = 62;
weight = -339;
width = 62;
};
};
width = 403;
},
{
hints = (
{
horizontal = 1;
origin = (1,11);
target = (0,11);
type = Stem;
},
{
horizontal = 1;
origin = (1,5);
target = (0,5);
type = Stem;
}
);
layerId = "138021A6-51CA-4FC2-BD69-BE801B30E3F7";
shapes = (
{
closed = 1;
nodes = (
(276,-6,o),
(364,120,o),
(364,282,cs),
(364,377,o),
(310,433,o),
(227,433,cs),
(104,433,o),
(15,307,o),
(15,149,cs),
(15,50,o),
(70,-6,o),
(151,-6,cs)
);
},
{
closed = 1;
nodes = (
(140,97,o),
(127,115,o),
(127,152,cs),
(127,248,o),
(169,330,o),
(216,330,cs),
(239,330,o),
(253,314,o),
(253,279,cs),
(253,180,o),
(211,97,o),
(165,97,cs)
);
}
);
userData = {
RMXScaler = {
adjustSpace = 19;
height = 61;
weight = -247;
width = 61;
};
};
width = 395;
}
);
userData = {
RMXScaler = {
source = zero;
};
};
},
{
glyphname = one.dnom;
kernLeft = zero.dnom;
kernRight = zero.dnom;
lastChange = "2025-08-07 00:32:09 +0000";
layers = (
{
layerId = "590A0C71-EA88-4A1F-B6FA-52B0DDF92252";
shapes = (
{
closed = 1;
nodes = (
(112,11,l),
(197,355,ls),
(207,395,o),
(186,420,o),
(148,420,cs),
(76,420,l),
(70,396,l),
(143,396,ls),
(168,396,o),
(178,381,o),
(171,353,cs),
(87,11,l)
);
},
{
closed = 1;
nodes = (
(225,0,l),
(231,24,l),
(-25,24,l),
(-31,0,l)
);
}
);
userData = {
RMXScaler = {
adjustSpace = -27;
height = 60;
weight = 4;
width = 60;
};
};
width = 296;
},
{
hints = (
{
horizontal = 1;
origin = (1,3);
target = (1,2);
type = Stem;
},
{
horizontal = 1;
origin = (0,5);
target = (0,7);
type = Stem;
}
);
layerId = "E84899BD-5F2A-4806-8411-3A23E0ED2668";
shapes = (
{
closed = 1;
nodes = (
(207,50,l),
(273,315,ls),
(291,387,o),
(255,434,o),
(183,434,cs),
(76,434,l),
(44,303,l),
(121,303,ls),
(126,303,o),
(129,298,o),
(128,294,cs),
(67,50,l)
);
},
{
closed = 1;
nodes = (
(276,0,l),
(309,131,l),
(-1,131,l),
(-33,0,l)
);
}
);
userData = {
RMXScaler = {
adjustSpace = -11;
height = 62;
weight = -339;
width = 62;
};
};
width = 349;
},
{
hints = (
{
horizontal = 1;
origin = (1,3);
target = (1,2);
type = Stem;
},
{
horizontal = 1;
origin = (0,5);
target = (0,6);
type = Stem;
}
);
layerId = "138021A6-51CA-4FC2-BD69-BE801B30E3F7";
shapes = (
{
closed = 1;
nodes = (
(186,40,l),
(257,330,ls),
(271,387,o),
(243,427,o),
(182,427,cs),
(76,427,l),
(51,322,l),
(135,322,ls),
(139,322,o),
(143,320,o),
(142,316,cs),
(74,40,l)
);
},
{
closed = 1;
nodes = (
(260,0,l),
(286,105,l),
(1,105,l),
(-25,0,l)
);
}
);
userData = {
RMXScaler = {
adjustSpace = -15;
height = 61;
weight = -247;
width = 61;
};
};
width = 333;
}
);
userData = {
RMXScaler = {
source = one;
};
};
},
{
glyphname = two.dnom;
kernLeft = zero.dnom;
kernRight = zero.dnom;
lastChange = "2025-08-07 00:32:30 +0000";
layers = (
{
layerId = "590A0C71-EA88-4A1F-B6FA-52B0DDF92252";
shapes = (
{
closed = 1;
nodes = (
(234,0,l),
(239,24,l),
(11,24,l),
(12,16,l),
(193,165,ls),
(256,217,o),
(296,263,o),
(296,325,cs),
(296,387,o),
(254,426,o),
(190,426,cs),
(136,426,o),
(89,399,o),
(58,352,c),
(75,336,l),
(101,377,o),
(142,401,o),
(189,401,cs),
(238,401,o),
(270,371,o),
(270,323,cs),
(270,267,o),
(228,225,o),
(176,182,cs),
(-20,20,l),
(-25,0,l)
);
}
);
userData = {
RMXScaler = {
adjustSpace = -15;
height = 60;
weight = 4;
width = 60;
};
};
width = 321;
},
{
hints = (
{
horizontal = 1;
origin = (0,25);
target = (0,2);
type = Stem;
},
{
horizontal = 1;
origin = (0,10);
target = (0,17);
type = Stem;
}
);
layerId = "E84899BD-5F2A-4806-8411-3A23E0ED2668";
shapes = (
{
closed = 1;
nodes = (
(292,0,l),
(325,132,l),
(156,132,l),
(158,84,l),
(249,150,ls),
(322,203,o),
(351,252,o),
(351,313,cs),
(351,392,o),
(295,440,o),
(203,440,cs),
(133,440,o),
(81,410,o),
(37,360,c),
(112,264,l),
(142,291,o),
(160,305,o),
(180,305,cs),
(192,305,o),
(199,299,o),
(199,288,cs),
(199,271,o),
(178,252,o),
(159,237,cs),
(-8,106,l),
(-33,0,l)
);
}
);
userData = {
RMXScaler = {
adjustSpace = 7;
height = 62;
weight = -339;
width = 62;
};
};
width = 375;
},
{
hints = (
{
horizontal = 1;
origin = (0,25);
target = (0,1);
type = Stem;
},
{
horizontal = 1;
origin = (0,10);
target = (0,17);
type = Stem;
}
);
layerId = "138021A6-51CA-4FC2-BD69-BE801B30E3F7";
shapes = (
{
closed = 1;
nodes = (
(278,0,l),
(304,104,l),
(125,104,l),
(133,69,l),
(237,154,ls),
(297,203,o),
(336,252,o),
(336,315,cs),
(336,387,o),
(283,433,o),
(200,433,cs),
(136,433,o),
(87,405,o),
(43,359,c),
(104,281,l),
(136,311,o),
(158,325,o),
(183,325,cs),
(203,325,o),
(215,314,o),
(215,296,cs),
(215,270,o),
(185,240,o),
(163,222,cs),
(-5,84,l),
(-26,0,l)
);
}
);
userData = {
RMXScaler = {
adjustSpace = 1;
height = 61;
weight = -247;
width = 61;
};
};
width = 366;
}
);
userData = {
RMXScaler = {
source = two;
};
};
},
